<svg width="24" height="25" viewBox="0 0 24 25" fill="none" xmlns="http://www.w3.org/2000/svg">
<g clip-path="url(#clip0_1_1051)">
<path d="M12 23.8896C18.3513 23.8896 23.5 18.7409 23.5 12.3896C23.5 6.03837 18.3513 0.889648 12 0.889648C5.64873 0.889648 0.5 6.03837 0.5 12.3896C0.5 18.7409 5.64873 23.8896 12 23.8896Z" stroke="black"/>
<path fill-rule="evenodd" clip-rule="evenodd" d="M13.8627 8.54632C13.6802 8.33743 13.386 8.33743 13.2035 8.54632L10.1089 12.089C9.96369 12.2553 9.96369 12.5239 10.1089 12.6902L13.2035 16.2329C13.386 16.4418 13.6802 16.4418 13.8627 16.2329C14.0451 16.024 14.0451 15.6872 13.8627 15.4783L11.1665 12.3875L13.8664 9.29666C14.0451 9.09202 14.0451 8.75096 13.8627 8.54632Z" fill="#0C0C0C"/>
</g>
<defs>
<clipPath id="clip0_1_1051">
<rect width="24" height="24" fill="white" transform="translate(0 0.389648)"/>
</clipPath>
</defs>
</svg>
