<svg width="24" height="25" viewBox="0 0 24 25" fill="none" xmlns="http://www.w3.org/2000/svg">
<g clip-path="url(#clip0_1_1056)">
<path d="M12 0.889648C5.64873 0.889648 0.5 6.03837 0.5 12.3896C0.5 18.7409 5.64873 23.8896 12 23.8896C18.3513 23.8896 23.5 18.7409 23.5 12.3896C23.5 6.03837 18.3513 0.889648 12 0.889648Z" stroke="black"/>
<path fill-rule="evenodd" clip-rule="evenodd" d="M10.1373 16.233C10.3198 16.4419 10.614 16.4419 10.7965 16.233L13.8911 12.6903C14.0363 12.524 14.0363 12.2554 13.8911 12.0891L10.7965 8.54632C10.614 8.33742 10.3198 8.33742 10.1373 8.54632C9.95485 8.75522 9.95485 9.09202 10.1373 9.30092L12.8335 12.3918L10.1336 15.4827C9.95485 15.6873 9.95485 16.0284 10.1373 16.233Z" fill="#0C0C0C"/>
</g>
<defs>
<clipPath id="clip0_1_1056">
<rect width="24" height="24" fill="white" transform="translate(0 0.389648)"/>
</clipPath>
</defs>
</svg>
