<svg width="24" height="25" viewBox="0 0 24 25" fill="none" xmlns="http://www.w3.org/2000/svg">
<g clip-path="url(#clip0_1_1199)">
<path d="M12 23.6709C18.3513 23.6709 23.5 18.5222 23.5 12.1709C23.5 5.81962 18.3513 0.670898 12 0.670898C5.64873 0.670898 0.5 5.81962 0.5 12.1709C0.5 18.5222 5.64873 23.6709 12 23.6709Z" stroke="black"/>
<path fill-rule="evenodd" clip-rule="evenodd" d="M13.8627 8.32757C13.6802 8.11868 13.386 8.11868 13.2035 8.32757L10.1089 11.8703C9.96369 12.0366 9.96369 12.3052 10.1089 12.4715L13.2035 16.0142C13.386 16.2231 13.6802 16.2231 13.8627 16.0142C14.0451 15.8053 14.0451 15.4685 13.8627 15.2596L11.1665 12.1688L13.8664 9.07791C14.0451 8.87327 14.0451 8.53221 13.8627 8.32757Z" fill="#0C0C0C"/>
</g>
<defs>
<clipPath id="clip0_1_1199">
<rect width="24" height="24" fill="white" transform="translate(0 0.170898)"/>
</clipPath>
</defs>
</svg>
