<svg width="24" height="25" viewBox="0 0 24 25" fill="none" xmlns="http://www.w3.org/2000/svg">
<g clip-path="url(#clip0_1_1204)">
<path d="M12 0.670898C5.64873 0.670898 0.5 5.81962 0.5 12.1709C0.5 18.5222 5.64873 23.6709 12 23.6709C18.3513 23.6709 23.5 18.5222 23.5 12.1709C23.5 5.81962 18.3513 0.670898 12 0.670898Z" stroke="black"/>
<path fill-rule="evenodd" clip-rule="evenodd" d="M10.1373 16.0142C10.3198 16.2231 10.614 16.2231 10.7965 16.0142L13.8911 12.4715C14.0363 12.3052 14.0363 12.0366 13.8911 11.8703L10.7965 8.32757C10.614 8.11867 10.3198 8.11867 10.1373 8.32757C9.95485 8.53647 9.95485 8.87327 10.1373 9.08217L12.8335 12.173L10.1336 15.2639C9.95485 15.4685 9.95485 15.8096 10.1373 16.0142Z" fill="#0C0C0C"/>
</g>
<defs>
<clipPath id="clip0_1_1204">
<rect width="24" height="24" fill="white" transform="translate(0 0.170898)"/>
</clipPath>
</defs>
</svg>
