<?xml version="1.0" encoding="UTF-8"?>
<!-- Generator: Adobe Illustrator 14.0.0, SVG Export Plug-In . SVG Version: 6.00 Build 43363)  -->
<!DOCTYPE svg PUBLIC "-//W3C//DTD SVG 1.1//EN" "http://www.w3.org/Graphics/SVG/1.1/DTD/svg11.dtd">
<svg version="1.1" id="Layer_1" xmlns="http://www.w3.org/2000/svg" xmlns:xlink="http://www.w3.org/1999/xlink" x="0px" y="0px" width="120px" height="120px" viewBox="0 0 120 120" enable-background="new 0 0 120 120" xml:space="preserve">
<g>
	<g>
		<path fill="#1C75BC" d="M64.511,7.834c-0.396-0.286-0.886-0.414-1.372-0.359L45.354,9.451H23.605    c-0.419,0-0.829,0.133-1.168,0.379L0.573,25.73c-0.698,0.507-0.989,1.404-0.722,2.223c0.267,0.819,1.03,1.373,1.891,1.373    c0.163,0,0.325-0.02,0.482-0.06l23.613-5.903h9.693c0.009,0.162,0.03,0.323,0.06,0.481l1.988,7.951    c0.9,3.601,3.292,13.165,2.005,16.862l-1.292,4.52h-6.736c-0.625,0-1.215,0.295-1.59,0.795l-5.764,7.678l-5.168,3.453H11.68    v-1.988c0-1.097-0.891-1.987-1.987-1.987H1.742c-1.097,0-1.988,0.891-1.988,1.987v31.802c0,1.097,0.891,1.987,1.988,1.987h7.951    c1.097,0,1.987-0.891,1.987-1.987V92.93h7.354l5.462,3.642c0.325,0.216,0.706,0.332,1.097,0.333h5.192l-1.073,3.22    c-1.328,2.838-1.48,6.085-0.426,9.033c0.623,1.663,1.953,2.963,3.63,3.545c0.729,0.238,1.492,0.358,2.26,0.355    c3.607-0.053,6.835-2.251,8.205-5.589l0.565-1.698c2.872,2.506,6.471,4.03,10.268,4.348c1.296,0.006,2.577-0.278,3.748-0.832    c9.646-4.561,9.49-27.27,9.387-42.295c-0.016-1.381-0.016-2.683-0.016-3.876c0-15.701-12.647-28.159-17.113-32.072l-0.156-0.419    l-2.607-7.593v-0.104l14.036-3.505l15.532,1.939c0.9,0.11,1.763-0.404,2.094-1.25c0.33-0.847,0.045-1.81-0.693-2.339L64.511,7.834    z M35.531,19.388h-9.938c-0.163,0-0.325,0.02-0.482,0.06l-13.928,3.481l13.068-9.503h11.28V19.388z M7.705,92.93H3.729V65.104    h3.975V92.93z M45.361,29.326h-4.302l-0.994-3.975h3.976L45.361,29.326z M39.506,21.376v-7.95h3.975v7.95H39.506z M39.632,106.143    c-0.924,2.111-3.209,3.276-5.461,2.783c-0.587-0.215-1.038-0.696-1.212-1.296c-0.328-0.89-0.458-1.838-0.386-2.783h7.49    L39.632,106.143z M41.386,100.88h-7.735l1.325-3.976h7.734L41.386,100.88z M52.753,39.265    c4.841,5.519,10.604,14.112,10.604,23.851c0,1.193,0,2.513,0.018,3.904c0.085,12.298,0.241,35.196-7.111,38.67    c-2.567,1.211-6.265-0.127-10.98-3.931l1.618-4.854h2.543c3.293,0,5.962-2.669,5.962-5.963c-0.006-1.027-0.28-2.035-0.794-2.923    c1.49-0.929,2.489-2.473,2.729-4.212c0.238-1.74-0.311-3.495-1.498-4.79c1.744-1.883,2.049-4.685,0.753-6.898    c2.248-1.413,3.288-4.143,2.55-6.692c-0.737-2.55-3.074-4.303-5.728-4.298h-1.724l1.724-13.749    C53.608,44.656,53.383,41.921,52.753,39.265L52.753,39.265z M53.419,65.104c1.097,0,1.987,0.89,1.987,1.987    c0,1.097-0.89,1.987-1.987,1.987H35.531v3.976h15.901c1.097,0,1.988,0.891,1.988,1.987s-0.891,1.987-1.988,1.987H35.531v3.976    h15.901c1.097,0,1.988,0.891,1.988,1.987c0,1.098-0.891,1.988-1.988,1.988H35.531v3.975h13.914c1.097,0,1.987,0.891,1.987,1.987    c0,1.098-0.891,1.988-1.987,1.988H26.189l-5.462-3.642c-0.324-0.216-0.706-0.333-1.097-0.334H11.68V69.078h7.951    c0.392,0,0.776-0.116,1.102-0.334l5.963-3.975c0.188-0.126,0.352-0.281,0.488-0.461l5.366-7.156h4.605l-1.546,5.417    c-0.17,0.6-0.05,1.245,0.325,1.742c0.375,0.497,0.961,0.791,1.585,0.791H53.419z M49.46,46.969l-1.771,14.159h-7.538l3.218-11.27    c1.284-3.679,0.223-9.979-1.335-16.557h4.707l0.097,0.082C48.666,37.674,49.56,42.306,49.46,46.969L49.46,46.969z M61.615,15.429    c-0.243-0.031-0.49-0.016-0.728,0.044l-13.431,3.356v-5.603l15.364-1.709l6.907,4.935L61.615,15.429z M61.615,15.429"/>
		<path fill="#1C75BC" d="M114.8,7.696c-3.403-3.935-8.348-6.196-13.548-6.196c-5.201,0-10.146,2.261-13.55,6.196    c-3.384,3.815-4.958,8.903-4.32,13.962l3.709,25.954c-1.847,0.683-3.234,2.241-3.697,4.155c-0.462,1.915,0.059,3.934,1.39,5.386    c-2.066,2.246-2.066,5.704,0,7.951c-1.331,1.451-1.852,3.47-1.39,5.385c0.463,1.914,1.851,3.473,3.697,4.155l-3.713,25.979    c-0.63,5.052,0.944,10.13,4.324,13.938c3.404,3.935,8.349,6.195,13.55,6.195c5.2,0,10.145-2.261,13.548-6.195    c3.383-3.815,4.956-8.904,4.318-13.963l-3.72-26.038c1.772-0.749,3.069-2.313,3.479-4.193c0.41-1.881-0.119-3.844-1.418-5.263    c2.066-2.247,2.066-5.705,0-7.951c1.296-1.419,1.824-3.38,1.414-5.259s-1.706-3.442-3.476-4.192l3.726-26.066    C119.754,16.583,118.178,11.504,114.8,7.696L114.8,7.696z M113.047,51.19c1.098,0,1.987,0.891,1.987,1.987    c0,1.097-0.89,1.988-1.987,1.988H89.196c-1.098,0-1.988-0.891-1.988-1.988c0-1.097,0.891-1.987,1.988-1.987H113.047z     M96.749,15.483c1.128-1.307,2.771-2.057,4.497-2.057c1.726,0,3.368,0.75,4.496,2.057c1.294,1.562,1.836,3.613,1.485,5.611    l-3.722,26.121h-4.507l-3.735-26.15C94.918,19.078,95.462,17.037,96.749,15.483L96.749,15.483z M89.196,59.141h23.851    c1.098,0,1.987,0.89,1.987,1.987c0,1.097-0.89,1.987-1.987,1.987H89.196c-1.098,0-1.988-0.891-1.988-1.987    C87.208,60.031,88.099,59.141,89.196,59.141L89.196,59.141z M89.196,67.091h23.851c1.098,0,1.987,0.89,1.987,1.987    s-0.89,1.987-1.987,1.987H89.196c-1.098,0-1.988-0.89-1.988-1.987S88.099,67.091,89.196,67.091L89.196,67.091z M105.749,106.772    c-1.13,1.308-2.771,2.058-4.497,2.058c-1.728,0-3.368-0.75-4.498-2.058c-1.294-1.562-1.837-3.612-1.486-5.61l3.731-26.121h4.507    l3.735,26.149C107.585,103.18,107.039,105.22,105.749,106.772L105.749,106.772z M111.813,111.941    c-2.647,3.074-6.504,4.843-10.562,4.843c-4.059,0-7.914-1.769-10.562-4.843c-2.622-2.94-3.853-6.865-3.38-10.775l3.739-26.125    h3.936l-3.648,25.528c-0.528,3.137,0.345,6.347,2.385,8.786c1.886,2.189,4.63,3.45,7.52,3.45s5.636-1.261,7.52-3.45    c2.042-2.429,2.918-5.629,2.399-8.758l-3.642-25.557h3.939l3.727,26.098c0.482,3.917-0.745,7.851-3.371,10.799V111.941z     M115.191,21.108l-3.734,26.107h-3.936l3.646-25.528c0.529-3.137-0.342-6.347-2.385-8.786c-1.884-2.189-4.63-3.45-7.519-3.45    s-5.635,1.26-7.52,3.45c-2.04,2.429-2.916,5.628-2.398,8.758l3.638,25.557h-3.936L87.322,21.12    c-0.485-3.917,0.742-7.853,3.367-10.801c2.647-3.075,6.503-4.844,10.562-4.844c4.058,0,7.914,1.769,10.562,4.844    c2.619,2.941,3.847,6.866,3.371,10.775L115.191,21.108z M115.191,21.108"/>
	</g>
</g>
</svg>