<svg width="1123" height="334" viewBox="0 0 1123 334" fill="none" xmlns="http://www.w3.org/2000/svg">
<g clip-path="url(#clip0_1_1388)">
<g opacity="0.1">
<path d="M0.949586 322.28C17.8783 333.279 30.773 348.624 44.8739 362.685C46.7214 364.499 47.7394 367.069 45.5149 369.186C42.8003 371.794 39.3317 370.887 37.0695 368.77C29.001 361.173 19.1227 354.861 14.7868 344.164C11.9967 337.285 6.8313 335.206 0.723389 333.619C0.798828 329.839 0.874146 326.06 0.949586 322.28Z" fill="#BDBDBD"/>
<path d="M5.54936 250.542C22.5535 261.427 33.8268 276.849 41.1035 295.445L39.9347 296.579C26.2484 293.177 22.2897 280.024 15.6162 270.423C11.3935 264.338 7.66081 260.18 0.761027 258.592C-0.558553 254.17 -0.822469 250.353 5.54936 250.542Z" fill="#BDBDBD"/>
<path d="M731.64 7.31666C721.46 21.3016 703.852 21.1504 688.168 32.7541C692.466 11.0585 714.673 15.2919 720.366 1.42029C726.324 -0.847533 729.792 1.68488 731.64 7.31666Z" fill="#BDBDBD"/>
<path d="M186.865 17.9375C196.517 25.0812 201.154 35.8533 206.206 46.5878C191.955 43.6396 187.807 31.5067 183.321 19.7139C184.489 19.1092 185.658 18.5422 186.865 17.9375Z" fill="#BDBDBD"/>
<path d="M994.13 29.0879C996.882 15.7832 1015.62 15.7455 1017.13 1.42035C1024.41 -1.75458 1023.61 4.10394 1024.52 8.03485C1019.05 21.0371 1004.69 22.36 995.299 30.2218L994.13 29.0879Z" fill="#BDBDBD"/>
<path d="M979.464 7.65652C975.919 17.7862 967.361 20.5076 956.502 25.3456C959.179 12.8347 972.79 11.9654 972.036 1.42001C978.672 -1.45261 978.709 3.4988 979.464 7.65652Z" fill="#BDBDBD"/>
<path d="M1114.97 202.198C1110.37 206.772 1104.86 209.833 1098.64 211.458C1098.38 211.534 1096.38 208.246 1096.8 207.225C1100.23 199.137 1107.58 198.721 1114.97 198.607C1115.01 199.779 1115.01 200.989 1114.97 202.198Z" fill="#BDBDBD"/>
<path d="M1123 284.786C1122.4 284.862 1121.79 285.013 1121.19 284.937C1115.91 284.181 1107.58 292.95 1106.11 284.597C1104.53 275.677 1115.04 278.058 1121.15 277.264C1121.76 279.759 1122.4 282.291 1123 284.786Z" fill="#BDBDBD"/>
<path d="M491.356 1.41982C491.13 5.38851 491.847 10.1509 487.134 11.7762C484.117 12.7967 484.155 9.43276 483.854 7.35391C482.119 -0.016521 485.286 -1.11259 491.356 1.41982Z" fill="#BDBDBD"/>
<path d="M408.447 18.8063C404.903 16.7652 401.585 14.4974 401.51 9.81055C402.942 7.16474 400.68 2.96918 404.978 1.49512C406.336 7.08911 407.693 12.6453 409.05 18.2393L408.447 18.8063Z" fill="#BDBDBD"/>
<path d="M862.998 11.3608C860.736 12.646 858.474 13.8933 856.174 15.1784L855.156 14.1201C855.797 10.3404 857.493 7.42999 861.528 6.44727C862.018 8.11035 862.508 9.7356 862.998 11.3608Z" fill="#BDBDBD"/>
<path d="M179.173 1.41992C179.286 3.46099 179.437 5.50201 179.55 7.54309C176.496 5.69097 172.688 3.87676 179.173 1.41992Z" fill="#BDBDBD"/>
<path d="M810.251 1.60864C810.251 1.60864 810.402 1.75988 810.364 1.75988C810.817 1.6087 811.269 1.41973 811.722 1.26855C811.269 1.38189 810.779 1.49529 810.251 1.60864Z" fill="#BDBDBD"/>
<path d="M344.917 1.98652L345.068 1.49512C344.653 1.68409 344.276 1.87311 343.861 2.06214C344.201 2.06214 344.54 2.0243 344.917 1.98652Z" fill="#BDBDBD"/>
<path d="M217.216 2.25183L217.404 1.72266C216.952 1.83606 216.499 1.91162 216.047 2.02497C216.424 2.13837 216.801 2.17621 217.216 2.25183Z" fill="#BDBDBD"/>
<path d="M653.292 167.123C581.392 172.982 509.416 176.875 437.29 171.546C436.687 169.694 436.121 167.804 435.518 165.952C496.107 165.876 556.696 172.188 617.248 164.667C629.878 163.117 642.735 163.419 655.479 162.89C654.763 164.289 654.046 165.725 653.292 167.123Z" fill="#BDBDBD"/>
<path d="M683.266 211.874C617.813 219.207 552.285 224.763 483.627 220.152C491.206 215.616 497.012 216.41 502.592 216.637C556.96 219.056 611.027 214.293 664.943 208.321C671.918 207.565 678.026 209.077 684.548 209.531C683.832 210.136 683.379 210.892 683.266 211.874Z" fill="#BDBDBD"/>
<path d="M650.841 285.05C598.849 289.094 546.78 295.86 495.051 284.445C546.931 287.733 598.924 285.314 650.841 285.05Z" fill="#BDBDBD"/>
<path d="M889.956 75.2375C868.503 97.0087 848.784 121.01 818.244 131.139L817.943 130.837C840.527 110.54 860.283 86.6522 889.202 74.3682L889.956 75.2375Z" fill="#BDBDBD"/>
<path d="M393.064 63.9742C374.325 53.1642 367.765 31.2418 351.176 18.3908C349.328 16.9545 349.102 13.6661 351.93 12.192C354.946 10.6046 358.377 11.3605 360.338 13.8551C372.591 29.6165 389.067 42.5432 393.931 63.2939L393.064 63.9742Z" fill="#BDBDBD"/>
<path d="M285.383 74.2168C307.251 85.9717 316.036 108.763 330.062 127.133L329.157 127.813C324.859 127.397 319.769 127.662 317.28 123.731C306.799 107.252 290.926 94.4005 284.215 75.3507L285.383 74.2168Z" fill="#BDBDBD"/>
<path d="M446.716 214.181C435.593 222.307 424.358 215.05 414.479 212.291C404.601 209.57 395.929 202.993 384.694 205.374C382.281 205.903 379.792 204.24 379.491 201.216C379.227 198.419 380.396 195.585 383.337 196.341C404.3 201.859 426.658 202.275 446.075 213.274L446.716 214.181Z" fill="#BDBDBD"/>
<path d="M567.253 30.9774C549.231 26.1393 527.778 33.8878 513.149 16.7656C531.058 21.9438 551.267 18.6933 567.253 30.9774Z" fill="#BDBDBD"/>
<path d="M511.075 104.834C526.76 104.834 538.523 104.796 550.287 104.871C553.492 104.909 557.036 105.703 556.734 109.596C556.583 111.486 553.944 114.585 552.285 114.699C538.825 115.644 524.234 120.973 511.075 104.834Z" fill="#BDBDBD"/>
<path d="M612.233 104.87C603.976 114.698 579.959 120.027 571.891 114.395C570.232 113.223 568.799 110.464 568.799 108.423C568.799 105.4 572.004 104.984 574.379 104.946C586.708 104.795 599.037 104.87 612.233 104.87Z" fill="#BDBDBD"/>
<path d="M979.087 344.278C990.058 325.719 999.145 305.763 1016.94 292.156L1017.32 292.534C1010.3 313.927 997.787 331.427 980.218 345.374C980.218 345.336 979.087 344.278 979.087 344.278Z" fill="#BDBDBD"/>
<path d="M739.671 159.602C719.575 161.114 699.441 162.626 679.345 164.1C679.534 161.114 679.421 158.354 675.273 158.543C696.953 157.145 718.67 155.784 740.349 154.386C740.123 156.124 739.897 157.863 739.671 159.602Z" fill="#BDBDBD"/>
<path d="M254.467 120.065C239.197 109.255 230.374 93.9094 224.568 76.4092C231.995 92.7754 256.616 96.593 255.032 119.498L254.467 120.065Z" fill="#BDBDBD"/>
<path d="M855.985 150.001C844.146 163.23 831.817 175.703 812.626 177.064C828.613 170.525 836.266 150.984 855.42 149.472L855.985 150.001Z" fill="#BDBDBD"/>
<path d="M618.53 67.0358C588.066 67.0358 557.564 67.0358 527.099 67.0358C527.062 65.7885 527.062 64.5412 527.024 63.2939C557.714 63.2939 588.367 63.2939 619.058 63.2939C618.907 64.5412 618.718 65.7885 618.53 67.0358Z" fill="#BDBDBD"/>
<path d="M1016.98 292.119C1023.39 276.168 1031.38 261.39 1045.9 251.298C1038.92 266.832 1030.89 281.611 1017.36 292.497L1016.98 292.119Z" fill="#BDBDBD"/>
<path d="M584.371 29.7676C613.101 29.7676 641.868 29.7676 670.598 29.7676C641.906 36.5333 612.987 32.9048 584.371 29.7676Z" fill="#BDBDBD"/>
<path d="M691.109 280.136C704.531 275.903 719.537 276.622 734.43 276.66C719.725 280.439 705.21 286.902 691.109 280.136Z" fill="#BDBDBD"/>
<path d="M284.215 75.3513C272.564 70.0597 262.799 63.2563 262.271 46.1719C274.449 53.7314 283.988 60.4592 285.383 74.1796C285.383 74.2174 284.215 75.3513 284.215 75.3513Z" fill="#BDBDBD"/>
<path d="M403.923 169.655C397.513 163.607 386.39 169.05 383.45 159.034C382.243 154.838 386.24 154.385 389.331 156.577C396.533 161.68 409.503 150.681 412.858 163.947C414.781 171.469 406.486 166.102 403.923 169.655Z" fill="#BDBDBD"/>
<path d="M1073.99 225.369C1073.65 226.578 1073.61 227.939 1072.93 228.922C1068.07 235.952 1063.62 243.549 1054.34 245.477C1053.7 245.628 1051.36 242.567 1051.67 241.546C1054.72 230.963 1061.77 224.991 1073.01 224.348L1073.99 225.369Z" fill="#BDBDBD"/>
<path d="M654.31 55.4317C665.961 52.4458 672.973 50.4047 680.137 48.9306C682.776 48.4015 686.886 47.3431 687.338 51.9166C687.64 55.2428 685.34 58.3043 682.173 58.8335C674.444 60.0808 666.526 61.2903 654.31 55.4317Z" fill="#BDBDBD"/>
<path d="M961.177 59.9681C959.443 74.0664 945.191 73.3483 936.746 79.547C941.195 68.8882 947.114 59.8925 960.536 59.3633C960.574 59.3633 961.177 59.9681 961.177 59.9681Z" fill="#BDBDBD"/>
<path d="M618.53 67.0358C618.718 65.7885 618.869 64.5412 619.058 63.2939C624.223 58.3802 630.972 57.2463 637.532 56.2258C640.549 55.7722 645.714 54.147 645.902 59.8543C646.015 63.8231 642.924 66.6579 638.776 66.8469C632.065 67.187 625.316 66.998 618.53 67.0358Z" fill="#BDBDBD"/>
<path d="M748.229 195.32C759.955 196.416 770.361 187.95 785.292 190.671C771.718 198.117 759.088 199.213 746.91 201.821C747.362 199.629 747.814 197.475 748.229 195.32Z" fill="#BDBDBD"/>
<path d="M675.273 158.542C679.383 158.391 679.534 161.113 679.345 164.099C671.465 171.847 662.19 167.878 653.33 167.122C654.046 165.686 654.8 164.288 655.517 162.889C660.682 154.989 668.147 157.597 675.273 158.542Z" fill="#BDBDBD"/>
<path d="M926.566 44.1688C930.148 31.9225 941.27 31.091 950.884 27.916C945.945 37.5543 937.5 42.3923 927.584 45.1893L926.566 44.1688Z" fill="#BDBDBD"/>
<path d="M446.15 213.31C453.465 207.83 465.379 206.696 467.113 213.613C470.695 227.976 460.1 219.623 454.747 218.073C451.957 217.279 449.43 215.503 446.754 214.18C446.716 214.18 446.15 213.31 446.15 213.31Z" fill="#BDBDBD"/>
<path d="M498.369 58.7586C505.307 54.9789 512.056 53.3158 517.674 60.8375C519.257 62.9541 519.295 65.7133 516.354 66.696C508.813 69.2662 503.648 65.1085 498.935 59.9681L498.369 58.7586Z" fill="#BDBDBD"/>
<path d="M41.1035 295.444C50.9064 298.657 57.7685 304.326 59.6159 318.462C49.7 311.281 42.3854 306.216 39.9347 296.578C39.897 296.578 41.1035 295.444 41.1035 295.444Z" fill="#BDBDBD"/>
<path d="M995.261 30.2218C992.999 37.5923 989.53 43.8288 980.595 43.8288C979.501 43.8288 977.277 41.2964 977.465 40.3893C979.577 31.7716 986.514 29.8817 994.092 29.0879C994.13 29.0879 995.261 30.2218 995.261 30.2218Z" fill="#BDBDBD"/>
<path d="M421.681 80.1133C428.317 83.2127 435.933 83.4395 437.893 92.0572C438.119 93.0022 435.066 95.6102 435.028 95.5346C429.9 91.6037 420.437 91.6792 421.681 80.1133Z" fill="#BDBDBD"/>
<path d="M885.318 123.24C886.072 120.972 886.374 118.364 887.731 116.512C890.559 112.619 893.689 108.499 899.344 109.293C900.664 109.482 902.737 111.447 902.7 112.543C902.511 118.666 896.78 119.46 892.784 121.766C890.785 122.937 888.222 123.202 885.884 123.845L885.318 123.24Z" fill="#BDBDBD"/>
<path d="M435.556 165.952C436.121 167.804 436.724 169.694 437.328 171.546C435.48 171.735 433.67 172.075 431.823 172.075C427.6 172.075 422.737 172.982 421.153 167.464C420.776 166.103 421.756 163.419 422.925 162.739C427.902 159.942 432.313 160.962 435.556 165.952Z" fill="#BDBDBD"/>
<path d="M360.375 152.533C352.269 149.773 343.824 147.77 338.62 138.623C346.538 141.874 354.456 145.162 362.374 148.413C361.695 149.773 361.054 151.134 360.375 152.533Z" fill="#BDBDBD"/>
<path d="M683.266 211.875C683.379 210.893 683.832 210.137 684.586 209.57C687.451 204.013 691.674 201.027 697.971 203.56C700.308 204.505 701.59 207.34 699.969 209.645C695.331 216.184 689.073 212.782 683.266 211.875Z" fill="#BDBDBD"/>
<path d="M624.411 108.273C624.525 103.662 627.88 101.999 631.613 101.432C634.327 101.016 638.475 99.8819 638.588 104.531C638.663 108.538 636.024 111.448 631.801 111.864C628.823 112.166 625.505 112.393 624.411 108.273Z" fill="#BDBDBD"/>
<path d="M1073.01 224.348C1073.83 212.934 1085 214.823 1092.5 206.47C1090.73 221.287 1081.68 222.572 1074.02 225.369C1073.99 225.369 1073.01 224.348 1073.01 224.348Z" fill="#BDBDBD"/>
<path d="M504.628 110.579C497.615 112.355 491.62 114.85 488.491 106.988C488.039 105.854 489.32 102.906 490.414 102.49C497.992 99.6929 500.858 104.871 504.628 110.579Z" fill="#BDBDBD"/>
<path d="M298.806 147.317C284.629 150.605 281.462 144.709 279.766 136.318C284.78 139.19 289.757 142.101 298.806 147.317Z" fill="#BDBDBD"/>
<path d="M818.244 131.14C816.02 140.968 808.291 141.875 797.168 144.521C803.502 134.353 809.686 130.989 817.943 130.838L818.244 131.14Z" fill="#BDBDBD"/>
<path d="M715.05 85.6701C709.885 88.6939 706.831 95.1572 699.592 94.1745C699.102 94.0989 698.235 91.7554 698.612 90.9995C702.231 84.2338 708.301 84.0826 715.05 85.6701Z" fill="#BDBDBD"/>
<path d="M466.812 48.2133C459.233 48.2889 451.768 48.3645 447.017 39.6333C456.519 37.8191 461.609 43.5642 466.812 48.2133Z" fill="#BDBDBD"/>
<path d="M250.545 33.8496C244.701 32.9425 237.726 35.0591 234.182 28.1801C233.617 27.0839 234.635 23.8333 235.464 23.6066C244.023 21.2631 247.19 28.0289 251.186 33.3205L250.545 33.8496Z" fill="#BDBDBD"/>
<path d="M1096.72 289.851C1094.72 298.015 1089.03 300.245 1080.92 301.492C1082.85 290.947 1091.4 292.686 1096.72 289.851Z" fill="#BDBDBD"/>
<path d="M1046.84 322.091C1051.06 315.023 1056.83 310.449 1065.54 310.638L1066.48 311.583C1064.75 322.733 1055.96 322.28 1047.82 322.847L1046.84 322.091Z" fill="#BDBDBD"/>
<path d="M866.391 137.867C867.749 129.023 874.007 126.944 881.661 126.868L882.302 127.511C881.322 136.507 875.101 138.661 867.447 138.963L866.391 137.867Z" fill="#BDBDBD"/>
<path d="M709.432 203.672C716.257 196.491 722.063 198.57 729.227 199.477C723.647 205.713 718.33 206.998 709.432 203.672Z" fill="#BDBDBD"/>
<path d="M915.217 96.6313C916.574 90.9239 918.912 86.0481 925.963 86.8419C927.169 86.9931 929.243 89.2987 929.054 90.2814C927.772 97.5763 921.438 96.7825 916.235 97.6897L915.217 96.6313Z" fill="#BDBDBD"/>
<path d="M889.202 74.3684C893.462 68.3586 894.857 58.1534 910.127 62.0843C901.493 67.716 895.725 71.458 889.956 75.2377L889.202 74.3684Z" fill="#BDBDBD"/>
<path d="M221.702 69.568C215.595 69.0388 210.693 67.7159 210.467 60.8368C210.429 59.7407 212.805 57.4351 213.672 57.5862C219.893 58.8335 221.778 63.2558 221.702 69.568Z" fill="#BDBDBD"/>
<path d="M748.229 195.32C747.777 197.475 747.324 199.667 746.91 201.821C744.911 204.543 742.536 206.357 739.03 204.845C736.277 203.673 735.561 201.216 736.73 198.722C739.218 193.392 744.044 195.282 748.229 195.32Z" fill="#BDBDBD"/>
<path d="M663.962 101.205C658.533 103.208 653.141 107.593 646.393 100.676C652.764 95.7999 658.495 96.2156 664.528 100.184L663.962 101.205Z" fill="#BDBDBD"/>
<path d="M927.546 45.1894C926.377 53.0135 917.856 52.0685 913.181 57.9271C911.635 45.832 919.251 45.1894 926.566 44.1689L927.546 45.1894Z" fill="#BDBDBD"/>
<path d="M777.185 60.8752C777.675 57.5869 779.184 54.8655 782.464 53.9206C785.254 53.1268 787.29 54.6009 787.365 57.5869C787.478 61.1776 785.065 63.1431 781.974 64.2014C779.033 65.1841 777.412 63.9368 777.185 60.8752Z" fill="#BDBDBD"/>
<path d="M763.197 69.5306C760.897 75.2758 757.73 78.7531 752.113 75.9939C751.359 75.616 750.755 73.6883 751.057 72.7812C753.319 65.6375 759.201 71.3071 763.197 69.5306Z" fill="#BDBDBD"/>
<path d="M769.871 25.459C766.402 34.8705 761.727 34.0768 752.15 29.5411C760.03 27.7646 764.215 26.7819 769.871 25.459Z" fill="#BDBDBD"/>
<path d="M739.671 159.602C739.897 157.863 740.123 156.124 740.387 154.386C745.439 154.31 750.906 151.4 756.071 157.523C750.868 162.625 745.175 160.584 739.671 159.602Z" fill="#BDBDBD"/>
<path d="M776.62 150C772.849 151.625 772.02 158.013 766.515 156.577C763.122 155.708 763.989 153.1 765.233 150.907C768.438 145.238 772.472 145.049 777.072 149.206L776.62 150Z" fill="#BDBDBD"/>
<path d="M780.541 22.2088C781.295 14.3847 786.762 13.1752 795.094 11.4365C791.739 20.0921 786.498 21.6796 780.541 22.2088Z" fill="#BDBDBD"/>
<path d="M258.652 123.164C264.156 124.26 271.132 121.237 274.676 128.872C267.06 133.332 262.196 129.854 258.124 123.693L258.652 123.164Z" fill="#BDBDBD"/>
<path d="M465.417 101.659C461.835 104.682 458.065 106.119 454.897 101.432C453.502 99.3526 453.879 96.3288 456.481 95.4972C460.93 94.0231 461.646 99.655 464.889 100.789L465.417 101.659Z" fill="#BDBDBD"/>
<path d="M464.889 100.751C468.848 96.5181 473.221 96.0267 477.821 99.6174C478.273 99.9576 477.972 102.226 477.331 102.792C473.07 106.497 469.376 102.452 465.454 101.659C465.417 101.659 464.889 100.751 464.889 100.751Z" fill="#BDBDBD"/>
<path d="M664.49 100.184C667.846 99.3523 668.788 93.2291 673.426 95.9128C674.406 96.4797 674.934 99.6547 674.255 100.864C671.201 106.382 667.506 104.833 663.925 101.204C663.962 101.204 664.49 100.184 664.49 100.184Z" fill="#BDBDBD"/>
<path d="M683.417 95.3838C683.945 91.7553 685.83 90.3946 688.507 90.4324C690.43 90.4324 692.277 91.3773 691.41 93.7963C690.43 96.5177 689.789 100.222 685.604 99.0879C684.473 98.7099 683.907 96.2909 683.417 95.3838Z" fill="#BDBDBD"/>
<path d="M498.973 59.93C495.391 63.5963 491.696 65.1082 488.642 59.6654C487.963 58.4559 488.453 55.3187 489.434 54.714C494.033 51.8414 495.089 58.0401 498.407 58.7583C498.369 58.7583 498.973 59.93 498.973 59.93Z" fill="#BDBDBD"/>
<path d="M696.689 53.9962C696.123 52.8623 694.766 51.3882 694.841 49.9897C695.067 46.399 697.631 44.7359 701.025 45.5296C701.779 45.7186 702.533 48.5156 702.193 49.8385C701.666 52.1063 700.497 54.4497 696.689 53.9962Z" fill="#BDBDBD"/>
<path d="M367.954 154.46C368.708 153.742 370.555 151.588 370.895 151.777C372.704 152.948 374.816 154.422 375.607 156.275C376.814 159.109 374.891 160.772 372.026 160.357C369.386 159.979 368.104 157.938 367.954 154.46Z" fill="#BDBDBD"/>
<path d="M811.345 40.9561C811.571 39.5576 813.154 37.819 815.869 37.819C818.546 37.7811 820.921 39.4064 819.677 42.0901C818.885 43.8287 816.095 45.1138 813.946 45.643C811.872 46.1722 810.93 44.3579 811.345 40.9561Z" fill="#BDBDBD"/>
<path d="M438.383 33.2455C432.389 35.3621 428.505 34.1148 424.886 29.8059C431.22 24.2497 433.859 29.9193 438.383 33.2455Z" fill="#BDBDBD"/>
<path d="M844.109 21.9063C844.637 14.8382 850.103 14.7626 855.156 14.1201L856.174 15.1405C855.005 21.8306 849.953 22.322 844.637 22.4354L844.109 21.9063Z" fill="#BDBDBD"/>
<path d="M796.904 189.008C793.812 189.575 792.568 187.987 792.681 186.06C792.757 184.51 793.737 182.318 794.944 181.713C797.13 180.693 798.488 182.696 798.45 184.623C798.45 186.211 797.394 187.761 796.904 189.008Z" fill="#BDBDBD"/>
<path d="M716.106 46.5877C715.39 49.2335 714.296 51.199 712.185 50.1406C710.978 49.5737 710.073 47.2681 710.073 45.7562C710.036 43.8285 711.506 41.8631 713.693 42.8836C714.937 43.4506 715.465 45.5672 716.106 46.5877Z" fill="#BDBDBD"/>
<path d="M352.382 194.186C350.949 191.918 349.29 190.482 349.366 189.159C349.441 187.836 351.251 186.627 352.307 185.379C353.362 186.627 355.134 187.836 355.248 189.197C355.436 190.482 353.815 191.918 352.382 194.186Z" fill="#BDBDBD"/>
<path d="M476.313 49.1201C477.67 51.1612 479.141 52.3707 479.254 53.7314C479.48 56.1504 478.349 58.5316 475.408 57.6623C474.352 57.3599 473.334 54.9409 473.372 53.5424C473.41 52.2951 474.918 51.0856 476.313 49.1201Z" fill="#BDBDBD"/>
<path d="M85.5181 333.695C80.7675 333.317 75.1498 334.299 74.4334 324.699C79.0332 328.176 85.5936 325.493 85.7444 333.506L85.5181 333.695Z" fill="#BDBDBD"/>
<path d="M777.11 149.207C780.164 148.866 781.22 141.685 785.631 146.523C786.536 147.506 786.762 150.605 785.97 151.361C782.577 154.612 779.372 153.175 776.657 150C776.62 150 777.11 149.207 777.11 149.207Z" fill="#BDBDBD"/>
<path d="M720.442 84.8379C721.611 82.9858 722.214 80.7936 723.345 80.4534C726.323 79.6597 727.455 82.0409 727.115 84.4599C726.927 85.7072 725.343 87.4837 724.137 87.6727C723.194 87.8617 721.875 86.0474 720.442 84.8379Z" fill="#BDBDBD"/>
<path d="M844.637 22.4733C843.769 26.0641 842.751 29.6926 838.001 28.8611C836.832 28.6721 834.909 26.2908 835.173 25.5727C836.681 21.226 840.904 22.7001 844.146 21.9442C844.109 21.9064 844.637 22.4733 844.637 22.4733Z" fill="#BDBDBD"/>
<path d="M222.042 15.7071C222.532 13.1747 223.738 11.7385 225.586 12.759C226.755 13.4015 227.66 15.367 227.81 16.8033C227.961 18.5041 226.943 20.4696 224.719 19.1467C223.399 18.4286 222.72 16.6899 222.042 15.7071Z" fill="#BDBDBD"/>
<path d="M743.893 32.9048C745.439 32.2245 747.136 31.1284 747.362 31.3929C748.418 32.6402 749.737 34.1899 749.775 35.664C749.85 37.705 748.041 38.9901 746.231 37.4783C745.024 36.4577 744.685 34.4923 743.893 32.9048Z" fill="#BDBDBD"/>
<path d="M363.241 194.525C366.031 191.388 369.16 190.027 372.742 193.165C373.232 193.58 372.968 195.924 372.365 196.377C369.273 198.607 366.672 195.886 363.882 195.13L363.241 194.525Z" fill="#BDBDBD"/>
<path d="M964.194 55.7341C964.91 52.2945 964.948 48.3258 969.548 47.4943C970.075 47.3809 971.433 48.8928 971.508 49.7243C971.961 54.5246 968.53 55.6585 964.797 56.3388L964.194 55.7341Z" fill="#BDBDBD"/>
<path d="M401.434 74.3682C405.77 75.4265 411.086 72.8564 415.648 79.2819C409.352 79.5465 404.714 79.1307 400.831 75.0108L401.434 74.3682Z" fill="#BDBDBD"/>
<path d="M329.911 175.892C333.267 176.384 337.225 174.947 339.488 178.689C339.752 179.105 338.734 180.995 338.168 181.071C334.209 181.524 329.458 182.847 329.685 176.081L329.911 175.892Z" fill="#BDBDBD"/>
<path d="M446.678 89.752C447.507 92.549 448.676 94.3633 448.186 95.3838C447.621 96.5933 445.622 97.1602 444.265 97.9918C443.813 96.8957 442.795 95.6106 443.096 94.779C443.511 93.3805 444.831 92.2088 446.678 89.752Z" fill="#BDBDBD"/>
<path d="M780.541 22.2083C780.013 25.043 779.862 28.5204 775.677 27.8022C774.735 27.651 773.302 24.7784 773.641 23.5311C774.81 18.8064 778.015 21.7169 780.541 22.2083Z" fill="#BDBDBD"/>
<path d="M676.555 30.6368C677.008 29.5785 677.272 27.9532 678.026 27.6508C678.817 27.3485 680.099 28.369 681.155 28.8225C680.703 29.8809 680.476 31.544 679.722 31.8085C678.893 32.1109 677.649 31.0904 676.555 30.6368Z" fill="#BDBDBD"/>
<path d="M1039.15 332.94C1039.79 327.95 1042.39 324.36 1046.84 322.054L1047.78 322.848C1046.99 327.875 1044.46 331.617 1039.83 333.847L1039.15 332.94Z" fill="#BDBDBD"/>
<path d="M1065.54 310.638C1066.37 308.03 1066.6 304.855 1070.59 305.309C1071.04 305.347 1071.72 306.027 1071.76 306.481C1072.25 310.449 1069.08 310.752 1066.48 311.583L1065.54 310.638Z" fill="#BDBDBD"/>
<path d="M916.273 97.727C915.406 100.335 915.104 103.548 911.107 103.018C910.655 102.943 909.976 102.3 909.939 101.847C909.449 97.8782 912.578 97.5003 915.217 96.6309L916.273 97.727Z" fill="#BDBDBD"/>
<path d="M725.23 43.2233C724.212 42.7698 722.629 42.543 722.327 41.8249C722.025 41.1067 723.043 39.8594 723.496 38.8389C724.514 39.2924 726.097 39.5192 726.361 40.2373C726.663 40.9555 725.683 42.2028 725.23 43.2233Z" fill="#BDBDBD"/>
<path d="M735.749 44.055C735.108 42.2407 734.128 40.9178 734.467 40.2753C735.221 38.8012 736.617 37.705 737.785 36.4199C738.162 37.516 739.067 38.8012 738.766 39.6705C738.275 41.1824 736.994 42.3541 735.749 44.055Z" fill="#BDBDBD"/>
<path d="M1009.78 224.914C1007.7 229.79 1004.88 233.645 997.184 234.401C999.107 227.673 1003.44 225.179 1007.74 222.609C1008.38 223.44 1009.02 224.196 1009.78 224.914Z" fill="#BDBDBD"/>
<path d="M504.59 19.903C503.346 18.1265 502.14 16.8036 501.536 15.2161C501.272 14.498 502.253 13.2885 502.667 12.3057C503.799 13.5153 505.231 14.6113 505.872 16.0477C506.249 16.8036 505.231 18.1643 504.59 19.903Z" fill="#BDBDBD"/>
<path d="M867.447 138.963C866.693 143.424 864.318 146.069 859.605 146.334L859.039 145.767C859.379 141.156 861.905 138.585 866.391 137.867L867.447 138.963Z" fill="#BDBDBD"/>
<path d="M941.119 238.295C938.254 240.903 935.426 243.548 932.561 246.156C932.07 245.098 931.392 244.153 930.562 243.322C931.43 239.277 934.37 237.161 937.839 235.535C938.932 236.48 940.026 237.387 941.119 238.295Z" fill="#BDBDBD"/>
<path d="M732.846 77.8462C733.902 77.8462 734.92 77.695 735.862 77.9218C736.24 77.9974 736.767 79.2447 736.654 79.3203C735.938 79.925 735.108 80.3786 734.279 80.9078C733.826 79.9251 733.374 78.9801 732.846 77.8462Z" fill="#BDBDBD"/>
<path d="M769.494 65.1464C770.097 64.2771 770.7 63.4455 771.266 62.5762C771.718 63.5211 772.623 64.4661 772.548 65.3732C772.51 66.2804 771.53 67.1119 770.964 67.9812C770.474 67.0363 769.984 66.1291 769.494 65.1464Z" fill="#BDBDBD"/>
<path d="M954.579 218.717C957.03 216.071 959.066 212.253 963.704 215.201C961.63 217.28 959.594 219.397 957.52 221.476C956.502 220.569 955.522 219.624 954.579 218.717Z" fill="#BDBDBD"/>
<path d="M743.177 76.4476C743.78 75.5405 744.383 74.6711 744.949 73.8018C745.439 74.7467 746.344 75.6917 746.306 76.5988C746.269 77.5059 745.288 78.3752 744.723 79.2446C744.233 78.3375 743.705 77.4303 743.177 76.4476Z" fill="#BDBDBD"/>
<path d="M314.98 166.555C315.621 165.61 316.187 164.741 316.753 163.872C317.243 164.817 318.148 165.799 318.11 166.744C318.072 167.651 317.054 168.521 316.489 169.39C315.998 168.445 315.471 167.5 314.98 166.555Z" fill="#BDBDBD"/>
<path d="M792.003 143.954C792.606 143.084 793.209 142.215 793.812 141.384C794.303 142.328 795.17 143.273 795.132 144.181C795.094 145.088 794.114 145.919 793.511 146.788C793.021 145.844 792.531 144.936 792.003 143.954Z" fill="#BDBDBD"/>
<path d="M299.937 155.254C300.578 154.309 301.143 153.402 301.747 152.495C302.274 153.44 303.179 154.422 303.179 155.367C303.142 156.275 302.124 157.182 301.558 158.089C300.993 157.144 300.465 156.199 299.937 155.254Z" fill="#BDBDBD"/>
<path d="M330.062 127.134C330.967 128.495 331.872 129.855 332.701 131.254C332.739 131.329 331.872 131.934 331.419 132.312C330.665 130.8 329.911 129.288 329.119 127.776C329.157 127.814 330.062 127.134 330.062 127.134Z" fill="#BDBDBD"/>
<path d="M937.839 235.573C939.724 232.663 941.836 227.862 945.568 231.718C947.906 234.137 943.042 236.253 941.082 238.294C940.026 237.387 938.932 236.48 937.839 235.573Z" fill="#BDBDBD"/>
<path d="M1039.86 333.884C1037.49 335.244 1035.11 336.567 1032.74 337.928L1032.02 337.021C1034.4 335.66 1036.77 334.299 1039.15 332.939L1039.86 333.884Z" fill="#BDBDBD"/>
<path d="M987.645 247.783C986.891 250.428 984.742 252.545 982.593 250.806C978.634 247.556 983.799 246.46 984.931 244.343C985.835 245.515 986.74 246.649 987.645 247.783Z" fill="#BDBDBD"/>
<path d="M800.26 10.3021C800.75 10.1887 801.504 9.81076 801.617 9.96195C801.956 10.3399 801.994 10.9824 802.145 11.5116C801.655 11.625 800.901 12.0029 800.788 11.8517C800.448 11.4738 800.411 10.8312 800.26 10.3021Z" fill="#BDBDBD"/>
<path d="M957.483 221.476C955.56 224.424 953.411 229.262 949.678 225.142C947.491 222.723 952.543 220.72 954.542 218.717C955.522 219.624 956.502 220.569 957.483 221.476Z" fill="#BDBDBD"/>
<path d="M329.685 176.08C328.78 174.757 327.875 173.472 327.083 172.112C327.083 172.074 327.913 171.507 328.365 171.204C328.893 172.754 329.383 174.304 329.911 175.853C329.911 175.891 329.685 176.08 329.685 176.08Z" fill="#BDBDBD"/>
<path d="M251.187 33.2832C252.054 34.6439 252.921 35.9668 253.713 37.3275C253.75 37.4031 252.921 37.9701 252.468 38.348C251.827 36.8361 251.187 35.3242 250.546 33.8124C250.546 33.8502 251.187 33.2832 251.187 33.2832Z" fill="#BDBDBD"/>
<path d="M984.968 244.381C986.929 242.378 989.116 237.615 991.529 240.034C995.299 243.738 990.548 245.893 987.645 247.82C986.74 246.649 985.835 245.515 984.968 244.381Z" fill="#BDBDBD"/>
<path d="M393.969 63.2939C395.251 65.7885 396.533 68.2453 397.815 70.7399L397.211 71.3446C395.854 68.8878 394.497 66.431 393.102 64.012C393.064 63.9742 393.969 63.2939 393.969 63.2939Z" fill="#BDBDBD"/>
<path d="M964.797 56.3391C963.59 57.5486 962.384 58.7581 961.177 59.9677L960.574 59.3629C961.781 58.1534 962.987 56.9439 964.194 55.7344L964.797 56.3391Z" fill="#BDBDBD"/>
<path d="M400.831 74.9735C399.624 73.7639 398.38 72.5544 397.174 71.3449C397.174 71.3449 397.815 70.7402 397.777 70.7402C398.983 71.9497 400.19 73.1592 401.396 74.3687C401.434 74.3687 400.831 74.9735 400.831 74.9735Z" fill="#BDBDBD"/>
<path d="M258.162 123.693C256.917 122.484 255.711 121.274 254.467 120.065L255.032 119.498C256.239 120.707 257.445 121.955 258.689 123.164C258.652 123.164 258.162 123.693 258.162 123.693Z" fill="#BDBDBD"/>
<path d="M412.67 21.8682C413.16 22.2461 413.612 22.6241 414.102 23.0021C413.424 22.8131 412.783 22.6242 412.142 22.4352C412.142 22.3974 412.67 21.8682 412.67 21.8682Z" fill="#BDBDBD"/>
<path d="M885.922 123.845C884.715 125.054 883.509 126.264 882.34 127.473L881.699 126.831C882.905 125.621 884.112 124.412 885.318 123.202C885.318 123.24 885.922 123.845 885.922 123.845Z" fill="#BDBDBD"/>
<path d="M859.605 146.372C858.398 147.581 857.192 148.791 855.985 150L855.42 149.471C856.626 148.262 857.833 147.014 859.039 145.805C859.039 145.767 859.605 146.372 859.605 146.372Z" fill="#BDBDBD"/>
<path d="M409.05 18.2021C410.257 19.4116 411.463 20.6211 412.67 21.8684L412.104 22.4354C410.86 21.2259 409.653 20.0163 408.409 18.8068C408.447 18.8068 409.05 18.2021 409.05 18.2021Z" fill="#BDBDBD"/>
<path d="M363.844 195.13C363.467 195.584 363.09 196.037 362.713 196.491C362.449 196.226 362.147 195.924 361.883 195.659C362.336 195.281 362.788 194.903 363.241 194.525L363.844 195.13Z" fill="#BDBDBD"/>
<path d="M1007.74 222.609C1009.21 222.571 1010.68 222.495 1012.15 222.457C1011.36 223.289 1010.57 224.083 1009.78 224.914C1009.02 224.196 1008.38 223.44 1007.74 222.609Z" fill="#BDBDBD"/>
<path d="M932.561 246.156C931.09 246.118 929.582 246.119 928.112 246.081C928.941 245.174 929.733 244.266 930.562 243.359C931.392 244.191 932.07 245.136 932.561 246.156Z" fill="#BDBDBD"/>
</g>
</g>
<defs>
<clipPath id="clip0_1_1388">
<rect width="1123" height="333" fill="white" transform="translate(0 0.189453)"/>
</clipPath>
</defs>
</svg>
