<svg width="81" height="21" viewBox="0 0 81 21" fill="none" xmlns="http://www.w3.org/2000/svg">
<path d="M21.6701 7.41504H29.7568V8.91516H26.5771V17.3481H24.8286V8.91516H21.6631V7.41504H21.6701ZM29.4113 10.1559H30.9059V11.5439H30.9341C30.9835 11.3476 31.0751 11.1583 31.2091 10.9761C31.343 10.7938 31.5052 10.6186 31.6956 10.4714C31.8859 10.3171 32.0974 10.198 32.3301 10.0998C32.5627 10.0087 32.8024 9.95964 33.0422 9.95964C33.2255 9.95964 33.3594 9.96665 33.4299 9.97366C33.5004 9.98067 33.5709 9.99469 33.6485 10.0017V11.5299C33.5357 11.5088 33.4229 11.4948 33.303 11.4808C33.1832 11.4668 33.0704 11.4598 32.9575 11.4598C32.6896 11.4598 32.4358 11.5158 32.1961 11.621C31.9564 11.7261 31.752 11.8874 31.5757 12.0906C31.3995 12.3009 31.2584 12.5533 31.1527 12.8617C31.0469 13.1702 30.9976 13.5207 30.9976 13.9202V17.3411H29.4042V10.1559L29.4113 10.1559ZM40.9736 17.3481H39.4085V16.3457H39.3803C39.1829 16.7102 38.8938 16.9976 38.5061 17.2149C38.1183 17.4322 37.7235 17.5444 37.3216 17.5444C36.3699 17.5444 35.6789 17.313 35.2559 16.8434C34.8329 16.3737 34.6214 15.6657 34.6214 14.7194V10.1559H36.2148V14.5651C36.2148 15.196 36.3346 15.6447 36.5814 15.904C36.8211 16.1634 37.1665 16.2966 37.6036 16.2966C37.9421 16.2966 38.217 16.2475 38.4426 16.1424C38.6682 16.0372 38.8515 15.904 38.9855 15.7288C39.1265 15.5606 39.2252 15.3503 39.2886 15.1119C39.3521 14.8736 39.3803 14.6142 39.3803 14.3338V10.1629H40.9736V17.3481ZM43.688 15.0418C43.7373 15.5045 43.9136 15.8269 44.2168 16.0162C44.527 16.1985 44.8936 16.2966 45.3236 16.2966C45.4717 16.2966 45.6409 16.2826 45.8313 16.2615C46.0216 16.2405 46.2049 16.1914 46.3671 16.1284C46.5363 16.0653 46.6702 15.9671 46.783 15.8409C46.8888 15.7148 46.9381 15.5535 46.9311 15.3503C46.924 15.147 46.8465 14.9787 46.7055 14.8526C46.5645 14.7194 46.3882 14.6212 46.1697 14.5371C45.9511 14.46 45.7043 14.3899 45.4223 14.3338C45.1403 14.2777 44.8583 14.2147 44.5693 14.1516C44.2732 14.0885 43.9841 14.0044 43.7091 13.9132C43.4342 13.8221 43.1874 13.6959 42.9689 13.5347C42.7503 13.3805 42.574 13.1772 42.4471 12.9318C42.3132 12.6865 42.2497 12.3851 42.2497 12.0205C42.2497 11.628 42.3484 11.3055 42.5388 11.0392C42.7292 10.7728 42.9759 10.5625 43.265 10.4013C43.5611 10.24 43.8854 10.1279 44.245 10.0578C44.6045 9.99469 44.95 9.95964 45.2743 9.95964C45.6479 9.95964 46.0075 10.0017 46.3459 10.0788C46.6843 10.1559 46.9945 10.2821 47.2695 10.4643C47.5445 10.6396 47.7701 10.8709 47.9534 11.1513C48.1367 11.4317 48.2495 11.7752 48.2988 12.1748H46.635C46.5574 11.7962 46.3882 11.5369 46.1133 11.4107C45.8383 11.2775 45.521 11.2144 45.1685 11.2144C45.0557 11.2144 44.9218 11.2214 44.7667 11.2424C44.6116 11.2635 44.4706 11.2985 44.3296 11.3476C44.1956 11.3967 44.0828 11.4738 43.9841 11.5719C43.8924 11.6701 43.8431 11.7962 43.8431 11.9575C43.8431 12.1537 43.9136 12.308 44.0475 12.4271C44.1815 12.5463 44.3578 12.6444 44.5763 12.7286C44.7949 12.8057 45.0416 12.8758 45.3236 12.9318C45.6056 12.9879 45.8947 13.051 46.1908 13.1141C46.4799 13.1772 46.7619 13.2613 47.0439 13.3524C47.3259 13.4436 47.5727 13.5697 47.7912 13.731C48.0098 13.8922 48.186 14.0885 48.32 14.3268C48.4539 14.5651 48.5244 14.8666 48.5244 15.2171C48.5244 15.6447 48.4257 16.0022 48.2283 16.3036C48.0309 16.598 47.7771 16.8434 47.4669 17.0256C47.1567 17.2079 46.8042 17.3481 46.4235 17.4322C46.0428 17.5163 45.662 17.5584 45.2884 17.5584C44.8301 17.5584 44.4071 17.5093 44.0193 17.4042C43.6316 17.299 43.2932 17.1448 43.0112 16.9415C42.7292 16.7312 42.5035 16.4718 42.3414 16.1634C42.1792 15.855 42.0946 15.4834 42.0805 15.0558H43.688V15.0418ZM48.9474 10.1559H50.153V7.99686H51.7464V10.1559H53.1846V11.3406H51.7464V15.182C51.7464 15.3503 51.7534 15.4905 51.7675 15.6166C51.7816 15.7358 51.8169 15.8409 51.8662 15.9251C51.9156 16.0092 51.9931 16.0723 52.0989 16.1143C52.2046 16.1564 52.3386 16.1774 52.5219 16.1774C52.6347 16.1774 52.7475 16.1774 52.8603 16.1704C52.9731 16.1634 53.0859 16.1494 53.1987 16.1213V17.3481C53.0225 17.3691 52.8462 17.3831 52.6841 17.4042C52.5149 17.4252 52.3457 17.4322 52.1694 17.4322C51.7464 17.4322 51.408 17.3901 51.1542 17.313C50.9004 17.2359 50.6959 17.1168 50.5549 16.9625C50.4068 16.8083 50.3152 16.619 50.2588 16.3877C50.2094 16.1564 50.1742 15.89 50.1671 15.5956V11.3546H48.9615V10.1559H48.9474ZM54.3127 10.1559H55.8214V11.1303H55.8496C56.0752 10.7097 56.3854 10.4153 56.7873 10.233C57.1892 10.0508 57.6192 9.95964 58.0916 9.95964C58.6626 9.95964 59.1562 10.0578 59.5792 10.2611C60.0022 10.4573 60.3547 10.7307 60.6367 11.0812C60.9187 11.4317 61.1232 11.8383 61.2642 12.3009C61.4052 12.7636 61.4757 13.2613 61.4757 13.787C61.4757 14.2707 61.4122 14.7404 61.2853 15.189C61.1584 15.6447 60.9681 16.0442 60.7143 16.3947C60.4605 16.7452 60.1361 17.0186 59.7413 17.2289C59.3465 17.4392 58.8883 17.5444 58.3524 17.5444C58.1198 17.5444 57.8871 17.5233 57.6545 17.4813C57.4218 17.4392 57.1962 17.3691 56.9847 17.278C56.7732 17.1869 56.5687 17.0677 56.3925 16.9205C56.2092 16.7733 56.0611 16.605 55.9342 16.4158H55.906V20.0048H54.3127V10.1559ZM59.8823 13.759C59.8823 13.4366 59.84 13.1211 59.7554 12.8127C59.6708 12.5042 59.5439 12.2379 59.3747 11.9995C59.2055 11.7612 58.994 11.5719 58.7473 11.4317C58.4934 11.2915 58.2044 11.2144 57.8801 11.2144C57.2103 11.2144 56.7027 11.4457 56.3643 11.9084C56.0259 12.371 55.8567 12.9879 55.8567 13.759C55.8567 14.1235 55.899 14.46 55.9906 14.7684C56.0823 15.0769 56.2092 15.3432 56.3925 15.5676C56.5687 15.7919 56.7802 15.9671 57.027 16.0933C57.2738 16.2265 57.5628 16.2896 57.8871 16.2896C58.2537 16.2896 58.5569 16.2125 58.8107 16.0653C59.0645 15.9181 59.269 15.7218 59.4311 15.4905C59.5933 15.2521 59.7131 14.9857 59.7836 14.6843C59.8471 14.3829 59.8823 14.0745 59.8823 13.759ZM62.6954 7.41504H64.2887V8.91516H62.6954V7.41504ZM62.6954 10.1559H64.2887V17.3481H62.6954V10.1559ZM65.7129 7.41504H67.3062V17.3481H65.7129V7.41504ZM72.192 17.5444C71.6139 17.5444 71.0992 17.4462 70.648 17.257C70.1968 17.0677 69.8161 16.8013 69.4988 16.4718C69.1886 16.1354 68.9489 15.7358 68.7868 15.2731C68.6246 14.8105 68.54 14.2988 68.54 13.745C68.54 13.1982 68.6246 12.6935 68.7868 12.2308C68.9489 11.7682 69.1886 11.3686 69.4988 11.0322C69.809 10.6957 70.1968 10.4363 70.648 10.247C71.0992 10.0578 71.6139 9.95964 72.192 9.95964C72.7701 9.95964 73.2848 10.0578 73.736 10.247C74.1872 10.4363 74.5679 10.7027 74.8852 11.0322C75.1954 11.3686 75.4351 11.7682 75.5973 12.2308C75.7594 12.6935 75.844 13.1982 75.844 13.745C75.844 14.2988 75.7594 14.8105 75.5973 15.2731C75.4351 15.7358 75.1954 16.1354 74.8852 16.4718C74.575 16.8083 74.1872 17.0677 73.736 17.257C73.2848 17.4462 72.7701 17.5444 72.192 17.5444ZM72.192 16.2896C72.5445 16.2896 72.8547 16.2125 73.1156 16.0653C73.3765 15.9181 73.588 15.7218 73.7572 15.4834C73.9264 15.2451 74.0462 14.9717 74.1308 14.6703C74.2084 14.3689 74.2507 14.0604 74.2507 13.745C74.2507 13.4366 74.2084 13.1351 74.1308 12.8267C74.0533 12.5183 73.9264 12.2519 73.7572 12.0135C73.588 11.7752 73.3765 11.5859 73.1156 11.4387C72.8547 11.2915 72.5445 11.2144 72.192 11.2144C71.8395 11.2144 71.5293 11.2915 71.2684 11.4387C71.0076 11.5859 70.7961 11.7822 70.6269 12.0135C70.4577 12.2519 70.3378 12.5183 70.2532 12.8267C70.1757 13.1351 70.1334 13.4366 70.1334 13.745C70.1334 14.0604 70.1757 14.3689 70.2532 14.6703C70.3308 14.9717 70.4577 15.2451 70.6269 15.4834C70.7961 15.7218 71.0076 15.9181 71.2684 16.0653C71.5293 16.2195 71.8395 16.2896 72.192 16.2896ZM76.3093 10.1559H77.5149V7.99686H79.1083V10.1559H80.5465V11.3406H79.1083V15.182C79.1083 15.3503 79.1153 15.4905 79.1294 15.6166C79.1435 15.7358 79.1788 15.8409 79.2281 15.9251C79.2775 16.0092 79.355 16.0723 79.4608 16.1143C79.5665 16.1564 79.7005 16.1774 79.8838 16.1774C79.9966 16.1774 80.1094 16.1774 80.2222 16.1704C80.335 16.1634 80.4478 16.1494 80.5606 16.1213V17.3481C80.3844 17.3691 80.2081 17.3831 80.046 17.4042C79.8768 17.4252 79.7076 17.4322 79.5313 17.4322C79.1083 17.4322 78.7699 17.3901 78.5161 17.313C78.2623 17.2359 78.0578 17.1168 77.9168 16.9625C77.7687 16.8083 77.6771 16.619 77.6207 16.3877C77.5713 16.1564 77.5361 15.89 77.529 15.5956V11.3546H76.3235V10.1559L76.3093 10.1559Z" fill="#191919"/>
<path d="M19.8089 7.4147H12.5049L10.2488 0.50293L7.98567 7.4147L0.681644 7.40769L6.59678 11.6837L4.33366 18.5885L10.2488 14.3195L16.1569 18.5885L13.9008 11.6837L19.8089 7.4147Z" fill="#00B67A"/>
<path d="M14.4084 13.247L13.9008 11.6836L10.2488 14.3196L14.4084 13.247Z" fill="#005128"/>
</svg>
