<svg xmlns="http://www.w3.org/2000/svg" viewBox="0 0 120 75.03"><defs><style>.cls-1{fill:#1c75bc;}</style></defs><g id="Layer_2" data-name="Layer 2"><g id="Layer_1-2" data-name="Layer 1"><path class="cls-1" d="M120,68.19c-2.45,4.19-6.6,5.55-11,6.54a29.81,29.81,0,0,1-6.54.24q-22,0-44,0a5.27,5.27,0,0,1-1.63-.14,2.42,2.42,0,0,1-1.76-2.58,2.36,2.36,0,0,1,2.07-2.19A9.52,9.52,0,0,1,58.54,70c6.75,0,13.51,0,20.26,0,.9,0,1.28-.2,1.2-1.16a19.11,19.11,0,0,1,0-2.93c0-.81-.28-1-1-1-4.06,0-8.12,0-12.18,0a15.56,15.56,0,0,1-10.41-4.48c-4-3.62-6.55-8.2-9.06-12.85a2.86,2.86,0,0,1-.27-.52c-1.09-3.4-3.79-4.93-6.88-6.12a119.65,119.65,0,0,0-20.87-5.57,1.12,1.12,0,0,0-1.28.5,9.06,9.06,0,0,1-3,2.72,1.84,1.84,0,0,0-.71.9C13.67,40.74,13,42,12.42,43.26A2.9,2.9,0,0,1,9.63,45C5.48,45,4.94,44.57,5,40.4a2.86,2.86,0,0,0-1.26-2.72C1.53,36.11.58,33.72,0,31.15V28.81a11.57,11.57,0,0,1,2.38-5.23.67.67,0,0,0,.1-.76C1.62,20.45,1,18,0,15.69V14.28a4.37,4.37,0,0,1,2.45-2c1.2-.46,2.36-1,3.55-1.51,2-.85,3.11-.47,4.1,1.49,1.33,2.64,2.66,5.29,4,8a3,3,0,0,0,1.22,1.35,8,8,0,0,1,2.79,2.62,1.76,1.76,0,0,0,1.74.84q17.81,0,35.6,0a2.19,2.19,0,0,0,1.75-.71c2.65-2.7,5.36-5.35,8-8A4,4,0,0,1,68.3,15q3.11.07,6.21,0a2.94,2.94,0,0,1,3,1.84c1.21,2.49,2.48,5,3.69,7.44a1.34,1.34,0,0,0,1.23.85c14.37,1.34,25.6,8.23,34.28,19.56A19.85,19.85,0,0,1,120,51.55v2.34c-1.11,4.8-4.29,7.7-8.69,9.48a21.48,21.48,0,0,1-5.42,1.38c-.44,0-.93,0-.9.75.05,1.29,0,2.58,0,3.86,0,.44.14.65.6.64,3.71-.14,7.19-.88,9.79-3.84,1.44-1.64,3.25-1.5,4.38.37a1.37,1.37,0,0,0,.23.25ZM114.26,55H95.63c-5.23,0-9.29-2.13-11.78-6.84-1.12-2.11-1.55-4.49-2.28-6.74-2-6.1-3.36-12.39-6.37-18.18-1.31-2.54-2.65-3.8-5.51-3.31a3.11,3.11,0,0,0-1.94.81c-2.57,2.63-5.21,5.18-7.76,7.82A4.52,4.52,0,0,1,56.45,30Q38.89,30,21.3,30a1.82,1.82,0,0,0-1.48.33c2.19.46,4.2.86,6.19,1.31A93.17,93.17,0,0,1,44,37.2a13.1,13.1,0,0,1,7.15,6.68A49.47,49.47,0,0,0,57,53.72c3.12,4.07,6.94,6.43,12.35,6.33,10.74-.22,21.48-.07,32.23-.06a22.33,22.33,0,0,0,5.35-.52C109.72,58.8,112.31,57.71,114.26,55Zm-.34-5C110.24,41.2,92.61,29.87,83.5,30.31c.07.3.13.59.21.88q2,6.5,3.92,13C88.81,48,91.36,49.93,95.42,50c3.08,0,6.17,0,9.25,0ZM10,35a5,5,0,1,0-5-5A5,5,0,0,0,10,35ZM92.46,65c-2.19,0-4.37,0-6.56,0-.64,0-.92.17-.89.85,0,1.09,0,2.19,0,3.28,0,.73.24.93.94.92q6.55,0,13.11,0c.69,0,1-.17,1-.91a30.28,30.28,0,0,1,0-3.16c0-.79-.27-1-1-1C96.83,65,94.64,65,92.46,65ZM8.32,19.83c-.61-1.19-1.22-2.39-1.87-3.58-.1-.2-.35-.1-.52,0s-.27.33-.19.58c.37,1.06.72,2.13,1.07,3.2.15.48.51.45.83.28S8.3,20.33,8.32,19.83Z"/><path class="cls-1" d="M120,8A2.92,2.92,0,0,1,116.74,10h-88a7.35,7.35,0,0,1-1.87-.15,2.44,2.44,0,0,1,0-4.72A6.83,6.83,0,0,1,28.71,5C42,5,55.27,5,68.55,5c1.13,0,1.72-.2,1.48-1.45a4.92,4.92,0,0,1,0-.94A2.53,2.53,0,0,1,72.5,0,2.57,2.57,0,0,1,75,2.59c.06.76-.37,1.83.21,2.22S76.79,5,77.6,5h39c1.59,0,2.83.42,3.38,2.05Z"/></g></g></svg>