<?xml version="1.0" encoding="UTF-8"?>
<!-- Generator: Adobe Illustrator 14.0.0, SVG Export Plug-In . SVG Version: 6.00 Build 43363)  -->
<!DOCTYPE svg PUBLIC "-//W3C//DTD SVG 1.1//EN" "http://www.w3.org/Graphics/SVG/1.1/DTD/svg11.dtd">
<svg version="1.1" id="Layer_1" xmlns="http://www.w3.org/2000/svg" xmlns:xlink="http://www.w3.org/1999/xlink" x="0px" y="0px" width="120px" height="120px" viewBox="0 0 120 120" enable-background="new 0 0 120 120" xml:space="preserve">
<g>
	<g>
		<path fill="#1D75BC" d="M40.989,58.991v3.851c0,2.124-1.727,3.852-3.851,3.852h-5.776c-2.124,0-3.851-1.728-3.851-3.852V33.959    c0-2.124,1.727-3.851,3.851-3.851h5.776c1.581,0,3,0.968,3.578,2.428l0.296,1.747l3.797-0.646l-0.328-1.925    c-0.019-0.11-0.046-0.216-0.083-0.319c-1.084-3.073-4.003-5.136-7.261-5.136h-0.002H31.36c-4.248,0-7.702,3.455-7.702,7.702    v28.883c0,4.248,3.455,7.702,7.702,7.702h5.776c4.248,0,7.702-3.454,7.704-7.702v-3.851H40.989z"/>
	</g>
</g>
<g>
	<g>
		<path fill="#1D75BC" d="M34.249,8.927c-5.84,0-10.591,4.75-10.591,10.591c0,5.84,4.75,10.59,10.591,10.59    c5.84,0,10.59-4.75,10.59-10.59C44.838,13.677,40.089,8.927,34.249,8.927z M34.249,26.257c-3.716,0-6.74-3.023-6.74-6.739    c0-3.717,3.023-6.74,6.74-6.74c3.716,0,6.739,3.023,6.739,6.74C40.988,23.234,37.965,26.257,34.249,26.257z"/>
	</g>
</g>
<g>
	<g>
		<path fill="#1D75BC" d="M25.583,43.586h-4.236c-2.973,0-5.391,2.418-5.391,5.392v8.472c0,2.973,2.418,5.392,5.391,5.392h4.236    c1.063,0,1.926-0.86,1.926-1.926V45.512C27.509,44.449,26.646,43.586,25.583,43.586z M23.658,58.991h-2.311    c-0.849,0-1.541-0.691-1.541-1.541v-8.472c0-0.849,0.691-1.541,1.541-1.541h2.311V58.991z"/>
	</g>
</g>
<g>
	<g>
		<path fill="#1D75BC" d="M58.317,26.257h-7.702v3.851h7.702c3.176,0,5.768,2.592,5.768,5.776v32.734H44.839V55.139h-3.851v15.405    c0,1.064,0.863,1.926,1.925,1.926h23.098c1.064,0,1.925-0.861,1.925-1.926v-34.66C67.936,30.576,63.617,26.257,58.317,26.257z"/>
	</g>
</g>
<g>
	<g>
		<path fill="#1D75BC" d="M65.695,10.346l-3.717,1.013c0.125,0.458,0.187,0.93,0.184,1.419v7.702c0,3.185-2.583,5.777-5.768,5.777    c-3.185,0-5.777-2.592-5.777-5.777v-7.719c-0.003-0.476,0.058-0.946,0.181-1.4l-3.714-1.019c-0.22,0.797-0.327,1.623-0.32,2.436    v7.702c0,5.309,4.319,9.628,9.628,9.628c5.299,0,9.619-4.319,9.621-9.628v-7.685C66.021,11.969,65.912,11.145,65.695,10.346z"/>
	</g>
</g>
<g>
	<g>
		<path fill="#1D75BC" d="M67.936,3.15H54.466c-4.248,0-7.702,3.455-7.702,7.702v7.702c0,0.778,0.47,1.481,1.188,1.779    c0.239,0.098,0.489,0.146,0.737,0.146c0.501,0,0.994-0.196,1.362-0.564l7.137-7.138h4.971c4.248,0,7.702-3.455,7.702-7.702    C69.862,4.013,69.001,3.15,67.936,3.15z M62.159,8.927h-5.768c-0.51,0-1,0.202-1.361,0.564l-4.415,4.415v-3.054    c0-2.124,1.727-3.852,3.851-3.852h11.027C64.828,8.151,63.583,8.927,62.159,8.927z"/>
	</g>
</g>
<g>
	<g>
		<path fill="#1D75BC" d="M85.062,104.341L67.732,69.682l-3.445,1.723l16.47,32.937l-4.343,2.17L61.047,79.265    c-0.948-1.795-2.811-2.923-4.867-2.944c-3.069,0-5.565,2.496-5.565,5.564v8.538c-0.013,2.326-1.407,4.405-3.556,5.303    l-16.708,7.005l-2.145-4.288l15.489-6.884c0.695-0.31,1.144-0.997,1.144-1.76V70.544h-3.851V88.55l-16.186,7.191    c-0.479,0.214-0.853,0.614-1.03,1.108c-0.177,0.495-0.144,1.043,0.091,1.512l3.851,7.702c0.452,0.907,1.527,1.304,2.466,0.915    l18.366-7.7c3.576-1.492,5.9-4.958,5.921-8.845v-8.549c0-0.945,0.769-1.714,1.695-1.714c0.629,0.006,1.201,0.353,1.519,0.946    l16.281,28.882c0.354,0.624,1.004,0.98,1.68,0.98c0.291,0,0.583-0.065,0.858-0.204l7.702-3.852    C85.152,106.449,85.537,105.292,85.062,104.341z"/>
	</g>
</g>
<g>
	<g>
		<path fill="#1D75BC" d="M34.139,110.331l-6.835-13.69c-0.228-0.456-0.628-0.805-1.113-0.967c-0.485-0.166-1.015-0.125-1.471,0.104    l-7.702,3.852c-0.456,0.229-0.803,0.63-0.965,1.113c-0.162,0.484-0.123,1.017,0.106,1.473l6.643,13.263    c0.984,1.976,2.963,3.204,5.169,3.204h1.001c2.207,0,4.19-1.23,5.168-3.208C34.941,113.864,34.941,111.942,34.139,110.331z     M30.696,113.762c-0.328,0.659-0.988,1.069-1.723,1.069h-1.001c-0.734,0-1.394-0.41-1.722-1.069c0-0.002-0.001-0.003-0.001-0.008    l-5.78-11.541l4.255-2.13l5.973,11.965C30.963,112.586,30.963,113.225,30.696,113.762z"/>
	</g>
</g>
<g>
	<g>
		<path fill="#1D75BC" d="M94.688,104.337c-1.54-3.063-5.287-4.315-8.358-2.782l-11.554,5.776c-0.951,0.476-1.336,1.633-0.86,2.584    l3.851,7.702c0.34,0.676,1.02,1.064,1.726,1.064c0.291,0,0.584-0.065,0.859-0.204l11.553-5.776c0,0,0.002-0.002,0.004-0.002    C94.969,111.161,96.219,107.414,94.688,104.337z M90.18,109.257l-9.83,4.915l-2.127-4.257l9.826-4.914    c1.172-0.585,2.608-0.105,3.194,1.06C91.826,107.232,91.349,108.666,90.18,109.257z"/>
	</g>
</g>
<g>
	<g>
		<path fill="#1D75BC" d="M34.249,16.629c-1.593,0-2.889,1.296-2.889,2.889c0,1.592,1.296,2.888,2.889,2.888    c1.592,0,2.888-1.296,2.888-2.888C37.136,17.925,35.84,16.629,34.249,16.629z M34.249,20.48c-0.532,0-0.963-0.431-0.963-0.962    c0-0.532,0.431-0.963,0.963-0.963c0.531,0,0.962,0.431,0.962,0.963C35.211,20.049,34.78,20.48,34.249,20.48z"/>
	</g>
</g>
<g>
	<g>
		<path fill="#1D75BC" d="M93.99,39.079c-0.196-0.26-0.41-0.504-0.639-0.733c-1.262-1.253-2.931-1.941-4.708-1.941    c-0.008,0-0.016,0-0.025,0c-1.783,0.006-3.46,0.707-4.712,1.968l-8.137,8.137l-8.278-9.933l-2.959,2.464l9.627,11.553    c0.349,0.416,0.854,0.666,1.395,0.691c0.537,0.021,1.066-0.179,1.447-0.563l9.634-9.631c0.531-0.536,1.24-0.834,1.999-0.836    c0.001,0,0.006,0,0.01,0c0.751,0,1.461,0.291,1.992,0.82c0.099,0.098,0.192,0.204,0.274,0.314    c0.843,1.128,0.731,2.729-0.264,3.724l-9.522,9.522c-1.524,1.544-3.641,2.43-5.816,2.43c-0.008,0-0.006,0-0.023,0    c-2.752,0-5.299-1.369-6.834-3.68l-0.847-1.251l-3.189,2.16l0.838,1.234c2.235,3.375,5.982,5.388,10.026,5.388    c0.02,0,0.021,0,0.031,0c3.195,0,6.313-1.304,8.547-3.568l9.513-9.512C95.708,45.495,95.976,41.73,93.99,39.079z"/>
	</g>
</g>
<g>
	<g>
		<path fill="#1D75BC" d="M61.863,55.868c-0.36-1.758-1.381-3.272-2.809-4.219l-10.736-7.721l8.689-5.305    c0.023-0.012,0.044-0.027,0.065-0.041c0.12-0.079,0.235-0.162,0.353-0.252c1.419-1.091,2.326-2.671,2.557-4.446    c0.229-1.775-0.245-3.534-1.319-4.93c-2.138-2.867-6.146-3.554-9.069-1.598l-14.182,8.85c-2.543,1.696-4.059,4.537-4.053,7.586    c-0.004,3.06,1.51,5.898,4.011,7.565l16.178,11.448c1.145,0.768,2.445,1.136,3.731,1.136c2.053,0,4.073-0.938,5.375-2.699    c0.083-0.11,0.16-0.218,0.229-0.324C61.874,59.42,62.223,57.625,61.863,55.868z M57.584,58.937    c-0.913,1.225-2.625,1.52-3.853,0.697l-16.18-11.449c-1.468-0.98-2.344-2.617-2.34-4.39c-0.004-1.766,0.871-3.402,2.29-4.352    l14.185-8.852c0.487-0.326,1.04-0.483,1.589-0.483c0.88,0,1.75,0.406,2.322,1.174c0.464,0.603,0.666,1.352,0.567,2.106    c-0.098,0.753-0.483,1.425-1.082,1.885l-11.247,6.88c-0.553,0.337-0.897,0.926-0.922,1.571c-0.023,0.645,0.277,1.26,0.801,1.637    l13.157,9.46c0.639,0.421,1.076,1.069,1.23,1.82C58.254,57.393,58.105,58.157,57.584,58.937z"/>
	</g>
</g>
<g>
	<g>
		
			<rect x="47.446" y="40.145" transform="matrix(-0.4834 0.8754 -0.8754 -0.4834 116.3128 15.5022)" fill="#1D75BC" width="12.273" height="3.851"/>
	</g>
</g>
<g>
	<g>
		
			<rect x="40.529" y="58.992" transform="matrix(-0.4472 0.8944 -0.8944 -0.4472 119.3708 48.0602)" fill="#1D75BC" width="8.61" height="3.851"/>
	</g>
</g>
<g>
	<g>
		<rect x="25.583" y="58.991" fill="#1D75BC" width="17.33" height="3.851"/>
	</g>
</g>
<g>
	<g>
		
			<rect x="92.968" y="32.855" transform="matrix(-0.974 0.2264 -0.2264 -0.974 204.3849 127.2739)" fill="#1D75BC" width="3.849" height="85.01"/>
	</g>
</g>
<g>
	<g>
		<rect x="33.285" y="26.257" fill="#1D75BC" width="21.181" height="3.851"/>
	</g>
</g>
</svg>