<svg width="44" height="44" viewBox="0 0 44 44" fill="none" xmlns="http://www.w3.org/2000/svg">
<g clip-path="url(#clip0_1_1014)">
<path fill-rule="evenodd" clip-rule="evenodd" d="M8.41809 0.562584C8.03209 0.797968 7.96597 1.10153 7.96597 2.6364V4.00507L6.13845 4.03358C4.49579 4.05922 4.26027 4.08107 3.81008 4.24954C2.39714 4.77814 1.29492 6.02148 0.95311 7.4722C0.762293 8.28218 0.762293 30.1833 0.95311 30.9933C1.29475 32.4433 2.39319 33.6829 3.81008 34.2177C4.30993 34.4062 4.32329 34.4067 10.2749 34.4299C14.465 34.4461 16.3051 34.4257 16.4616 34.3607C16.9862 34.1433 17.0941 33.3413 16.6544 32.9279L16.4389 32.7253L10.543 32.6833L4.64704 32.6412L4.20423 32.441C3.62842 32.1806 2.98959 31.4862 2.78458 30.8979C2.63895 30.4798 2.63047 29.9752 2.63047 21.7127V12.9699L18.742 12.9486L34.8535 12.9274V14.3174C34.8535 15.879 34.9278 16.1941 35.3469 16.411C35.6842 16.5855 35.9311 16.5766 36.2564 16.3782C36.7064 16.1036 36.7182 15.973 36.6836 11.6248C36.6536 7.82872 36.6451 7.65202 36.4683 7.12123C36.029 5.80165 34.9896 4.72737 33.686 4.24576C33.2825 4.09663 32.9501 4.06476 31.3665 4.02324L29.518 3.97482L29.476 2.46163C29.4494 1.50479 29.3965 0.883126 29.3322 0.770814C29.0877 0.344349 28.3288 0.307528 27.956 0.704066C27.7594 0.913222 27.7527 0.96467 27.7273 2.46818L27.7011 4.01685H18.7578H9.81446V2.62707C9.81446 1.0658 9.74022 0.750471 9.3211 0.533665C8.98542 0.359985 8.73705 0.367971 8.41809 0.562584ZM7.96597 7.17763C7.96597 8.76194 8.03865 9.04053 8.51027 9.26451C8.85746 9.42922 8.92299 9.42922 9.27018 9.26451C9.7418 9.04053 9.81446 8.76194 9.81446 7.17763V5.78223H18.763H27.7115V7.21555C27.7115 8.84508 27.7735 9.07399 28.2704 9.28171C28.6377 9.43519 29.0541 9.3226 29.3066 9.00136C29.4621 8.80355 29.476 8.66249 29.476 7.27784V5.76987L31.1775 5.79702C32.8418 5.82368 32.8894 5.82939 33.3546 6.05796C33.8769 6.31461 34.3218 6.75613 34.6188 7.31264C34.7988 7.64992 34.8133 7.78846 34.8385 9.41808L34.8656 11.1625H18.727H2.58846V9.77946C2.58846 7.83529 2.7045 7.36947 3.36845 6.64886C4.04283 5.91682 4.4763 5.79501 6.43254 5.78786L7.96597 5.78223V7.17763Z" fill="#535353"/>
<path d="M36.265 27.3914C36.1864 27.4373 34.829 28.9529 33.2488 30.7592L30.3754 34.0435L28.9384 32.6182C28.1481 31.8344 27.4079 31.1311 27.2936 31.0554C27.1794 30.9798 26.9401 30.9178 26.7621 30.9178C26.1122 30.9178 25.7409 31.6262 26.0661 32.2461C26.1315 32.3708 27.0295 33.3102 28.0616 34.3334C30.0929 36.3473 30.2227 36.4358 30.7533 36.1717C30.9266 36.0855 32.2511 34.6334 34.2864 32.2983C37.4327 28.6882 37.5423 28.551 37.5423 28.2186C37.5423 27.5749 36.788 27.0864 36.265 27.3914Z" fill="#2D74FF"/>
<path fill-rule="evenodd" clip-rule="evenodd" d="M30.3163 20.276C25.2163 21.1833 21.3665 25.1477 20.647 30.2332C20.5202 31.1289 20.5894 33.2681 20.7724 34.1123C21.2554 36.3404 22.2755 38.2473 23.8519 39.8683C25.545 41.6094 27.4777 42.6811 29.8781 43.21C31.0945 43.4779 33.2961 43.4758 34.5074 43.2054C36.9053 42.6702 38.7246 41.6818 40.404 40.0018C42.0832 38.3216 43.0711 36.5015 43.606 34.1023C43.8762 32.8903 43.8783 30.6877 43.6105 29.4707C43.3574 28.3207 43.0562 27.4804 42.5381 26.479C41.9178 25.2804 41.2749 24.4191 40.2705 23.4414C38.6654 21.879 36.7839 20.8654 34.5594 20.3645C33.7448 20.1811 31.1534 20.127 30.3163 20.276ZM39.3283 25.0334C37.9281 23.5521 36.2882 22.6071 34.3494 22.1645C33.3885 21.9452 31.6017 21.8888 30.6343 22.0473C27.4463 22.5695 24.6813 24.6541 23.2995 27.5775C22.1902 29.9242 22.0445 32.5123 22.8811 35.006C23.7784 37.6803 25.9903 39.9545 28.7087 40.9978C32.3081 42.3792 36.3901 41.4965 39.1441 38.7413C42.3958 35.4877 42.9756 30.4631 40.5487 26.5673C40.3046 26.1755 39.7555 25.4853 39.3283 25.0334Z" fill="#2D74FF"/>
</g>
<defs>
<clipPath id="clip0_1_1014">
<rect width="43" height="43" fill="white" transform="translate(0.809998 0.409668)"/>
</clipPath>
</defs>
</svg>
