<svg width="44" height="40" viewBox="0 0 44 40" fill="none" xmlns="http://www.w3.org/2000/svg">
<g clip-path="url(#clip0_1_927)">
<path fill-rule="evenodd" clip-rule="evenodd" d="M13.7061 0.486142C11.2699 0.946729 9.68218 2.42638 9.02883 4.84464C8.74482 5.89624 8.75268 9.90328 9.04069 10.8143C9.96522 13.74 12.3522 16.5598 14.5289 17.2979C16.0452 17.8121 17.5914 17.2681 19.2695 15.63C21.034 13.9078 22.1642 11.8117 22.4754 9.68472C22.6328 8.60925 22.5432 6.13056 22.3065 5.00618C22.0729 3.89763 21.4683 2.74826 20.7488 2.04473C19.5674 0.889654 18.285 0.437036 16.0036 0.369623C15.0047 0.340224 14.2849 0.37673 13.7061 0.486142ZM20.5839 5.22156C20.1333 3.52793 19.2908 2.70109 17.5662 2.26021C16.9779 2.10977 16.3948 2.04732 15.6361 2.05324C12.6527 2.07682 11.1677 3.10083 10.6624 5.48335C10.452 6.4755 10.4585 9.34184 10.6731 10.1796C11.0617 11.6967 12.0526 13.2884 13.3987 14.5575C15.1502 16.2091 16.2982 16.1647 18.1123 14.3752C19.4123 13.0928 20.3762 11.4282 20.7024 9.90225C20.9164 8.90141 20.8483 6.21607 20.5839 5.22156Z" fill="#2D74FF"/>
<path fill-rule="evenodd" clip-rule="evenodd" d="M30.3694 10.6953C28.2264 11.4161 26.3718 12.0983 26.2483 12.2111C26.0288 12.4115 26.0235 12.5026 26.0235 16.1264C26.0235 19.0518 25.9951 19.825 25.8888 19.782C23.2349 18.7089 20.1173 17.552 19.8792 17.552C19.6222 17.552 19.4634 17.679 19.0038 18.2523C17.9913 19.5152 16.9874 20.0289 15.532 20.0286C14.7937 20.0286 14.5553 19.9807 14.0082 19.722C13.3325 19.4025 12.4484 18.6118 12.1742 18.0817C11.9933 17.7321 11.714 17.552 11.3529 17.552C10.8969 17.552 4.13344 20.2307 3.58687 20.6277C2.97629 21.0715 2.39114 21.8393 2.15605 22.5057C1.98873 22.9796 0.165405 32.6722 0.165405 33.0873C0.165405 33.5699 2.43241 35.6 4.39731 36.8772C8.28334 39.4032 13.6658 40.4194 19.1747 39.6675C22.129 39.2641 24.7956 38.2663 27.2727 36.6372C28.8763 35.5825 30.7822 33.9116 31.0301 33.343C31.0377 33.3254 31.045 33.3094 31.052 33.2942C31.0648 33.266 31.0762 33.2409 31.0858 33.2151C31.1631 33.0052 31.1136 32.7484 30.6611 30.4036C30.6314 30.2497 30.5999 30.0866 30.5665 29.9139C30.3897 28.9958 30.3104 28.3622 30.378 28.4064C30.4422 28.4482 30.9179 28.7634 31.4348 29.1067C32.5116 29.8217 34.0435 30.6568 34.5387 30.7987C34.8318 30.8827 35.0083 30.8265 35.8903 30.3681C38.7969 28.8574 41.2606 26.6352 42.3387 24.5517C43.1524 22.9796 43.1545 22.9604 43.1545 17.3668V12.4204L42.9121 12.2C42.6373 11.95 34.9618 9.36262 34.5351 9.37603C34.387 9.38067 32.5124 9.97435 30.3694 10.6953ZM41.4307 17.7819C41.4307 21.8449 41.4153 22.2097 41.2168 22.8521C40.9391 23.7503 40.2964 24.7336 39.3417 25.7205C37.9523 27.1565 35.1459 29.0636 34.6194 28.9295C34.4842 28.8951 33.9435 28.6199 33.4181 28.3181C30.9971 26.9275 29.0655 25.1256 28.2644 23.5101L27.8013 22.5763L27.7701 17.9911L27.7389 13.4059L31.164 12.2665L34.589 11.1273L38.0099 12.2656L41.4307 13.4039V17.7819ZM11.7187 20.1821C12.132 20.5774 12.735 21.018 13.1254 21.2102L13.8086 21.5463L13.0253 25.822C12.5944 28.1736 12.2398 30.2441 12.2373 30.4228C12.2336 30.675 12.5314 31.1469 13.5622 32.5228C14.2935 33.499 14.9918 34.3856 15.1138 34.4932C15.2665 34.6276 15.4658 34.6781 15.7505 34.6548C16.1484 34.6221 16.2181 34.5512 17.4782 32.8976C18.2005 31.95 18.8665 31.0235 18.958 30.8389C19.116 30.5205 19.083 30.275 18.3183 26.0784C17.8748 23.6449 17.5121 21.6153 17.5123 21.5682C17.5126 21.5211 17.8247 21.3212 18.2063 21.1241C18.5877 20.927 19.2131 20.4787 19.5961 20.128C19.9791 19.7773 20.3218 19.4903 20.3577 19.4903C20.3937 19.4903 21.677 19.9791 23.2096 20.5766L25.996 21.663L26.0643 22.2424C26.1969 23.3711 26.8896 24.8693 27.7397 25.8667C28.097 26.2859 28.1292 26.4033 28.7353 29.4912L29.3616 32.6822L28.6892 33.3285C28.0035 33.9872 26.2807 35.3207 26.115 35.3207C26.0647 35.3207 26.0235 34.2037 26.0235 32.8385C26.0235 29.8239 25.9597 29.6132 25.045 29.6132C24.8721 29.6132 24.6336 29.7101 24.5151 29.8285C24.3095 30.0341 24.2997 30.1874 24.2997 33.2059V36.3681L23.6767 36.6476C21.9249 37.4333 19.7502 37.9361 17.2428 38.1352C14.0217 38.3907 10.2577 37.8133 7.66059 36.6654L7.06091 36.4003V33.2904C7.06091 30.3074 7.05185 30.169 6.83756 29.8969C6.52219 29.4961 5.87574 29.4961 5.56038 29.8969C5.34824 30.1663 5.33703 30.313 5.33703 32.807V35.4333L5.04074 35.2477C4.60912 34.9773 3.10645 33.8003 2.4823 33.2437L1.94412 32.7637L2.79055 28.0924C3.2562 25.5231 3.72262 23.2271 3.82702 22.9903C4.2081 22.1259 4.54663 21.9271 7.77783 20.6705C9.42793 20.0286 10.827 19.5006 10.8866 19.497C10.9464 19.4933 11.3208 19.8017 11.7187 20.1821ZM15.8263 22.0479C15.8555 22.1515 16.2036 24.0367 16.6001 26.2369L17.3209 30.2374L16.4891 31.3352C16.0315 31.939 15.6206 32.3922 15.5759 32.3423C15.5312 32.2923 15.1537 31.7912 14.737 31.2284L13.9795 30.2055L14.7416 26.0325C15.2649 23.1661 15.5458 21.8596 15.6385 21.8596C15.7127 21.8596 15.7973 21.9443 15.8263 22.0479Z" fill="black"/>
<path fill-rule="evenodd" clip-rule="evenodd" d="M34.8305 15.0028C34.7961 15.0173 34.7526 15.046 34.7338 15.0666C34.715 15.0872 34.4117 15.6627 34.06 16.3455C33.7082 17.0283 33.4144 17.5928 33.4072 17.6002C33.3999 17.6075 32.7382 17.7042 31.9366 17.815C30.8982 17.9587 30.4614 18.0265 30.4169 18.0511C30.2764 18.1288 30.2151 18.3295 30.2899 18.4668C30.306 18.4963 30.7393 18.9108 31.2528 19.3879C31.7663 19.865 32.2404 20.3079 32.3064 20.3719L32.4262 20.4884L32.1764 21.8786C31.9135 23.3414 31.9151 23.3269 31.9987 23.4486C32.0503 23.5237 32.1894 23.5815 32.2921 23.5704C32.3556 23.5636 32.7408 23.3801 33.6732 22.9128C34.3844 22.5563 34.9761 22.2646 34.9881 22.2646C35.0001 22.2646 35.5889 22.555 36.2964 22.91C37.004 23.265 37.612 23.561 37.6476 23.5678C37.7504 23.5874 37.8526 23.5592 37.9298 23.4898C38.0694 23.3641 38.0742 23.4216 37.7965 21.8773L37.5468 20.4886L37.646 20.3917C37.7005 20.3385 38.1747 19.8956 38.6996 19.4077C39.2247 18.9197 39.6673 18.4963 39.6833 18.4668C39.758 18.3291 39.6967 18.1292 39.5557 18.0506C39.5103 18.0253 39.0895 17.9598 38.0361 17.8141C37.2347 17.7032 36.5732 17.6069 36.566 17.5997C36.5587 17.5927 36.265 17.0283 35.9132 16.3455C35.5614 15.6627 35.2581 15.0872 35.2394 15.0665C35.1606 14.9801 34.9589 14.9487 34.8305 15.0028Z" fill="#2D74FF"/>
</g>
<defs>
<clipPath id="clip0_1_927">
<rect width="42.9891" height="39.55" fill="white" transform="translate(0.165405 0.359863)"/>
</clipPath>
</defs>
</svg>
