<svg width="48" height="49" viewBox="0 0 48 49" fill="none" xmlns="http://www.w3.org/2000/svg">
<path d="M24 4.16992C12.954 4.16992 4 13.1239 4 24.1699C4 35.2159 12.954 44.1699 24 44.1699C35.046 44.1699 44 35.2159 44 24.1699C44 13.1239 35.046 4.16992 24 4.16992Z" fill="url(#paint0_linear_1_1244)"/>
<path d="M26.707 29.4708H31.883L32.696 24.2128H26.707V21.3388C26.707 19.1548 27.421 17.2178 29.464 17.2178H32.747V12.6298C32.17 12.5518 30.95 12.3818 28.645 12.3818C23.831 12.3818 21.009 14.9238 21.009 20.7158V24.2138H16.06V29.4718H21.008V43.9238C21.988 44.0698 22.981 44.1698 24 44.1698C24.921 44.1698 25.82 44.0858 26.707 43.9658V29.4708Z" fill="white"/>
<defs>
<linearGradient id="paint0_linear_1_1244" x1="9.993" y1="10.1629" x2="40.615" y2="40.7849" gradientUnits="userSpaceOnUse">
<stop stop-color="#2AA4F4"/>
<stop offset="1" stop-color="#007AD9"/>
</linearGradient>
</defs>
</svg>
