<svg width="44" height="36" viewBox="0 0 44 36" fill="none" xmlns="http://www.w3.org/2000/svg">
<g clip-path="url(#clip0_1_956)">
<path d="M32.6424 14.8214C32.5085 14.9916 32.4682 15.1637 32.4682 15.5671V16.0917L32.0801 16.1894C31.072 16.4433 30.1313 17.1942 29.7292 18.0662C29.524 18.5112 29.4882 18.6944 29.4878 19.3024C29.4875 19.8995 29.5238 20.0936 29.7098 20.4904C30.2112 21.5599 31.2115 22.1591 33.1263 22.5369C35.0249 22.9116 35.827 23.5311 35.827 24.6229C35.827 25.532 35.077 26.1645 33.7817 26.348C32.2301 26.5677 30.8769 25.9098 30.4911 24.7485C30.3361 24.2817 30.1123 24.0885 29.7268 24.0885C29.3419 24.0885 29.0785 24.4374 29.1363 24.8706C29.2045 25.3814 29.6031 26.0685 30.1148 26.5564C30.6474 27.0644 31.2042 27.3752 31.9567 27.5844L32.4682 27.7266V28.2624C32.4682 28.7194 32.4986 28.8286 32.6744 29.0044C32.9634 29.2933 33.404 29.2864 33.6377 28.9893C33.771 28.8199 33.8117 28.6469 33.8117 28.2511V27.7341L34.4166 27.5922C35.5817 27.3187 36.422 26.7495 36.8794 25.9236C37.1089 25.5092 37.1285 25.4081 37.1285 24.6343C37.1285 23.9488 37.0949 23.7219 36.9456 23.3986C36.6603 22.781 36.0592 22.1999 35.3271 21.8334C34.7161 21.5276 34.3391 21.4158 32.8881 21.1102C32.0797 20.94 31.4202 20.6049 31.0913 20.1972C30.8571 19.907 30.8309 19.817 30.8309 19.3017C30.8309 18.5133 31.1009 18.1182 31.9205 17.707C32.4464 17.4431 32.5751 17.4133 33.18 17.4154C34.2577 17.4192 34.9219 17.7954 35.5304 18.7467C35.6947 19.0035 35.9077 19.2556 36.0038 19.3071C36.3605 19.498 36.9186 19.1604 36.9186 18.7538C36.9186 18.4225 36.5236 17.7232 36.059 17.2319C35.6078 16.755 34.9283 16.366 34.236 16.1886L33.8117 16.0798V15.5226C33.8117 15.0486 33.7828 14.9379 33.6175 14.7827C33.334 14.5165 32.8677 14.5349 32.6424 14.8214Z" fill="#2D74FF"/>
<path fill-rule="evenodd" clip-rule="evenodd" d="M31.9215 0.567466C30.8512 0.959846 30.7671 1.02694 26.3639 5.00129C23.3439 7.72712 22.9731 8.08969 22.7579 8.52789L22.5181 9.01639L22.4934 13.0678L22.4686 17.1192H20.3388H18.2089L18.4932 16.3239C19.2743 14.1386 19.3315 11.8483 18.6403 10.4343C18.2825 9.70242 17.6968 9.11241 16.9728 8.75454C16.2771 8.41069 15.7632 8.34621 15.5353 8.57398C15.4491 8.6602 15.2031 9.48078 14.9135 10.6474C14.6427 11.7388 14.3217 12.8187 14.1753 13.1316C13.826 13.878 13.206 14.4761 11.7959 15.4271C10.547 16.2693 10.1751 16.6326 9.39302 17.7746C8.7987 18.6423 8.41754 19.006 7.97302 19.1294C7.39566 19.2897 7.30548 19.258 7.25426 18.8765C7.18952 18.394 6.85331 17.9282 6.41736 17.7171C6.07418 17.551 5.91573 17.539 4.05804 17.539C1.60988 17.539 1.33992 17.6162 0.970468 18.4208C0.824364 18.7388 0.816135 19.1647 0.814372 26.4551C0.813112 31.6947 0.841073 34.2292 0.901866 34.3901C1.01128 34.6797 1.36461 35.0626 1.66899 35.2217C1.99806 35.3936 6.09131 35.394 6.42155 35.2222C6.96197 34.941 7.27802 34.3518 7.27802 33.6253V33.1646L7.8448 33.3827C9.05124 33.8471 10.7022 34.3434 11.6352 34.5221C12.5797 34.7031 12.7778 34.7089 18.0258 34.7096C21.8846 34.7102 23.5165 34.6828 23.7017 34.6143C23.9042 34.5396 24.0616 34.5445 24.4154 34.6369C24.7946 34.736 26.2635 34.7517 33.35 34.733L41.8306 34.7104L42.2731 34.5104C42.542 34.3889 42.8742 34.137 43.1196 33.8686C43.1713 33.8119 43.2192 33.7644 43.2635 33.7203C43.3145 33.6698 43.3607 33.6239 43.4025 33.5743C43.8113 33.0909 43.8095 32.2601 43.7898 23.3183C43.788 22.5215 43.7861 21.6603 43.7844 20.7292C43.7826 19.8183 43.7812 18.9761 43.7799 18.1972C43.7653 9.32641 43.7641 8.65925 43.4363 8.26132C43.4096 8.22895 43.3808 8.19837 43.3496 8.1653C43.3159 8.12959 43.2795 8.09098 43.2402 8.0441C42.9853 7.74039 36.7711 2.12767 35.954 1.46306C35.6774 1.2382 35.1672 0.918869 34.8203 0.753622C34.2292 0.471994 34.1316 0.451842 33.266 0.433117C32.541 0.417415 32.2518 0.4463 31.9215 0.567466ZM34.2746 1.99214C34.9053 2.29048 35.078 2.43566 38.9758 5.94265C40.7307 7.52157 42.2327 8.93407 42.3135 9.08152C42.4514 9.33318 42.4604 10.0577 42.4604 20.8978C42.4604 32.0024 42.4543 32.4571 42.3039 32.7386C42.2179 32.8994 42.0196 33.1066 41.8631 33.199C41.5848 33.3634 41.4069 33.3674 33.4549 33.3896C28.6984 33.4028 25.331 33.381 25.331 33.3368C25.331 33.2954 25.3932 33.1152 25.4691 32.9364C25.6719 32.4589 25.6546 31.5356 25.4334 31.0368C25.2607 30.6477 25.2604 30.638 25.4188 30.638C25.7198 30.638 26.4294 30.3168 26.8009 30.0123C27.0411 29.8156 27.2668 29.5132 27.447 29.1472C27.6864 28.6609 27.7241 28.498 27.7241 27.9497C27.7241 27.4065 27.6859 27.238 27.459 26.7803L27.194 26.2455L27.589 25.8598C28.6429 24.8304 28.7221 23.2212 27.7719 22.1417C27.5934 21.939 27.311 21.6996 27.1444 21.61C26.9778 21.5202 26.853 21.4272 26.8673 21.4032C27.1965 20.847 27.3019 20.4713 27.303 19.8481C27.3041 19.2809 27.2677 19.1019 27.0692 18.6976C26.7827 18.1142 26.1477 17.5219 25.6034 17.3303C25.3844 17.2531 24.8934 17.1688 24.5124 17.1428L23.8196 17.0955V13.2714C23.8196 9.57711 23.8255 9.43564 23.9925 9.10588C24.1162 8.8617 25.0851 7.93922 27.3937 5.86758C31.2654 2.39334 31.3668 2.3082 32.0065 1.99777C32.7186 1.65216 33.5516 1.65014 34.2746 1.99214ZM16.9585 10.365C17.604 11.0105 17.8147 11.7821 17.748 13.2567C17.6804 14.7522 17.1827 16.4307 16.5669 17.2394C16.459 17.3811 16.3444 17.5802 16.3122 17.6818C16.2342 17.9287 16.4661 18.3644 16.7049 18.4198C16.808 18.4437 18.7249 18.4725 20.9647 18.484L25.0372 18.5047L25.3461 18.6968C25.6867 18.9085 26.0028 19.4627 26.0028 19.8481C26.0028 20.2336 25.6867 20.7877 25.3461 20.9995C25.0415 21.1888 24.9947 21.1919 22.0574 21.2168C19.1519 21.2412 19.0728 21.2462 18.8877 21.4203C18.7013 21.5953 18.6437 21.9191 18.7498 22.1955C18.8884 22.5567 19.1005 22.5771 22.7114 22.5771C26.1447 22.5771 26.146 22.5772 26.4291 22.7681C26.9155 23.0957 27.1149 23.473 27.0736 23.987C27.0358 24.4584 26.8688 24.7543 26.4744 25.0489C26.2509 25.2159 26.1136 25.2236 22.6305 25.2641L19.0185 25.3061L18.858 25.5043C18.6347 25.7803 18.6535 26.1512 18.9037 26.4014L19.1098 26.6076L22.2415 26.6089C25.3266 26.6103 25.378 26.6131 25.7089 26.7983C26.1593 27.0502 26.4481 27.601 26.3953 28.1076C26.3518 28.5246 26.1536 28.8321 25.7517 29.1056C25.4762 29.2931 25.4507 29.2945 22.3755 29.2945C19.1228 29.2945 18.8867 29.3194 18.7498 29.6761C18.6476 29.9422 18.7003 30.2521 18.8802 30.4437C19.0611 30.6362 19.0809 30.638 21.0843 30.6399C22.8704 30.6414 23.1458 30.6598 23.4484 30.7972C24.5803 31.3113 24.5308 32.8394 23.3678 33.2837C23.0405 33.4086 22.4878 33.4188 17.7654 33.3868C12.5361 33.3515 12.5241 33.351 11.5603 33.1392C11.0292 33.0225 10.1413 32.7668 9.58712 32.5711C9.03293 32.3753 8.28681 32.1153 7.92902 31.9933L7.27853 31.7716L7.27827 26.1853L7.27802 20.5991L7.85807 20.5077C8.95833 20.3345 9.49134 19.9567 10.348 18.7426C11.1778 17.5663 11.4761 17.2683 12.5659 16.5267C13.85 15.653 14.422 15.1658 14.8768 14.5582C15.3964 13.8643 15.7026 13.0839 16.1101 11.4157C16.1182 11.3824 16.1261 11.3499 16.1339 11.3181C16.3496 10.4345 16.4319 10.097 16.5685 10.0734C16.6529 10.0589 16.758 10.1642 16.9281 10.3346C16.938 10.3445 16.9482 10.3547 16.9585 10.365ZM5.91397 26.4606L5.93547 33.9967H4.04569H2.156V26.4956C2.156 22.37 2.18195 18.9686 2.2136 18.937C2.24526 18.9053 3.08595 18.8895 4.08188 18.9019L5.89256 18.9245L5.91397 26.4606Z" fill="black"/>
<path fill-rule="evenodd" clip-rule="evenodd" d="M32.2638 4.77255C31.7311 4.98717 31.1837 5.52667 30.952 6.06548C30.684 6.68836 30.746 7.63273 31.0916 8.19154C32.1319 9.87422 34.5443 9.70504 35.3458 7.89321C35.822 6.81657 35.288 5.4008 34.1941 4.83997C33.7001 4.58673 32.8028 4.55541 32.2638 4.77255ZM34.1569 7.18712C34.1866 6.59372 34.0818 6.3472 33.7014 6.11527C32.9679 5.66806 32.1324 6.15642 32.1324 7.03253C32.1324 7.63214 32.7427 8.12822 33.3421 8.01571C33.6738 7.95349 34.1424 7.47689 34.1569 7.18712Z" fill="#2D74FF"/>
</g>
<defs>
<clipPath id="clip0_1_956">
<rect width="42.9914" height="35.03" fill="white" transform="translate(0.814331 0.359863)"/>
</clipPath>
</defs>
</svg>
