<svg width="49" height="49" viewBox="0 0 49 49" fill="none" xmlns="http://www.w3.org/2000/svg">
<path d="M43.621 20.2529H42.01V20.1699H24.01V28.1699H35.313C33.664 32.8269 29.233 36.1699 24.01 36.1699C17.383 36.1699 12.01 30.7969 12.01 24.1699C12.01 17.5429 17.383 12.1699 24.01 12.1699C27.069 12.1699 29.852 13.3239 31.971 15.2089L37.628 9.55192C34.056 6.22292 29.278 4.16992 24.01 4.16992C12.965 4.16992 4.01001 13.1249 4.01001 24.1699C4.01001 35.2149 12.965 44.1699 24.01 44.1699C35.055 44.1699 44.01 35.2149 44.01 24.1699C44.01 22.8289 43.872 21.5199 43.621 20.2529Z" fill="#FFC107"/>
<path d="M6.31601 14.8609L12.887 19.6799C14.665 15.2779 18.971 12.1699 24.01 12.1699C27.069 12.1699 29.852 13.3239 31.971 15.2089L37.628 9.55192C34.056 6.22292 29.278 4.16992 24.01 4.16992C16.328 4.16992 9.66601 8.50692 6.31601 14.8609Z" fill="#FF3D00"/>
<path d="M24.01 44.1696C29.176 44.1696 33.87 42.1926 37.419 38.9776L31.229 33.7396C29.221 35.2606 26.725 36.1696 24.01 36.1696C18.808 36.1696 14.391 32.8526 12.727 28.2236L6.20502 33.2486C9.51502 39.7256 16.237 44.1696 24.01 44.1696Z" fill="#4CAF50"/>
<path d="M43.621 20.2529H42.01V20.1699H24.01V28.1699H35.313C34.521 30.4069 33.082 32.3359 31.226 33.7409L31.229 33.7389L37.419 38.9769C36.981 39.3749 44.01 34.1699 44.01 24.1699C44.01 22.8289 43.872 21.5199 43.621 20.2529Z" fill="#1976D2"/>
</svg>
