<svg width="44" height="39" viewBox="0 0 44 39" fill="none" xmlns="http://www.w3.org/2000/svg">
<g clip-path="url(#clip0_1_942)">
<path fill-rule="evenodd" clip-rule="evenodd" d="M15.6511 0.439461C15.0404 0.623345 14.3519 1.27114 14.0596 1.9369C13.9085 2.28117 13.8822 2.55623 13.8442 4.19114L13.8009 6.05332L9.59298 6.08783C4.94296 6.12604 4.9139 6.12906 3.70078 6.68953C2.00282 7.47402 0.930578 8.90463 0.598578 10.8284C0.485225 11.4856 0.471874 12.9189 0.493285 22.1527L0.517719 32.7246L0.711092 33.353C1.02588 34.376 1.44521 35.089 2.14876 35.7972C2.86733 36.5206 3.71983 36.9965 4.88133 37.3222L5.55306 37.5107H21.9684H38.3836L39.0555 37.3222C41.2212 36.7147 42.5931 35.4088 43.2257 33.353L43.419 32.7246L43.4439 22.1869C43.4608 15.0807 43.44 11.4579 43.3801 11.0615C42.9547 8.24525 41.0462 6.45518 38.1431 6.14922C37.7213 6.10479 35.7419 6.06777 33.7445 6.06693L30.1129 6.0655L30.1105 4.65907C30.106 2.27973 29.9702 1.7175 29.2359 1.04074C28.4472 0.313764 28.8877 0.354907 21.9823 0.363052C18.6266 0.366998 15.7775 0.401424 15.6511 0.439461ZM27.8675 2.12507C28.2682 2.30761 28.3019 2.46623 28.3353 4.32322L28.3667 6.0655H22.0188H15.6709V4.29575V2.526L15.9164 2.28058L16.1618 2.03515H21.916C25.8281 2.03515 27.7333 2.06394 27.8675 2.12507ZM38.7998 8.02711C40.1866 8.44812 40.9976 9.20556 41.4641 10.5157L41.6584 11.0615L41.682 21.4731C41.7033 30.764 41.6913 31.9568 41.5709 32.5536C41.4012 33.3947 41.0978 34.0192 40.611 34.5288C40.1132 35.05 39.6087 35.3314 38.8038 35.5374C38.1578 35.7026 37.8769 35.7054 21.9758 35.7041C7.94104 35.703 5.73484 35.6863 5.27387 35.5776C3.66845 35.1993 2.69503 34.1856 2.36464 32.5481C2.24573 31.9587 2.23347 30.7288 2.25463 21.4731L2.27839 11.0615L2.47387 10.5157C3.02838 8.96736 4.03303 8.18211 5.80496 7.91208C6.03585 7.87681 13.4416 7.85422 22.2622 7.86169C37.4699 7.87462 38.3256 7.88319 38.7998 8.02711Z" fill="#6F6F6F"/>
<path fill-rule="evenodd" clip-rule="evenodd" d="M18.8056 12.8326C18.1113 13.1793 18.031 13.4835 18.0263 15.7805L18.0227 17.6446L15.9715 17.6698C12.9676 17.7065 13.153 17.4519 13.1529 21.5447C13.1527 24.8642 13.157 24.8897 13.7797 25.2546C14.1277 25.4587 14.1624 25.4618 16.0724 25.4618H18.0116L18.0383 27.4559C18.0632 29.3347 18.0753 29.4672 18.2478 29.744C18.3484 29.9055 18.5563 30.1134 18.7096 30.2058C18.9743 30.3654 19.1372 30.3738 21.9691 30.3738C25.303 30.3738 25.242 30.3837 25.6674 29.7633C25.8698 29.4682 25.8739 29.427 25.901 27.4623L25.9288 25.4618H27.8669C29.7756 25.4618 29.8105 25.4587 30.1584 25.2546C30.7808 24.8899 30.7854 24.8627 30.7854 21.5573C30.7854 18.3361 30.7737 18.2556 30.2504 17.8821C29.9989 17.7029 29.9025 17.6938 27.9571 17.6698L25.9263 17.6446L25.8999 15.6546C25.8706 13.4498 25.8417 13.3172 25.3079 12.9365C25.0348 12.7416 25.0239 12.7408 22.0531 12.7202C19.472 12.7023 19.0365 12.7173 18.8056 12.8326ZM24.1102 18.8256L24.0829 16.6438L24.0558 14.4622H21.9208H19.786V16.644V18.8257L19.5411 19.1L19.2962 19.3742L17.1062 19.3992L14.916 19.4241V21.5612V23.6984H17.0384C19.2787 23.6984 19.4072 23.7187 19.66 24.1132C19.7074 24.1871 19.7622 25.1936 19.786 26.4273L19.828 28.6104H21.9691H24.1102L24.1522 26.4273C24.176 25.1936 24.2307 24.1871 24.2782 24.1132C24.531 23.7187 24.6594 23.6984 26.8997 23.6984H29.0221V21.5624V19.4264L26.8405 19.4003L24.6589 19.3742L24.3845 19.0999L24.1102 18.8256Z" fill="#EC5626"/>
</g>
<defs>
<clipPath id="clip0_1_942">
<rect width="42.9904" height="38.03" fill="white" transform="translate(0.484764 0.359863)"/>
</clipPath>
</defs>
</svg>
