<?xml version="1.0" encoding="UTF-8"?>
<!-- Generator: Adobe Illustrator 14.0.0, SVG Export Plug-In . SVG Version: 6.00 Build 43363)  -->
<!DOCTYPE svg PUBLIC "-//W3C//DTD SVG 1.1//EN" "http://www.w3.org/Graphics/SVG/1.1/DTD/svg11.dtd">
<svg version="1.1" id="Layer_1" xmlns="http://www.w3.org/2000/svg" xmlns:xlink="http://www.w3.org/1999/xlink" x="0px" y="0px" width="120px" height="120px" viewBox="0 0 120 120" enable-background="new 0 0 120 120" xml:space="preserve">
<g id="_x30_59---Rafting" transform="translate(0 -1)">
	<path id="Shape" fill="#1D75BC" d="M112.929,93.524c-1.106-0.001-2.16-0.476-2.894-1.304c-0.748-0.797-1.793-1.248-2.886-1.248   c-1.094,0-2.138,0.451-2.887,1.248c-0.756,0.794-1.804,1.244-2.899,1.244c-1.097,0-2.145-0.45-2.899-1.244   c-0.749-0.797-1.794-1.248-2.887-1.248c-1.094,0-2.138,0.451-2.887,1.248c-0.756,0.794-1.804,1.244-2.9,1.244   c-1.096,0-2.144-0.45-2.899-1.244c-0.749-0.797-1.793-1.248-2.886-1.248c-1.094,0-2.138,0.451-2.887,1.248   c-0.756,0.794-1.804,1.244-2.899,1.244c-1.097,0-2.145-0.45-2.9-1.244c-0.749-0.797-1.793-1.248-2.886-1.248   c-1.094,0-2.138,0.451-2.887,1.248c-0.756,0.794-1.804,1.244-2.9,1.244c-1.096,0-2.145-0.45-2.899-1.244   c-0.749-0.797-1.793-1.248-2.886-1.248c-1.093,0-2.138,0.451-2.886,1.248c-0.756,0.794-1.804,1.244-2.9,1.244   s-2.145-0.45-2.9-1.244c-0.749-0.797-1.793-1.248-2.886-1.248c-1.093,0-2.138,0.451-2.887,1.248   c-0.755,0.794-1.803,1.244-2.9,1.244c-1.096,0-2.144-0.45-2.9-1.244c-0.749-0.797-1.793-1.248-2.886-1.248   c-1.093,0-2.137,0.451-2.886,1.248c-0.755,0.794-1.803,1.244-2.9,1.244c-1.096,0-2.144-0.45-2.9-1.244   c-0.749-0.797-1.793-1.248-2.886-1.248c-1.093,0-2.138,0.451-2.886,1.248c-0.755,0.794-1.804,1.244-2.9,1.244   s-2.145-0.45-2.9-1.244c-0.749-0.797-1.793-1.248-2.886-1.248c-1.093,0-2.138,0.451-2.886,1.248   c-0.733,0.828-1.787,1.304-2.893,1.306c-1.065,0-1.929,0.863-1.929,1.929s0.863,1.929,1.929,1.929   c2.211,0.001,4.316-0.953,5.772-2.617c1.465,1.661,3.572,2.611,5.786,2.611c2.214,0,4.322-0.95,5.786-2.611   c1.465,1.661,3.572,2.611,5.786,2.611c2.215,0,4.322-0.95,5.787-2.611c1.464,1.661,3.572,2.611,5.786,2.611   c2.215,0,4.322-0.95,5.787-2.611c1.464,1.661,3.572,2.611,5.786,2.611c2.215,0,4.322-0.95,5.786-2.611   c1.465,1.661,3.572,2.611,5.786,2.611c2.215,0,4.322-0.95,5.786-2.611c1.465,1.661,3.572,2.611,5.787,2.611   c2.214,0,4.321-0.95,5.786-2.611c1.464,1.661,3.571,2.611,5.786,2.611c2.214,0,4.321-0.95,5.785-2.611   c1.465,1.661,3.572,2.611,5.787,2.611c2.214,0,4.321-0.95,5.786-2.611c1.465,1.66,3.572,2.611,5.786,2.613   c1.065,0,1.929-0.863,1.929-1.929s-0.863-1.929-1.929-1.929V93.524z"/>
	<path id="Shape_1_" fill="#1D75BC" d="M112.929,105.097c-1.106-0.001-2.16-0.476-2.894-1.304c-0.748-0.797-1.793-1.248-2.886-1.248   c-1.094,0-2.138,0.451-2.887,1.248c-0.756,0.794-1.804,1.244-2.899,1.244c-1.097,0-2.145-0.45-2.899-1.244   c-0.749-0.797-1.794-1.248-2.887-1.248c-1.094,0-2.138,0.451-2.887,1.248c-0.756,0.794-1.804,1.244-2.9,1.244   c-1.096,0-2.144-0.45-2.899-1.244c-0.749-0.797-1.793-1.248-2.886-1.248c-1.094,0-2.138,0.451-2.887,1.248   c-0.756,0.794-1.804,1.244-2.899,1.244c-1.097,0-2.145-0.45-2.9-1.244c-0.749-0.797-1.793-1.248-2.886-1.248   c-1.094,0-2.138,0.451-2.887,1.248c-0.756,0.794-1.804,1.244-2.9,1.244c-1.096,0-2.145-0.45-2.899-1.244   c-0.749-0.797-1.793-1.248-2.886-1.248c-1.093,0-2.138,0.451-2.886,1.248c-0.756,0.794-1.804,1.244-2.9,1.244   s-2.145-0.45-2.9-1.244c-0.749-0.797-1.793-1.248-2.886-1.248c-1.093,0-2.138,0.451-2.887,1.248   c-0.755,0.794-1.803,1.244-2.9,1.244c-1.096,0-2.144-0.45-2.9-1.244c-0.749-0.797-1.793-1.248-2.886-1.248   c-1.093,0-2.137,0.451-2.886,1.248c-0.755,0.794-1.803,1.244-2.9,1.244c-1.096,0-2.144-0.45-2.9-1.244   c-0.749-0.797-1.793-1.248-2.886-1.248c-1.093,0-2.138,0.451-2.886,1.248c-0.755,0.794-1.804,1.244-2.9,1.244   s-2.145-0.45-2.9-1.244c-0.749-0.797-1.793-1.248-2.886-1.248c-1.093,0-2.138,0.451-2.886,1.248   c-0.733,0.829-1.787,1.304-2.893,1.306c-1.065,0-1.929,0.863-1.929,1.929s0.863,1.929,1.929,1.929   c2.211,0.001,4.316-0.953,5.772-2.617c1.465,1.661,3.572,2.612,5.786,2.612c2.214,0,4.322-0.951,5.786-2.612   c1.465,1.661,3.572,2.612,5.786,2.612c2.215,0,4.322-0.951,5.787-2.612c1.464,1.661,3.572,2.612,5.786,2.612   c2.215,0,4.322-0.951,5.787-2.612c1.464,1.661,3.572,2.612,5.786,2.612c2.215,0,4.322-0.951,5.786-2.612   c1.465,1.661,3.572,2.612,5.786,2.612c2.215,0,4.322-0.951,5.786-2.612c1.465,1.661,3.572,2.612,5.787,2.612   c2.214,0,4.321-0.951,5.786-2.612c1.464,1.661,3.571,2.612,5.786,2.612c2.214,0,4.321-0.951,5.785-2.612   c1.465,1.661,3.572,2.612,5.787,2.612c2.214,0,4.321-0.951,5.786-2.612c1.465,1.66,3.572,2.611,5.786,2.613   c1.065,0,1.929-0.863,1.929-1.929s-0.863-1.929-1.929-1.929V105.097z"/>
	<path id="Shape_2_" fill="#1D75BC" d="M2.992,71.622c0,1.065,0.863,1.929,1.929,1.929h5.786c1.065,0,1.929-0.863,1.929-1.929   s-0.863-1.929-1.929-1.929H4.92C3.855,69.693,2.992,70.557,2.992,71.622z"/>
	<path id="Shape_3_" fill="#1D75BC" d="M116.786,69.693H111c-1.065,0-1.929,0.863-1.929,1.929s0.863,1.929,1.929,1.929h5.786   c1.064,0,1.929-0.863,1.929-1.929S117.851,69.693,116.786,69.693z"/>
	<path id="Shape_4_" fill="#1D75BC" d="M12.807,62.1l10.629,7.594h-5.015c-1.065,0-1.929,0.863-1.929,1.929s0.864,1.929,1.929,1.929   h34.403c0.443,0.983,0.313,0.703,5.593,5.979c-0.165,0.129-0.318,0.271-0.459,0.427c-0.745,0.81-1.796,1.27-2.896,1.267   c-1.101-0.003-2.149-0.469-2.89-1.282c-0.754-0.795-1.802-1.243-2.896-1.24c-1.095,0.003-2.141,0.457-2.89,1.256   c-0.745,0.81-1.796,1.27-2.896,1.267c-1.1-0.003-2.149-0.469-2.889-1.282c-0.754-0.795-1.802-1.243-2.896-1.24   c-1.095,0.003-2.141,0.457-2.89,1.256c-0.745,0.81-1.796,1.27-2.897,1.267c-1.1-0.003-2.149-0.469-2.889-1.282   c-0.754-0.795-1.802-1.243-2.896-1.24c-1.095,0.003-2.141,0.457-2.89,1.256c-0.745,0.81-1.796,1.27-2.896,1.267   c-1.1-0.003-2.149-0.469-2.89-1.282c-0.753-0.795-1.801-1.243-2.896-1.24c-1.095,0.003-2.14,0.457-2.89,1.256   c-0.725,0.84-1.782,1.318-2.891,1.31c-1.065,0-1.929,0.863-1.929,1.929s0.864,1.929,1.929,1.929   c2.219,0.006,4.331-0.952,5.786-2.627c1.46,1.668,3.569,2.626,5.786,2.626c2.217,0,4.326-0.958,5.786-2.626   c1.46,1.668,3.569,2.626,5.786,2.626c2.217,0,4.326-0.958,5.787-2.626c1.459,1.668,3.569,2.626,5.786,2.626   c2.218,0,4.327-0.958,5.787-2.626c1.456,1.661,3.554,2.617,5.762,2.626c2.209,0.008,4.315-0.932,5.783-2.582   c0.457-0.231,0.193-0.413,0.534-0.065c0.046,0.046,0.103,0.079,0.148,0.123c0.101,0.481,0.382,0.905,0.785,1.187   c3.217,2.196,7.566,1.644,10.131-1.288c1.46,1.668,3.569,2.626,5.787,2.626c2.217,0,4.326-0.958,5.786-2.626   c2.625,3.001,7.109,3.498,10.328,1.144c0.997,0.47,2.114,0.626,3.202,0.447c3.172,1.844,7.205,1.176,9.614-1.591   c1.459,1.67,3.568,2.628,5.786,2.627c1.065,0,1.929-0.863,1.929-1.929s-0.863-1.929-1.929-1.929   c-1.112,0.006-2.17-0.478-2.894-1.321c-0.753-0.795-1.801-1.243-2.896-1.24c-1.096,0.003-2.141,0.457-2.891,1.256   c-0.557,0.619-1.303,1.036-2.121,1.186c1.533-1.531,3.086-2.768,3.086-5.489c-0.007-0.91-0.229-1.807-0.648-2.615   c0.597-0.528,0.804-1.372,0.519-2.117s-1.001-1.235-1.799-1.23h-1.634l-1.412-1.412l8.639-6.172   c2.121-1.499,3.541-3.801,3.936-6.373c0.396-2.572-0.269-5.194-1.839-7.269c-3.169-4.145-9.05-5.039-13.308-2.023l-10.969,7.827   h-5.335l4.405-12.986c1.715-5.137,0.204-8.83-2.737-10.784c2.824-4.43,1.576-10.307-2.804-13.207   c-4.382-2.9-10.278-1.753-13.254,2.577c-2.975,4.33-1.93,10.246,2.349,13.295l-8.049,4.324c-0.667-0.692-1.746-0.781-2.517-0.207   c-0.771,0.574-0.996,1.633-0.524,2.471c-1.36,1.735-1.608,4.094-0.639,6.074c0.969,1.979,2.984,3.231,5.189,3.22   c1.241-0.031,2.449-0.413,3.484-1.099l3.74,3.753l-0.86,2.567H50.504c4.712-13.887,5.123-14.416,5.123-17.358   c-0.004-2.581-1.3-4.988-3.452-6.411c2.824-4.43,1.576-10.307-2.805-13.207c-4.381-2.9-10.278-1.753-13.253,2.577   c-2.976,4.33-1.93,10.246,2.348,13.295l-8.311,4.475c-0.402-0.611-1.115-0.942-1.841-0.854c-0.727,0.087-1.341,0.578-1.586,1.267   c-0.246,0.689-0.08,1.458,0.427,1.985c-1.489,2.201-1.282,5.135,0.501,7.105c1.784,1.971,4.682,2.468,7.021,1.206l0.477-0.259   l3.908,3.902l-0.771,2.278h-3.279l-10.97-7.834c-4.259-3.011-10.136-2.118-13.308,2.021c-1.567,2.074-2.229,4.693-1.838,7.262   C9.283,58.291,10.694,60.594,12.807,62.1z M68.258,58.129c0.092,2.583,1.891,4.781,4.402,5.391c2.512,0.61,5.123-0.526,6.389-2.771   l4.119,4.123c-0.845,1.506-0.443,2.556,0.012,4.822H70.393c-6.377-6.377-6.365-6.658-7.867-6.943l-5.236-1.048   c-0.905-0.183-1.846-0.029-2.646,0.431l-4.012-4.004H68.258z M87.792,65.475c1.725,0.44,3.473,0.79,5.234,1.048l7.771,7.771   c0.753,0.753,0.753,1.974,0,2.728l-2.731,2.727c-0.745,0.701-1.902,0.717-2.667,0.037c-0.663-0.562-5.119-5.098-7.827-7.806   l-1.047-5.234l0.607-0.609C87.203,66.067,87.72,65.546,87.792,65.475z M55.26,66.744l1.267-1.27   c1.725,0.441,3.473,0.791,5.234,1.048c8.378,8.382,8.33,8.101,8.33,9.134c0.001,0.512-0.201,1.002-0.562,1.364l-2.729,2.727   c-0.764,0.724-1.96,0.724-2.725,0l-7.771-7.769L55.26,66.744z M86.891,79.944c-0.753-0.795-1.801-1.243-2.896-1.24   c-1.095,0.003-2.141,0.457-2.89,1.256c-0.744,0.81-1.796,1.27-2.896,1.267s-2.148-0.469-2.89-1.282   c-0.595-0.647-1.397-1.065-2.269-1.181c0.999-1.553,1.188-3.491,0.51-5.207h10.526c0.435,0.964,0.049,0.439,7.04,7.431   C89.634,81.533,87.96,81.121,86.891,79.944L86.891,79.944z M88.944,57.41l10.977-7.84c2.606-1.819,6.189-1.228,8.072,1.333   c0.896,1.248,1.257,2.801,1.004,4.316c-0.254,1.515-1.102,2.866-2.354,3.754l-9.165,6.55c-3.057-3.058-1.657-2.369-8.927-3.821   c-0.908-0.184-1.853-0.029-2.655,0.434l-4.02-4.005c4.708,0,5.727,0.241,7.063-0.719H88.944z M74.913,19.554   c3.196,0,5.786,2.591,5.786,5.787c0,3.195-2.59,5.786-5.786,5.786c-3.195,0-5.786-2.591-5.786-5.786   C69.127,22.145,71.718,19.554,74.913,19.554z M62.225,45.11c-0.749-0.223-1.288-0.875-1.368-1.652   c-0.079-0.777,0.317-1.525,1.006-1.895c14.281-7.688,11.877-6.579,13.051-6.579c1.903,0.001,3.765-0.565,5.345-1.626   c2.641,1.084,2.764,3.965,1.854,6.697l-6.267,18.471c-0.159,0.49-0.509,0.896-0.972,1.124s-0.998,0.259-1.483,0.086   c-0.996-0.351-1.529-1.433-1.201-2.436c6.313-18.695-7.152,21.175,6.058-17.938c0.34-1.012-0.204-2.108-1.216-2.448   s-2.108,0.204-2.449,1.216l-0.385,1.168l-10.498,5.657C63.247,45.201,62.717,45.257,62.225,45.11L62.225,45.11z M69.811,46.043   l2.578-1.391l-1.003,2.97L69.811,46.043z M44.054,19.554c3.196,0,5.786,2.591,5.786,5.787c0,3.195-2.59,5.786-5.786,5.786   c-3.195,0-5.786-2.591-5.786-5.786C38.268,22.145,40.859,19.554,44.054,19.554z M31.365,45.11   c-0.748-0.223-1.289-0.875-1.368-1.652c-0.08-0.777,0.317-1.525,1.005-1.895c14.283-7.688,11.877-6.579,13.052-6.579   c1.903,0.001,3.764-0.565,5.344-1.626c2.641,1.084,2.764,3.965,1.854,6.697l-6.267,18.471c-0.159,0.49-0.51,0.895-0.973,1.123   c-0.462,0.228-0.997,0.259-1.482,0.086c-0.996-0.351-1.53-1.433-1.202-2.436c6.313-18.695-7.152,21.175,6.058-17.938   c0.324-1.004-0.219-2.083-1.219-2.42s-2.085,0.192-2.436,1.188l-0.395,1.168l-10.499,5.657   C32.388,45.201,31.857,45.257,31.365,45.11z M38.694,46.183l2.837-1.53l-1.103,3.264L38.694,46.183z M13.814,50.786   c1.905-2.484,5.431-3.02,7.988-1.215l10.971,7.836c1.284,0.922,2.388,0.721,4.628,0.721c0.086,2.532,1.817,4.702,4.264,5.358   c2.447,0.656,5.036-0.363,6.377-2.504l3.876,3.868c-0.853,1.513-0.445,2.573,0,4.842H34.392c-2.814,0.008-5.56-0.869-7.848-2.508   L15.05,58.972c-1.266-0.909-2.112-2.29-2.346-3.831c-0.234-1.541,0.163-3.111,1.102-4.355H13.814z"/>
</g>
</svg>