<svg width="44" height="44" viewBox="0 0 44 44" fill="none" xmlns="http://www.w3.org/2000/svg">
<g clip-path="url(#clip0_1_985)">
<path d="M24.4525 37.5869C24.173 37.2217 23.8119 36.927 23.3981 36.7263C22.9844 36.5257 22.5294 36.4246 22.0696 36.4312C21.4071 36.4974 20.7529 36.6294 20.1166 36.8254C19.2208 37.0046 18.5669 37.1837 18.531 37.1837L18.4594 36.8971C18.3367 36.4893 18.105 36.1227 17.7892 35.8369C17.4735 35.5512 17.0857 35.3571 16.6677 35.2756C16.5244 35.2756 14.7237 34.8367 12.6633 34.3798C10.6029 33.9229 8.89185 33.6094 8.82019 33.5556C8.74852 33.5019 8.74852 33.5556 8.74852 33.269C8.82019 32.839 8.74852 32.7315 8.20206 32.5075C7.01181 32.1128 5.7729 31.8837 4.52019 31.8267C4.30519 31.8267 4.09019 31.8267 4.01852 31.8267H3.83935C3.70356 31.8702 3.58665 31.9586 3.5079 32.0775C3.5079 32.185 3.5079 32.9106 3.5079 36.046C3.5079 38.6798 3.5079 39.9429 3.5079 40.0235C3.53506 40.0999 3.58923 40.1636 3.66019 40.2027C3.76769 40.2744 3.91102 40.2744 5.24581 40.2744C6.43727 40.2744 6.75977 40.2744 6.9031 40.1669C6.94644 40.0559 6.98236 39.9422 7.0106 39.8265L7.1181 39.504C7.26144 39.504 8.41706 39.8623 10.7641 40.6237C12.7529 41.2419 14.446 41.7794 14.5177 41.8152C14.9097 41.8933 15.3106 41.9175 15.7091 41.8869C16.7653 41.7111 17.7967 41.4104 18.7819 40.991C19.615 40.6685 24.3719 38.6081 24.5241 38.5006C24.8108 38.3035 24.775 38.0348 24.4525 37.5869ZM6.40144 38.9306L6.2581 39.4323H4.34102V32.6598L4.73519 32.7046C4.92331 32.7046 5.42498 32.7762 5.81915 32.8479C6.50982 32.9027 7.19042 33.0472 7.84373 33.2779C7.80828 33.6942 7.74241 34.1074 7.64665 34.5142C7.30907 36.0071 6.89343 37.4812 6.40144 38.9306ZM18.2712 40.2654C16.1481 41.0537 15.4225 41.1612 14.6252 40.9821C14.3385 40.9104 7.45852 38.7067 7.45852 38.6708C7.45852 38.635 7.56602 38.3483 7.67352 37.9183C7.96019 37.0852 8.35435 35.5712 8.49769 34.9531C8.54248 34.5142 8.54248 34.4515 8.60519 34.4515H8.67685C8.67685 34.4515 10.4685 34.8456 12.5379 35.2846C16.1212 36.0371 16.6139 36.1804 16.9006 36.3237C17.0885 36.4103 17.2527 36.5411 17.379 36.7049C17.5054 36.8687 17.5902 37.0606 17.6262 37.2644V37.4435L17.0887 37.5958C16.8146 37.6556 16.5359 37.6916 16.2556 37.7033C15.5022 37.6272 14.7543 37.5045 14.016 37.336C12.9321 37.121 11.9914 36.9419 11.8839 36.9419C11.7964 36.9489 11.7111 36.9733 11.6331 37.0135C11.5798 37.0574 11.5363 37.1119 11.5055 37.1737C11.4746 37.2354 11.457 37.3029 11.4539 37.3719C11.4624 37.4538 11.4938 37.5317 11.5445 37.5967C11.5952 37.6616 11.6632 37.711 11.7406 37.7392C11.8123 37.7392 12.7887 37.9542 13.9085 38.1692C14.6775 38.3639 15.4635 38.4839 16.2556 38.5275C17.2857 38.4216 18.3029 38.2145 19.2925 37.9094C20.6273 37.5869 21.7829 37.2912 21.8904 37.2912C22.2609 37.2623 22.6329 37.3237 22.9744 37.4704C23.3416 37.6585 23.6641 37.9094 23.5925 37.981C23.5208 38.0527 19.0685 39.9608 18.2712 40.2565V40.2654Z" fill="#535353"/>
<path d="M29.4691 15.9615L29.2541 15.7823H28.1702C23.8344 15.8898 19.7941 17.2963 17.4202 19.4642C16.8659 19.917 16.4077 20.4759 16.0723 21.1081C15.737 21.7404 15.5313 22.4332 15.4673 23.1461C15.3823 23.9064 15.4606 24.6761 15.697 25.4038C15.9333 26.1314 16.3223 26.8002 16.8379 27.3654C16.9812 27.5804 17.0977 27.7238 17.0977 27.8044C17.0977 27.885 16.9096 28.2344 16.7304 28.6286C16.5512 29.0227 16.3362 29.5244 16.2287 29.7484C16.1212 29.9723 16.1212 30.0709 16.0496 30.0709C15.9779 30.0709 15.8256 29.4259 15.6464 28.7719C14.8718 26.0779 13.8054 23.4765 12.4662 21.014L12.2154 20.6556L12.3587 20.4317C12.6515 19.9386 12.7999 19.3733 12.7873 18.8C12.7746 18.2267 12.6013 17.6684 12.2871 17.1888C11.3912 15.854 9.10685 14.8059 6.83144 14.6267H5.9356C5.75867 14.5867 5.57504 14.5867 5.3981 14.6267C4.93227 14.8059 4.8606 15.2359 5.21894 15.6748C5.74446 16.4783 6.05307 17.4042 6.11477 18.3623C6.43727 20.0913 6.65227 20.6736 7.18977 21.1752C7.69231 21.6125 8.3102 21.8958 8.96952 21.9911C9.62884 22.0864 10.3017 21.9898 10.9075 21.7127C11.3106 21.5336 11.2389 21.4619 11.7406 22.4384C13.067 25.2334 14.1316 28.1454 14.9208 31.1369C15.1716 32.0327 15.4225 32.839 15.4583 32.9286C15.521 33.0191 15.6046 33.0931 15.7021 33.1442C15.7997 33.1953 15.9081 33.222 16.0182 33.222C16.1283 33.222 16.2368 33.1953 16.3343 33.1442C16.4318 33.0931 16.5155 33.0191 16.5781 32.9286C16.5781 32.8569 16.6856 32.5613 16.7931 32.2388C16.8829 31.8597 16.9936 31.4859 17.1246 31.119C17.3037 30.6173 18.0204 28.9511 18.0921 28.7361C18.1637 28.5211 18.1996 28.6644 18.6385 28.8794C18.9843 29.0524 19.3477 29.1875 19.7225 29.2825C20.2227 29.4415 20.749 29.5023 21.2723 29.4617C21.7556 29.4806 22.2394 29.4445 22.7146 29.3542C23.8967 29.0822 24.9683 28.4574 25.7873 27.5625C26.2696 26.9547 26.6121 26.2482 26.7906 25.4931C27.0238 24.6981 27.2122 23.8906 27.355 23.0744C27.4983 22.1338 27.7133 21.0856 27.785 20.7273C28.0051 19.3938 28.5394 18.1317 29.3437 17.0454C29.6662 16.6781 29.7021 16.6065 29.7021 16.3915C29.7103 16.3048 29.6925 16.2176 29.651 16.141C29.6096 16.0645 29.5462 16.002 29.4691 15.9615ZM10.9075 20.1181C10.7302 20.3125 10.5122 20.4655 10.2692 20.5661C10.0261 20.6667 9.76383 20.7126 9.50102 20.7004C9.24686 20.7119 8.99317 20.6691 8.75684 20.5749C8.52051 20.4806 8.30696 20.3372 8.1304 20.154C7.84373 19.9031 7.7004 19.5448 7.41373 17.9144C7.26144 17.1977 7.08227 16.4363 7.0106 16.2213C6.83144 15.7554 6.7956 15.7913 7.66456 15.9346C8.82974 16.1281 9.91659 16.6466 10.8 17.4306C11.1314 17.7531 11.2748 17.8965 11.3464 18.1563C11.4779 18.4897 11.5063 18.8548 11.4281 19.2046C11.3498 19.5543 11.1685 19.8725 10.9075 20.1181ZM27.4446 17.5829C26.7625 19.1579 26.3129 20.8237 26.1098 22.5279C25.6081 25.3856 25.3125 26.174 24.6675 26.8638C24.1618 27.3503 23.5477 27.7095 22.8758 27.9119C22.4054 28.0933 21.9003 28.1668 21.3977 28.1269C20.6727 28.1801 19.9465 28.0411 19.2925 27.7238C18.7191 27.4729 18.7191 27.4371 18.97 27.0071C19.9199 25.3021 21.0984 23.7348 22.4727 22.3488C23.0819 21.659 23.1625 21.5873 23.1625 21.3723C23.1577 21.269 23.1275 21.1685 23.0745 21.0797C23.0215 20.9909 22.9474 20.9166 22.8587 20.8634C22.77 20.8101 22.6695 20.7797 22.5663 20.7747C22.463 20.7697 22.36 20.7904 22.2666 20.8348C21.1584 21.789 20.1742 22.8785 19.3373 24.0777C18.8192 24.7872 18.3378 25.5228 17.895 26.2815C17.8578 26.3597 17.8096 26.4321 17.7516 26.4965C17.5084 26.2758 17.3133 26.0075 17.1783 25.7081C16.8993 25.1561 16.7414 24.5509 16.7152 23.9329C16.6889 23.315 16.7949 22.6985 17.026 22.1248C17.2628 21.5417 17.6342 21.0229 18.11 20.6109C19.4467 19.3752 21.0544 18.4701 22.8041 17.9681C24.3155 17.4843 25.8795 17.1836 27.4625 17.0723H27.6775L27.4446 17.5829Z" fill="#66CC00" stroke="#66CC00" stroke-width="0.671875" stroke-miterlimit="10"/>
<path d="M40.0669 20.6553C39.2543 20.6683 38.4698 20.3581 37.886 19.7928C37.3022 19.2274 36.9669 18.4534 36.9538 17.6408C36.9408 16.8282 37.251 16.0438 37.8163 15.46C38.3817 14.8762 39.1558 14.5408 39.9683 14.5278C40.766 14.5145 41.5382 14.8085 42.1251 15.3487C42.7121 15.889 43.0689 16.6343 43.1216 17.4303C43.1448 17.8455 43.083 18.2611 42.9399 18.6516C42.7967 19.0421 42.5754 19.3993 42.2894 19.7012C42.0034 20.0032 41.6587 20.2435 41.2766 20.4076C40.8944 20.5716 40.4827 20.6559 40.0669 20.6553Z" fill="#2D74FF"/>
<path d="M21.98 1.42199C22.3813 1.41954 22.7791 1.49738 23.1499 1.65093C23.5208 1.80448 23.8571 2.03064 24.1393 2.3161C24.4214 2.60157 24.6436 2.94057 24.7927 3.31318C24.9419 3.68578 25.0151 4.08445 25.0079 4.48574C25.0061 5.09068 24.8247 5.68146 24.4868 6.1832C24.1488 6.68494 23.6695 7.07505 23.1096 7.30407C22.5497 7.5331 21.9344 7.59072 21.3417 7.46965C20.749 7.34858 20.2056 7.05425 19.7804 6.62399C19.3552 6.19372 19.0672 5.64689 18.9531 5.05281C18.8391 4.45873 18.9039 3.84415 19.1395 3.28697C19.3751 2.72979 19.7708 2.25511 20.2765 1.92309C20.7822 1.59108 21.3751 1.41667 21.98 1.42199Z" fill="#2D74FF"/>
<path d="M30.1141 38.8589C30.1141 38.0486 30.4342 37.2711 31.0046 36.6956C31.575 36.1202 32.3497 35.7933 33.16 35.7862C33.5769 35.7637 33.9939 35.8263 34.3858 35.9704C34.7777 36.1144 35.136 36.3367 35.4391 36.6238C35.7422 36.911 35.9836 37.2568 36.1485 37.6404C36.3135 38.0239 36.3985 38.437 36.3985 38.8544C36.3985 39.2719 36.3135 39.685 36.1485 40.0685C35.9836 40.452 35.7422 40.7979 35.4391 41.085C35.136 41.3722 34.7777 41.5945 34.3858 41.7385C33.9939 41.8826 33.5769 41.9452 33.16 41.9227C32.7588 41.9215 32.3618 41.8413 31.9916 41.6867C31.6215 41.5321 31.2854 41.3061 31.0025 41.0216C30.7197 40.7371 30.4957 40.3997 30.3432 40.0286C30.1908 39.6576 30.113 39.2601 30.1141 38.8589Z" fill="#2D74FF"/>
<path d="M27.2475 33.457C27.4016 33.4576 27.5533 33.4953 27.6897 33.567C27.8262 33.6387 27.9433 33.7422 28.0312 33.8688C28.1191 33.9954 28.1752 34.1413 28.1947 34.2942C28.2142 34.4471 28.1966 34.6024 28.1433 34.747C27.8838 35.4023 27.8306 36.1212 27.991 36.8074C28.0866 37.2291 28.2722 37.6251 28.5351 37.9683C28.7979 38.3116 29.1318 38.594 29.5139 38.7962C29.5998 38.8372 29.6733 38.9003 29.7268 38.979C29.7803 39.0577 29.812 39.1492 29.8185 39.2441C29.8707 39.8216 30.0815 40.3735 30.4277 40.8387C30.4725 40.9014 30.571 40.9641 30.5083 41.0537C30.4456 41.1433 30.3739 41.0537 30.3023 41.0537C29.1698 40.8799 28.1291 40.3289 27.3487 39.49C26.5683 38.651 26.0939 37.5733 26.0023 36.4312C25.9554 35.6171 26.1125 34.8042 26.4591 34.0662C26.5155 33.898 26.6205 33.7504 26.7608 33.6419C26.9012 33.5335 27.0705 33.4691 27.2475 33.457Z" fill="#535353"/>
<path d="M36.7971 23.7907C35.575 23.7795 34.3944 23.3459 33.4556 22.5634C33.3456 22.4911 33.2529 22.3953 33.1841 22.2831C33.1153 22.1708 33.072 22.0447 33.0575 21.9139C33.043 21.783 33.0575 21.6505 33.0999 21.5259C33.1424 21.4013 33.2119 21.2875 33.3033 21.1928C33.385 21.0951 33.4856 21.0148 33.5989 20.9567C33.7123 20.8987 33.8362 20.864 33.9633 20.8548C34.0903 20.8456 34.2179 20.8621 34.3385 20.9032C34.459 20.9443 34.5701 21.0093 34.665 21.0942C35.2686 21.6288 36.0536 21.9127 36.8596 21.8877C37.6655 21.8627 38.4315 21.5308 39.0008 20.9599C39.0487 20.9108 39.1087 20.875 39.1747 20.8561C39.2406 20.8373 39.3104 20.836 39.3771 20.8524C39.9712 20.981 40.5886 20.9532 41.1687 20.7717C41.2404 20.7717 41.3121 20.6822 41.3658 20.7717C41.4196 20.8613 41.3658 20.924 41.3658 20.9957C40.9749 21.7433 40.4043 22.3819 39.7053 22.8541C39.0063 23.3264 38.2009 23.6175 37.3614 23.7011L36.7971 23.7907Z" fill="#535353"/>
<path d="M27.0952 7.93473C27.0935 8.81777 26.8632 9.68533 26.4268 10.453C25.9904 11.2206 25.3627 11.8622 24.6048 12.3154C24.4548 12.4194 24.2767 12.4751 24.0941 12.4751C23.9116 12.4751 23.7335 12.4194 23.5835 12.3154C23.4364 12.2215 23.3198 12.0868 23.2482 11.9276C23.1766 11.7685 23.153 11.5919 23.1804 11.4195C23.1976 11.2827 23.2462 11.1517 23.3223 11.0367C23.3984 10.9217 23.5001 10.8259 23.6194 10.7566C24.0749 10.4861 24.4554 10.1058 24.7261 9.65044C24.9968 9.19507 25.1491 8.67913 25.1691 8.14973C25.1954 7.62948 25.0875 7.11121 24.8556 6.64473C24.8136 6.58255 24.7912 6.50924 24.7912 6.43421C24.7912 6.35919 24.8136 6.28587 24.8556 6.22369C25.1666 5.71128 25.325 5.12086 25.3125 4.52161C25.3125 4.44098 25.3125 4.33348 25.3752 4.30661C25.4379 4.27973 25.5275 4.36036 25.5812 4.41411C26.3813 5.22084 26.8916 6.26983 27.0325 7.39723C27.0683 7.5764 27.0773 7.75557 27.0952 7.93473Z" fill="#535353"/>
<path d="M36.7433 13.5962C37.5374 13.5844 38.3221 13.7691 39.0277 14.1337C39.1083 14.1337 39.2337 14.1875 39.2248 14.3039C39.2158 14.4204 39.0814 14.4025 39.0008 14.4294C38.4542 14.6002 37.9606 14.9087 37.5675 15.3252C37.5227 15.3854 37.4623 15.4323 37.3928 15.4607C37.3234 15.4891 37.2475 15.498 37.1733 15.4864C36.3811 15.3705 35.5744 15.5594 34.916 16.0149C34.2576 16.4705 33.7966 17.1588 33.6258 17.941C33.6143 18.0809 33.5719 18.2165 33.5017 18.338C33.4315 18.4595 33.3353 18.564 33.2199 18.6438C33.1045 18.7237 32.9729 18.777 32.8344 18.7999C32.6959 18.8228 32.5541 18.8147 32.4192 18.7763C32.2842 18.7378 32.1594 18.6699 32.0539 18.5775C31.9483 18.485 31.8645 18.3703 31.8086 18.2416C31.7526 18.1129 31.7259 17.9734 31.7303 17.8331C31.7347 17.6929 31.7702 17.5553 31.8341 17.4304C32.1078 16.3355 32.7396 15.3634 33.6291 14.6687C34.5185 13.974 35.6147 13.5965 36.7433 13.5962Z" fill="#535353"/>
<path d="M19.8927 12.4675C19.6855 12.4642 19.4836 12.402 19.3104 12.2883C18.6621 11.8821 18.1138 11.335 17.7062 10.6876C17.2986 10.0402 17.0422 9.30928 16.9561 8.54913C16.8701 7.78898 16.9565 7.0192 17.209 6.29706C17.4615 5.57492 17.8736 4.91902 18.4146 4.37813C18.4773 4.32438 18.5221 4.20792 18.6296 4.25272C18.7371 4.29751 18.6744 4.40501 18.6744 4.47667C18.6779 5.06939 18.8387 5.65054 19.1402 6.16084C19.1799 6.21891 19.2011 6.2876 19.2011 6.35792C19.2011 6.42825 19.1799 6.49694 19.1402 6.55501C18.797 7.26408 18.7261 8.07443 18.9407 8.83236C19.1554 9.59028 19.6408 10.2431 20.3048 10.6669C20.4867 10.7531 20.6343 10.8982 20.7236 11.0786C20.813 11.259 20.839 11.4643 20.7975 11.6613C20.7677 11.8529 20.6794 12.0306 20.5447 12.1702C20.41 12.3097 20.2355 12.4041 20.045 12.4406L19.8927 12.4675Z" fill="#535353"/>
<path d="M36.1879 36.019C36.1952 36.3189 36.1742 36.6188 36.1252 36.9148C36.1252 36.9775 36.1252 37.0492 36.0535 37.076C35.9819 37.1029 35.946 37.0223 35.9102 36.9775C35.5543 36.4411 35.0411 36.028 34.441 35.795C34.2529 35.7144 34.2529 35.5442 34.2171 35.3919C34.0946 34.77 33.7855 34.2002 33.331 33.7584C32.8764 33.3167 32.298 33.024 31.6729 32.9194C31.3988 32.8924 31.1228 32.8924 30.8487 32.9194C30.7211 32.9316 30.5923 32.9179 30.4702 32.8791C30.348 32.8403 30.2349 32.7771 30.1378 32.6934C30.0407 32.6097 29.9616 32.5072 29.9052 32.392C29.8488 32.2769 29.8162 32.1516 29.8096 32.0235C29.7829 31.8879 29.7879 31.7479 29.8244 31.6145C29.8608 31.4811 29.9276 31.3579 30.0196 31.2547C30.1116 31.1514 30.2262 31.0709 30.3545 31.0193C30.4828 30.9678 30.6213 30.9466 30.7591 30.9575C31.4538 30.9083 32.1511 31.0027 32.8076 31.2348C33.4641 31.4669 34.0658 31.8318 34.5752 32.3067C35.0845 32.7815 35.4905 33.3562 35.768 33.9949C36.0455 34.6336 36.1884 35.3226 36.1879 36.019Z" fill="#535353"/>
<path d="M37.1016 24.4987C36.919 27.0506 36.0964 29.5153 34.7098 31.6654C34.6112 31.8266 34.5127 31.8356 34.3694 31.7191C34.1088 31.5106 33.8228 31.336 33.5183 31.1995C33.2944 31.101 33.2944 30.9935 33.4198 30.8054C34.4785 29.1828 35.1695 27.3482 35.4444 25.4304C35.5117 25.0307 35.5476 24.6263 35.5519 24.221C35.5519 24.0149 35.6414 23.9343 35.8564 23.9702C36.1964 24.0296 36.5417 24.0536 36.8866 24.0418C37.0389 24.0418 37.1196 24.0418 37.1016 24.2479V24.4987Z" fill="#535353"/>
<path d="M17.2052 10.407C17.077 10.1532 16.9692 9.88957 16.8827 9.61868C16.7573 9.26035 16.7573 9.25139 16.39 9.39472C15.2641 9.84982 14.1989 10.4426 13.2187 11.1595C12.2959 11.8334 11.4489 12.6053 10.6925 13.4618C10.8269 13.5693 10.9612 13.6678 11.0866 13.7843L11.23 13.847C11.2733 13.8747 11.3151 13.9046 11.3554 13.9366C11.5583 14.0801 11.75 14.2388 11.9287 14.4114C12.7146 13.514 13.6187 12.7274 14.6162 12.0733C15.3941 11.5702 16.2192 11.1441 17.0798 10.8012C17.1783 10.8012 17.3037 10.7474 17.3216 10.5951L17.2052 10.407Z" fill="#535353"/>
<path d="M33.8319 14.0532C33.8319 14.1786 33.7512 14.2144 33.6885 14.2592C33.4133 14.4335 33.1632 14.6445 32.945 14.8863C32.7569 15.1013 32.6494 15.0386 32.4971 14.8863C31.8408 14.0701 31.0855 13.3389 30.2485 12.7094C29.2404 11.9228 28.1201 11.2917 26.925 10.8371C26.6921 10.7476 26.6383 10.649 26.7637 10.443C26.9206 10.1617 27.0382 9.86032 27.1131 9.54714C27.1848 9.32318 27.2923 9.2963 27.4983 9.37693C29.2113 10.0463 30.7872 11.024 32.1477 12.2615C32.6794 12.7523 33.1735 13.2824 33.6258 13.8471L33.8319 14.0532Z" fill="#535353"/>
<path d="M36.9762 21.3184C37.03 21.5334 36.9135 21.6051 36.7254 21.5961C36.3298 21.5783 35.941 21.4872 35.5787 21.3274C35.519 21.3004 35.4675 21.258 35.4297 21.2044C35.3919 21.1508 35.3691 21.0881 35.3637 21.0228C35.1496 19.8234 34.7697 18.6596 34.235 17.5649C34.1999 17.5101 34.1812 17.4463 34.1812 17.3812C34.1812 17.3161 34.1999 17.2524 34.235 17.1976C34.4421 16.8515 34.7125 16.5476 35.0323 16.3018C35.1666 16.2122 35.2562 16.1853 35.3458 16.3555C36.1793 17.9001 36.7313 19.5805 36.9762 21.3184Z" fill="#535353"/>
<path d="M21.98 8.31104C22.823 8.33188 23.6638 8.40668 24.4973 8.53499C24.7929 8.53499 24.8287 8.69624 24.7212 8.93812C24.6137 9.17999 24.6048 9.21583 24.5331 9.3502C24.1569 10.031 24.1389 10.0221 23.3685 9.94145C22.3214 9.8115 21.2623 9.8115 20.2152 9.94145C20.1325 9.96179 20.0454 9.95541 19.9666 9.92322C19.8877 9.89103 19.8211 9.83469 19.7762 9.76229C19.5606 9.49041 19.3855 9.18865 19.2566 8.86645C19.176 8.63354 19.1939 8.52604 19.4806 8.48124C20.3092 8.37093 21.1441 8.31407 21.98 8.31104Z" fill="#535353"/>
<path d="M28.2508 36.0727C28.2161 35.9186 28.2401 35.7572 28.3179 35.6197C28.3957 35.4823 28.5219 35.3787 28.6719 35.3292C29.6286 34.8147 30.509 34.1695 31.2877 33.4121C31.3684 33.3151 31.4784 33.2469 31.6012 33.2178C31.724 33.1887 31.8529 33.2003 31.9685 33.2509C32.2856 33.3601 32.5868 33.5107 32.8644 33.6988C32.9987 33.7973 33.0077 33.8869 32.8644 34.0213C31.662 35.2592 30.2599 36.2858 28.7166 37.0581C28.4927 37.1656 28.3941 37.0581 28.3494 36.879C28.3101 36.7621 28.2801 36.6423 28.2598 36.5206C28.2508 36.3773 28.2508 36.2429 28.2508 36.0727Z" fill="#535353"/>
</g>
<defs>
<clipPath id="clip0_1_985">
<rect width="43" height="43" fill="white" transform="translate(0.47998 0.409668)"/>
</clipPath>
</defs>
</svg>
