<svg width="80" height="16" viewBox="0 0 80 16" fill="none" xmlns="http://www.w3.org/2000/svg">
<g clip-path="url(#clip0_1_1149)">
<path d="M15 0.390625H0V15.3906H15V0.390625Z" fill="#00B67A"/>
<path d="M31.25 0.390625H16.25V15.3906H31.25V0.390625Z" fill="#00B67A"/>
<path d="M47.5 0.390625H32.5V15.3906H47.5V0.390625Z" fill="#00B67A"/>
<path d="M63.75 0.390625H48.75V15.3906H63.75V0.390625Z" fill="#00B67A"/>
<path d="M80 0.390625H72.5V15.3906H80V0.390625Z" fill="#DCDCE6"/>
<path d="M72.5 0.390625H65V15.3906H72.5V0.390625Z" fill="#00B67A"/>
<path d="M7.5 10.5L9.78125 9.92187L10.7344 12.8594L7.5 10.5ZM12.75 6.70313H8.73438L7.5 2.92188L6.26562 6.70313H2.25L5.5 9.04688L4.26562 12.8281L7.51562 10.4844L9.51562 9.04688L12.75 6.70313Z" fill="white"/>
<path d="M23.75 10.5L26.0313 9.92187L26.9844 12.8594L23.75 10.5ZM29 6.70313H24.9844L23.75 2.92188L22.5156 6.70313H18.5L21.75 9.04688L20.5156 12.8281L23.7656 10.4844L25.7656 9.04688L29 6.70313Z" fill="white"/>
<path d="M40 10.5L42.2813 9.92187L43.2344 12.8594L40 10.5ZM45.25 6.70313H41.2344L40 2.92188L38.7656 6.70313H34.75L38 9.04688L36.7656 12.8281L40.0156 10.4844L42.0156 9.04688L45.25 6.70313Z" fill="white"/>
<path d="M56.25 10.5L58.5313 9.92187L59.4844 12.8594L56.25 10.5ZM61.5 6.70313H57.4844L56.25 2.92188L55.0156 6.70313H51L54.25 9.04688L53.0156 12.8281L56.2656 10.4844L58.2656 9.04688L61.5 6.70313Z" fill="white"/>
<path d="M72.5 10.5L74.7813 9.92187L75.7344 12.8594L72.5 10.5ZM77.75 6.70313H73.7344L72.5 2.92188L71.2656 6.70313H67.25L70.5 9.04688L69.2656 12.8281L72.5156 10.4844L74.5156 9.04688L77.75 6.70313Z" fill="white"/>
</g>
<defs>
<clipPath id="clip0_1_1149">
<rect width="80" height="15" fill="white" transform="translate(0 0.390625)"/>
</clipPath>
</defs>
</svg>
