<?xml version="1.0" encoding="UTF-8"?>
<!-- Generator: Adobe Illustrator 14.0.0, SVG Export Plug-In . SVG Version: 6.00 Build 43363)  -->
<!DOCTYPE svg PUBLIC "-//W3C//DTD SVG 1.1//EN" "http://www.w3.org/Graphics/SVG/1.1/DTD/svg11.dtd">
<svg version="1.1" id="Layer_1" xmlns="http://www.w3.org/2000/svg" xmlns:xlink="http://www.w3.org/1999/xlink" x="0px" y="0px" width="120px" height="120px" viewBox="0 0 120 120" enable-background="new 0 0 120 120" xml:space="preserve">
<g>
	<g>
		<path fill="#1E75BC" d="M117.263,63.743l-9.21,3.878c-0.181,0.076-0.349,0.182-0.499,0.308L95.122,78.472l-0.218-0.531    c-1.203-2.883-4.427-4.346-7.389-3.355l-1.357,0.458l-1.004-1.017l-4.741-7.898l5.458-24.913l2.816-1.412    c1.732-0.873,2.777-2.696,2.655-4.632c-0.12-1.937-1.385-3.613-3.214-4.263l1.164-5.31c0.193-1.031-0.467-2.028-1.491-2.251    c-1.025-0.225-2.041,0.406-2.295,1.423l-1.425,6.5l-14.94,7.482l-5.622-4.822l0.086-0.496c0.325-1.975-0.044-4-1.046-5.732    c3.323-0.23,6.352-2.006,8.172-4.8c1.82-2.792,2.225-6.277,1.092-9.413l6.828-3.409c0.962-0.478,1.357-1.645,0.878-2.606    c-0.477-0.962-1.645-1.355-2.606-0.878l-7.054,3.525C66.137,5.735,59.593,5.11,55.097,8.712    c-4.494,3.602-5.312,10.125-1.844,14.725c-0.573,0.116-1.132,0.289-1.67,0.518l0.273-1.446c0.157-0.833-0.032-1.694-0.522-2.385    c-0.491-0.691-1.243-1.153-2.082-1.279l-8.995-1.332c-2.655-0.409-5.148,1.388-5.598,4.035L32.396,34.39l-2.478-0.531    c-1.069-0.229-2.188-0.02-3.103,0.582c-0.914,0.602-1.549,1.547-1.762,2.621l-1.87,9.48c-0.215,1.093,0.024,2.225,0.664,3.135    c0.639,0.912,1.622,1.522,2.722,1.693l4.716,0.729h0.027l10.926,1.466l-0.105,0.311c-0.914,2.706-0.208,5.697,1.818,7.709    c0.063,0.062,0.137,0.108,0.195,0.169l4.56,12.909L39.25,89.035l-4.869,5.77c-0.382,0.452-0.537,1.056-0.42,1.636    c0.118,0.581,0.493,1.075,1.021,1.345l9.372,4.775l-4.182,2.521L0,110.122l0.48,3.847l40.58-5.089    c0.271-0.033,0.531-0.123,0.762-0.266l25.905-15.655l13.604-5.014l13.477-4.964l1.394-0.514c0.212-0.08,0.41-0.195,0.581-0.342    l13.035-11.051l8.935-3.76L117.263,63.743z M86.241,79.101l2.521-0.847c1.027-0.343,2.148,0.165,2.568,1.164l0.26,0.626    l-9.536,3.517l-0.293,0.105l-1.572-3.837l3.169-2.11l0.896,0.908C84.772,79.149,85.542,79.334,86.241,79.101L86.241,79.101z     M48.962,59.908c-1.112-0.1-2.118-0.704-2.729-1.639c-0.612-0.937-0.762-2.1-0.408-3.16l0.402-1.21h11.901l12.574,3.593    l5.587,9.307l-1.013,4.624l-5.539-8.857c-0.32-0.518-0.863-0.854-1.468-0.912L48.962,59.908z M56.771,50.021h-9.655l0.9-5.463    l0.634-0.056c3.256-0.297,6.438-1.137,9.416-2.486l0.089,0.078L56.771,50.021z M48.67,40.591l1.144-6.941    c0.225,1.01,0.768,1.921,1.551,2.598l3.411,2.936C52.806,39.901,50.756,40.374,48.67,40.591L48.67,40.591z M78.112,85.015    l-2.005,0.738l0.804-3.672L78.112,85.015z M80.99,74.643l-1.746,1.164l-0.873,0.58l-0.155-0.251l0.98-4.48L80.99,74.643z     M77.499,61.289l-3.866-6.444c-0.253-0.422-0.656-0.731-1.131-0.866L60.61,50.574l0.97-5.537l3.684,3.168    c1.482,1.274,3.583,1.533,5.331,0.657l10.819-5.417L77.499,61.289z M86.076,34.611c0.23-0.118,0.498-0.137,0.743-0.056    c0.242,0.081,0.442,0.256,0.556,0.485c0.239,0.477,0.049,1.058-0.429,1.3l-18.099,9.063c-0.35,0.169-0.767,0.116-1.063-0.133    l-8.124-6.998l-5.765-4.958c-0.296-0.256-0.409-0.665-0.287-1.037c0.123-0.373,0.457-0.633,0.847-0.663h0.072    c0.232,0,0.457,0.083,0.633,0.234l13.405,11.535L86.076,34.611z M68.578,17.064c0.011,2.911-1.843,5.502-4.602,6.434    c-2.758,0.931-5.802-0.007-7.559-2.328l11.871-5.93C68.469,15.832,68.565,16.446,68.578,17.064L68.578,17.064z M61.793,10.278    c1.628,0.007,3.196,0.602,4.417,1.677l-11.16,5.573c0-0.156-0.046-0.303-0.046-0.461c0.003-3.745,3.038-6.781,6.784-6.789H61.793z     M55.814,27.196c1.818,0.289,3.306,1.605,3.813,3.376l-1.938-1.667c-1.98-1.711-4.962-1.531-6.72,0.406    C52.015,27.699,53.921,26.868,55.814,27.196L55.814,27.196z M26.994,47.294l1.871-9.481l-1.903-0.375l2.149,0.211l2.613,0.561    l-1.719,9.768l-2.839-0.438L26.994,47.294z M38.479,22.221c0.106-0.567,0.638-0.951,1.21-0.873l8.21,1.217l-1.494,7.916v0.042    L43.222,49.79l-9.379-1.261L38.479,22.221z M52.702,74.285l-3.701-10.48l6.926,0.628l1.58,10.325L46.214,91.255l-2.677-1.649    l8.955-13.609C52.824,75.49,52.903,74.857,52.702,74.285L52.702,74.285z M48.262,100.208l-9.336-4.758l2.294-2.714l4.53,2.793    c0.153,0.093,0.319,0.165,0.491,0.213c0.17,0.05,0.347,0.074,0.525,0.074h0.224c1.763,0.005,3.304,1.186,3.766,2.887l-0.598,0.359    L48.262,100.208z M66.21,89.398c-0.115,0.043-0.227,0.099-0.332,0.161l-11.743,7.102c-0.794-1.845-2.269-3.309-4.117-4.093    l11.125-16.253c0.278-0.405,0.393-0.901,0.316-1.388l-1.551-10.134l7.056,0.643l7.133,11.409l-2.301,10.497L66.21,89.398z     M66.21,89.398"/>
	</g>
</g>
</svg>