<svg width="19" height="19" viewBox="0 0 19 19" fill="none" xmlns="http://www.w3.org/2000/svg">
<path d="M9.06142 16.2676L4.37571 18.7304C4.25765 18.7924 4.12461 18.82 3.99165 18.8103C3.85868 18.8005 3.73109 18.7538 3.62332 18.6753C3.51555 18.5968 3.43189 18.4897 3.38182 18.3662C3.33175 18.2426 3.31726 18.1075 3.33999 17.9761L4.23571 12.7618C4.25535 12.6476 4.24689 12.5302 4.21105 12.42C4.17521 12.3097 4.11307 12.2099 4.02999 12.129L0.238565 8.43469C0.143063 8.34168 0.0754968 8.2238 0.0435099 8.09438C0.0115231 7.96496 0.0163924 7.82917 0.0575671 7.70238C0.0987418 7.57559 0.174578 7.46284 0.276498 7.37691C0.378417 7.29098 0.502351 7.23528 0.63428 7.21612L5.87142 6.45469C5.98609 6.43823 6.09503 6.39413 6.18886 6.32619C6.28268 6.25824 6.35858 6.1685 6.40999 6.06469L8.75285 1.31898C8.81195 1.19974 8.90318 1.09938 9.01626 1.02922C9.12934 0.959053 9.25977 0.921875 9.39285 0.921875C9.52593 0.921875 9.65637 0.959053 9.76945 1.02922C9.88253 1.09938 9.97376 1.19974 10.0329 1.31898L12.3771 6.06326C12.4284 6.16689 12.5041 6.25652 12.5977 6.32445C12.6912 6.39238 12.7999 6.43659 12.9143 6.45326L18.1514 7.21469C18.2834 7.23385 18.4073 7.28955 18.5092 7.37548C18.6111 7.46142 18.687 7.57416 18.7281 7.70095C18.7693 7.82775 18.7742 7.96353 18.7422 8.09295C18.7102 8.22237 18.6426 8.34025 18.5471 8.43326L14.7571 12.1276C14.6743 12.2083 14.6123 12.3079 14.5764 12.4179C14.5406 12.5279 14.532 12.6449 14.5514 12.759L15.4471 17.9747C15.4701 18.1063 15.4556 18.2416 15.4055 18.3654C15.3554 18.4892 15.2716 18.5964 15.1636 18.675C15.0556 18.7535 14.9277 18.8002 14.7945 18.8098C14.6613 18.8193 14.5281 18.7913 14.41 18.729L9.72571 16.2661C9.62326 16.2123 9.50928 16.1842 9.39357 16.1842C9.27785 16.1842 9.16387 16.2123 9.06142 16.2661V16.2676Z" fill="#CCCCCC"/>
</svg>
