<svg width="17" height="16" viewBox="0 0 17 16" fill="none" xmlns="http://www.w3.org/2000/svg">
<path d="M8.28871 13.8251L4.30585 15.9185C4.2055 15.9712 4.09242 15.9947 3.97939 15.9864C3.86637 15.9781 3.75792 15.9384 3.66632 15.8717C3.57471 15.8049 3.50361 15.7139 3.46105 15.6089C3.41848 15.5039 3.40617 15.389 3.42549 15.2774L4.18685 10.8452C4.20355 10.7481 4.19635 10.6484 4.16589 10.5546C4.13542 10.4609 4.0826 10.376 4.01199 10.3073L0.789277 7.16715C0.7081 7.08808 0.650668 6.98788 0.623479 6.87788C0.596291 6.76787 0.600429 6.65245 0.635428 6.54468C0.670426 6.4369 0.734888 6.34107 0.821519 6.26803C0.90815 6.19499 1.01349 6.14764 1.12563 6.13136L5.57721 5.48415C5.67467 5.47015 5.76727 5.43267 5.84703 5.37491C5.92678 5.31716 5.99129 5.24088 6.03499 5.15265L8.02642 1.11879C8.07665 1.01744 8.1542 0.93213 8.25031 0.87249C8.34643 0.812851 8.4573 0.78125 8.57042 0.78125C8.68354 0.78125 8.79441 0.812851 8.89052 0.87249C8.98664 0.93213 9.06419 1.01744 9.11442 1.11879L11.1071 5.15143C11.1507 5.23951 11.215 5.3157 11.2945 5.37344C11.374 5.43118 11.4664 5.46875 11.5636 5.48293L16.0152 6.13015C16.1273 6.14643 16.2327 6.19377 16.3193 6.26682C16.406 6.33986 16.4704 6.43569 16.5054 6.54346C16.5404 6.65124 16.5445 6.76666 16.5174 6.87666C16.4902 6.98667 16.4327 7.08687 16.3516 7.16593L13.1301 10.3061C13.0596 10.3747 13.0069 10.4594 12.9765 10.5529C12.946 10.6464 12.9387 10.7459 12.9552 10.8428L13.7166 15.2761C13.736 15.388 13.7238 15.503 13.6812 15.6082C13.6386 15.7135 13.5673 15.8046 13.4755 15.8714C13.3837 15.9382 13.2751 15.9778 13.1618 15.986C13.0486 15.9941 12.9354 15.9703 12.835 15.9173L8.85335 13.8239C8.76627 13.7781 8.66938 13.7542 8.57103 13.7542C8.47267 13.7542 8.37578 13.7781 8.28871 13.8239V13.8251Z" fill="#FCBF02"/>
</svg>
