<svg width="17" height="16" viewBox="0 0 17 16" fill="none" xmlns="http://www.w3.org/2000/svg">
<path d="M8.47874 13.8251L4.49588 15.9185C4.39553 15.9712 4.28245 15.9947 4.16943 15.9864C4.05641 15.9781 3.94796 15.9384 3.85635 15.8717C3.76474 15.8049 3.69364 15.7139 3.65108 15.6089C3.60852 15.5039 3.5962 15.389 3.61552 15.2774L4.37688 10.8452C4.39358 10.7481 4.38639 10.6484 4.35592 10.5546C4.32546 10.4609 4.27264 10.376 4.20202 10.3073L0.979309 7.16715C0.898133 7.08808 0.840701 6.98788 0.813512 6.87788C0.786324 6.76787 0.790462 6.65245 0.825461 6.54468C0.860459 6.4369 0.924921 6.34107 1.01155 6.26803C1.09818 6.19499 1.20353 6.14764 1.31567 6.13136L5.76724 5.48415C5.8647 5.47015 5.95731 5.43267 6.03706 5.37491C6.11681 5.31716 6.18132 5.24088 6.22502 5.15265L8.21645 1.11879C8.26668 1.01744 8.34423 0.93213 8.44035 0.87249C8.53647 0.812851 8.64733 0.78125 8.76045 0.78125C8.87357 0.78125 8.98444 0.812851 9.08056 0.87249C9.17668 0.93213 9.25422 1.01744 9.30445 1.11879L11.2971 5.15143C11.3407 5.23951 11.405 5.3157 11.4845 5.37344C11.5641 5.43118 11.6564 5.46875 11.7537 5.48293L16.2052 6.13015C16.3174 6.14643 16.4227 6.19377 16.5094 6.26682C16.596 6.33986 16.6604 6.43569 16.6954 6.54346C16.7304 6.65124 16.7346 6.76666 16.7074 6.87666C16.6802 6.98667 16.6228 7.08687 16.5416 7.16593L13.3201 10.3061C13.2497 10.3747 13.197 10.4594 13.1665 10.5529C13.136 10.6464 13.1287 10.7459 13.1452 10.8428L13.9066 15.2761C13.9261 15.388 13.9138 15.503 13.8712 15.6082C13.8286 15.7135 13.7574 15.8046 13.6656 15.8714C13.5738 15.9382 13.4651 15.9778 13.3519 15.986C13.2386 15.9941 13.1254 15.9703 13.025 15.9173L9.04338 13.8239C8.9563 13.7781 8.85942 13.7542 8.76106 13.7542C8.6627 13.7542 8.56582 13.7781 8.47874 13.8239V13.8251Z" fill="#FCBF02"/>
</svg>
