<svg width="17" height="16" viewBox="0 0 17 16" fill="none" xmlns="http://www.w3.org/2000/svg">
<path d="M8.47872 13.8251L4.49586 15.9185C4.39551 15.9712 4.28243 15.9947 4.1694 15.9864C4.05638 15.9781 3.94793 15.9384 3.85633 15.8717C3.76472 15.8049 3.69362 15.7139 3.65106 15.6089C3.60849 15.5039 3.59618 15.389 3.6155 15.2774L4.37686 10.8452C4.39356 10.7481 4.38636 10.6484 4.3559 10.5546C4.32543 10.4609 4.27261 10.376 4.202 10.3073L0.979287 7.16715C0.89811 7.08808 0.840678 6.98788 0.813489 6.87788C0.786301 6.76787 0.79044 6.65245 0.825438 6.54468C0.860437 6.4369 0.924898 6.34107 1.01153 6.26803C1.09816 6.19499 1.2035 6.14764 1.31564 6.13136L5.76722 5.48415C5.86468 5.47015 5.95728 5.43267 6.03704 5.37491C6.11679 5.31716 6.1813 5.24088 6.225 5.15265L8.21643 1.11879C8.26666 1.01744 8.34421 0.93213 8.44032 0.87249C8.53644 0.812851 8.64731 0.78125 8.76043 0.78125C8.87355 0.78125 8.98442 0.812851 9.08053 0.87249C9.17665 0.93213 9.2542 1.01744 9.30443 1.11879L11.2971 5.15143C11.3407 5.23951 11.405 5.3157 11.4845 5.37344C11.564 5.43118 11.6564 5.46875 11.7536 5.48293L16.2052 6.13015C16.3174 6.14643 16.4227 6.19377 16.5093 6.26682C16.596 6.33986 16.6604 6.43569 16.6954 6.54346C16.7304 6.65124 16.7346 6.76666 16.7074 6.87666C16.6802 6.98667 16.6227 7.08687 16.5416 7.16593L13.3201 10.3061C13.2496 10.3747 13.1969 10.4594 13.1665 10.5529C13.136 10.6464 13.1287 10.7459 13.1452 10.8428L13.9066 15.2761C13.9261 15.388 13.9138 15.503 13.8712 15.6082C13.8286 15.7135 13.7573 15.8046 13.6655 15.8714C13.5737 15.9382 13.4651 15.9778 13.3518 15.986C13.2386 15.9941 13.1254 15.9703 13.025 15.9173L9.04336 13.8239C8.95628 13.7781 8.85939 13.7542 8.76104 13.7542C8.66268 13.7542 8.56579 13.7781 8.47872 13.8239V13.8251Z" fill="#FCBF02"/>
</svg>
