<svg width="17" height="16" viewBox="0 0 17 16" fill="none" xmlns="http://www.w3.org/2000/svg">
<path d="M8.03871 13.8251L4.05586 15.9185C3.95551 15.9712 3.84242 15.9947 3.7294 15.9864C3.61638 15.9781 3.50793 15.9384 3.41632 15.8717C3.32472 15.8049 3.25361 15.7139 3.21105 15.6089C3.16849 15.5039 3.15618 15.389 3.1755 15.2774L3.93686 10.8452C3.95355 10.7481 3.94636 10.6484 3.9159 10.5546C3.88543 10.4609 3.83261 10.376 3.762 10.3073L0.539284 7.16715C0.458107 7.08808 0.400676 6.98788 0.373487 6.87788C0.346298 6.76787 0.350437 6.65245 0.385436 6.54468C0.420434 6.4369 0.484895 6.34107 0.571527 6.26803C0.658158 6.19499 0.763502 6.14764 0.875641 6.13136L5.32721 5.48415C5.42468 5.47015 5.51728 5.43267 5.59703 5.37491C5.67679 5.31716 5.74129 5.24088 5.785 5.15265L7.77643 1.11879C7.82666 1.01744 7.9042 0.93213 8.00032 0.87249C8.09644 0.812851 8.20731 0.78125 8.32043 0.78125C8.43354 0.78125 8.54441 0.812851 8.64053 0.87249C8.73665 0.93213 8.8142 1.01744 8.86443 1.11879L10.8571 5.15143C10.9007 5.23951 10.965 5.3157 11.0445 5.37344C11.124 5.43118 11.2164 5.46875 11.3136 5.48293L15.7652 6.13015C15.8774 6.14643 15.9827 6.19377 16.0693 6.26682C16.156 6.33986 16.2204 6.43569 16.2554 6.54346C16.2904 6.65124 16.2946 6.76666 16.2674 6.87666C16.2402 6.98667 16.1827 7.08687 16.1016 7.16593L12.8801 10.3061C12.8096 10.3747 12.7569 10.4594 12.7265 10.5529C12.696 10.6464 12.6887 10.7459 12.7052 10.8428L13.4666 15.2761C13.4861 15.388 13.4738 15.503 13.4312 15.6082C13.3886 15.7135 13.3173 15.8046 13.2255 15.8714C13.1337 15.9382 13.0251 15.9778 12.9118 15.986C12.7986 15.9941 12.6854 15.9703 12.585 15.9173L8.60336 13.8239C8.51628 13.7781 8.41939 13.7542 8.32103 13.7542C8.22268 13.7542 8.12579 13.7781 8.03871 13.8239V13.8251Z" fill="#FCBF02"/>
</svg>
