<svg width="17" height="16" viewBox="0 0 17 16" fill="none" xmlns="http://www.w3.org/2000/svg">
<path d="M8.28872 13.8251L4.30586 15.9185C4.20551 15.9712 4.09243 15.9947 3.97941 15.9864C3.86639 15.9781 3.75794 15.9384 3.66633 15.8717C3.57473 15.8049 3.50362 15.7139 3.46106 15.6089C3.4185 15.5039 3.40618 15.389 3.42551 15.2774L4.18686 10.8452C4.20356 10.7481 4.19637 10.6484 4.1659 10.5546C4.13544 10.4609 4.08262 10.376 4.01201 10.3073L0.789292 7.16715C0.708115 7.08808 0.650683 6.98788 0.623495 6.87788C0.596306 6.76787 0.600445 6.65245 0.635443 6.54468C0.670442 6.4369 0.734903 6.34107 0.821534 6.26803C0.908166 6.19499 1.01351 6.14764 1.12565 6.13136L5.57722 5.48415C5.67469 5.47015 5.76729 5.43267 5.84704 5.37491C5.92679 5.31716 5.9913 5.24088 6.03501 5.15265L8.02643 1.11879C8.07667 1.01744 8.15421 0.93213 8.25033 0.87249C8.34645 0.812851 8.45732 0.78125 8.57043 0.78125C8.68355 0.78125 8.79442 0.812851 8.89054 0.87249C8.98666 0.93213 9.0642 1.01744 9.11443 1.11879L11.1071 5.15143C11.1507 5.23951 11.215 5.3157 11.2945 5.37344C11.374 5.43118 11.4664 5.46875 11.5636 5.48293L16.0152 6.13015C16.1274 6.14643 16.2327 6.19377 16.3193 6.26682C16.406 6.33986 16.4704 6.43569 16.5054 6.54346C16.5404 6.65124 16.5446 6.76666 16.5174 6.87666C16.4902 6.98667 16.4328 7.08687 16.3516 7.16593L13.1301 10.3061C13.0596 10.3747 13.0069 10.4594 12.9765 10.5529C12.946 10.6464 12.9387 10.7459 12.9552 10.8428L13.7166 15.2761C13.7361 15.388 13.7238 15.503 13.6812 15.6082C13.6386 15.7135 13.5674 15.8046 13.4756 15.8714C13.3837 15.9382 13.2751 15.9778 13.1618 15.986C13.0486 15.9941 12.9354 15.9703 12.835 15.9173L8.85336 13.8239C8.76629 13.7781 8.6694 13.7542 8.57104 13.7542C8.47268 13.7542 8.3758 13.7781 8.28872 13.8239V13.8251Z" fill="#FCBF02"/>
</svg>
