<svg width="17" height="16" viewBox="0 0 17 16" fill="none" xmlns="http://www.w3.org/2000/svg">
<path d="M8.28874 13.8251L4.30588 15.9185C4.20553 15.9712 4.09245 15.9947 3.97942 15.9864C3.8664 15.9781 3.75795 15.9384 3.66635 15.8717C3.57474 15.8049 3.50364 15.7139 3.46108 15.6089C3.41852 15.5039 3.4062 15.389 3.42552 15.2774L4.18688 10.8452C4.20358 10.7481 4.19638 10.6484 4.16592 10.5546C4.13546 10.4609 4.08264 10.376 4.01202 10.3073L0.789307 7.16715C0.70813 7.08808 0.650699 6.98788 0.62351 6.87788C0.596321 6.76787 0.60046 6.65245 0.635459 6.54468C0.670457 6.4369 0.734918 6.34107 0.82155 6.26803C0.908181 6.19499 1.01353 6.14764 1.12566 6.13136L5.57724 5.48415C5.6747 5.47015 5.7673 5.43267 5.84706 5.37491C5.92681 5.31716 5.99132 5.24088 6.03502 5.15265L8.02645 1.11879C8.07668 1.01744 8.15423 0.93213 8.25035 0.87249C8.34646 0.812851 8.45733 0.78125 8.57045 0.78125C8.68357 0.78125 8.79444 0.812851 8.89055 0.87249C8.98667 0.93213 9.06422 1.01744 9.11445 1.11879L11.1071 5.15143C11.1507 5.23951 11.215 5.3157 11.2945 5.37344C11.3741 5.43118 11.4664 5.46875 11.5637 5.48293L16.0152 6.13015C16.1274 6.14643 16.2327 6.19377 16.3194 6.26682C16.406 6.33986 16.4704 6.43569 16.5054 6.54346C16.5404 6.65124 16.5446 6.76666 16.5174 6.87666C16.4902 6.98667 16.4328 7.08687 16.3516 7.16593L13.1301 10.3061C13.0597 10.3747 13.007 10.4594 12.9765 10.5529C12.946 10.6464 12.9387 10.7459 12.9552 10.8428L13.7166 15.2761C13.7361 15.388 13.7238 15.503 13.6812 15.6082C13.6386 15.7135 13.5674 15.8046 13.4756 15.8714C13.3838 15.9382 13.2751 15.9778 13.1619 15.986C13.0486 15.9941 12.9354 15.9703 12.835 15.9173L8.85338 13.8239C8.7663 13.7781 8.66942 13.7542 8.57106 13.7542C8.4727 13.7542 8.37581 13.7781 8.28874 13.8239V13.8251Z" fill="#FCBF02"/>
</svg>
