<svg width="17" height="16" viewBox="0 0 17 16" fill="none" xmlns="http://www.w3.org/2000/svg">
<path d="M8.03871 13.8251L4.05585 15.9185C3.9555 15.9712 3.84242 15.9947 3.72939 15.9864C3.61637 15.9781 3.50792 15.9384 3.41632 15.8717C3.32471 15.8049 3.25361 15.7139 3.21105 15.6089C3.16848 15.5039 3.15617 15.389 3.17549 15.2774L3.93685 10.8452C3.95355 10.7481 3.94635 10.6484 3.91589 10.5546C3.88542 10.4609 3.8326 10.376 3.76199 10.3073L0.539277 7.16715C0.4581 7.08808 0.400668 6.98788 0.373479 6.87788C0.346291 6.76787 0.350429 6.65245 0.385428 6.54468C0.420426 6.4369 0.484888 6.34107 0.571519 6.26803C0.65815 6.19499 0.763495 6.14764 0.875634 6.13136L5.32721 5.48415C5.42467 5.47015 5.51727 5.43267 5.59703 5.37491C5.67678 5.31716 5.74129 5.24088 5.78499 5.15265L7.77642 1.11879C7.82665 1.01744 7.9042 0.93213 8.00031 0.87249C8.09643 0.812851 8.2073 0.78125 8.32042 0.78125C8.43354 0.78125 8.54441 0.812851 8.64052 0.87249C8.73664 0.93213 8.81419 1.01744 8.86442 1.11879L10.8571 5.15143C10.9007 5.23951 10.965 5.3157 11.0445 5.37344C11.124 5.43118 11.2164 5.46875 11.3136 5.48293L15.7652 6.13015C15.8773 6.14643 15.9827 6.19377 16.0693 6.26682C16.156 6.33986 16.2204 6.43569 16.2554 6.54346C16.2904 6.65124 16.2945 6.76666 16.2674 6.87666C16.2402 6.98667 16.1827 7.08687 16.1016 7.16593L12.8801 10.3061C12.8096 10.3747 12.7569 10.4594 12.7265 10.5529C12.696 10.6464 12.6887 10.7459 12.7052 10.8428L13.4666 15.2761C13.486 15.388 13.4738 15.503 13.4312 15.6082C13.3886 15.7135 13.3173 15.8046 13.2255 15.8714C13.1337 15.9382 13.0251 15.9778 12.9118 15.986C12.7986 15.9941 12.6854 15.9703 12.585 15.9173L8.60335 13.8239C8.51627 13.7781 8.41938 13.7542 8.32103 13.7542C8.22267 13.7542 8.12578 13.7781 8.03871 13.8239V13.8251Z" fill="#FCBF02"/>
</svg>
