<svg width="20" height="19" viewBox="0 0 20 19" fill="none" xmlns="http://www.w3.org/2000/svg">
<path d="M9.77145 16.2676L5.08573 18.7304C4.96767 18.7924 4.83463 18.82 4.70167 18.8103C4.5687 18.8005 4.44111 18.7538 4.33334 18.6753C4.22557 18.5968 4.14192 18.4897 4.09184 18.3662C4.04177 18.2426 4.02728 18.1075 4.05002 17.9761L4.94573 12.7618C4.96538 12.6476 4.95691 12.5302 4.92107 12.42C4.88523 12.3097 4.82309 12.2099 4.74002 12.129L0.948587 8.43469C0.853085 8.34168 0.785519 8.2238 0.753532 8.09438C0.721545 7.96496 0.726414 7.82917 0.767589 7.70238C0.808764 7.57559 0.8846 7.46284 0.98652 7.37691C1.08844 7.29098 1.21237 7.23528 1.3443 7.21612L6.58144 6.45469C6.69611 6.43823 6.80506 6.39413 6.89888 6.32619C6.99271 6.25824 7.0686 6.1685 7.12002 6.06469L9.46287 1.31898C9.52197 1.19974 9.6132 1.09938 9.72628 1.02922C9.83936 0.959053 9.96979 0.921875 10.1029 0.921875C10.236 0.921875 10.3664 0.959053 10.4795 1.02922C10.5925 1.09938 10.6838 1.19974 10.7429 1.31898L13.0872 6.06326C13.1384 6.16689 13.2141 6.25652 13.3077 6.32445C13.4012 6.39238 13.5099 6.43659 13.6243 6.45326L18.8614 7.21469C18.9934 7.23385 19.1173 7.28955 19.2192 7.37548C19.3211 7.46142 19.397 7.57416 19.4382 7.70095C19.4793 7.82775 19.4842 7.96353 19.4522 8.09295C19.4202 8.22237 19.3527 8.34025 19.2572 8.43326L15.4672 12.1276C15.3843 12.2083 15.3223 12.3079 15.2865 12.4179C15.2506 12.5279 15.242 12.6449 15.2614 12.759L16.1572 17.9747C16.1801 18.1063 16.1657 18.2416 16.1155 18.3654C16.0654 18.4892 15.9816 18.5964 15.8736 18.675C15.7656 18.7535 15.6377 18.8002 15.5045 18.8098C15.3713 18.8193 15.2381 18.7913 15.12 18.729L10.4357 16.2661C10.3333 16.2123 10.2193 16.1842 10.1036 16.1842C9.98787 16.1842 9.87389 16.2123 9.77145 16.2661V16.2676Z" fill="#FCBF02"/>
</svg>
