<svg width="17" height="16" viewBox="0 0 17 16" fill="none" xmlns="http://www.w3.org/2000/svg">
<path d="M8.66874 13.8251L4.68588 15.9185C4.58553 15.9712 4.47245 15.9947 4.35943 15.9864C4.24641 15.9781 4.13796 15.9384 4.04635 15.8717C3.95475 15.8049 3.88364 15.7139 3.84108 15.6089C3.79852 15.5039 3.7862 15.389 3.80553 15.2774L4.56688 10.8452C4.58358 10.7481 4.57639 10.6484 4.54592 10.5546C4.51546 10.4609 4.46264 10.376 4.39203 10.3073L1.16931 7.16715C1.08814 7.08808 1.0307 6.98788 1.00351 6.87788C0.976326 6.76787 0.980465 6.65245 1.01546 6.54468C1.05046 6.4369 1.11492 6.34107 1.20155 6.26803C1.28819 6.19499 1.39353 6.14764 1.50567 6.13136L5.95724 5.48415C6.05471 5.47015 6.14731 5.43267 6.22706 5.37491C6.30681 5.31716 6.37132 5.24088 6.41503 5.15265L8.40646 1.11879C8.45669 1.01744 8.53423 0.93213 8.63035 0.87249C8.72647 0.812851 8.83734 0.78125 8.95045 0.78125C9.06357 0.78125 9.17444 0.812851 9.27056 0.87249C9.36668 0.93213 9.44422 1.01744 9.49445 1.11879L11.4871 5.15143C11.5307 5.23951 11.595 5.3157 11.6745 5.37344C11.7541 5.43118 11.8464 5.46875 11.9437 5.48293L16.3952 6.13015C16.5074 6.14643 16.6127 6.19377 16.6994 6.26682C16.786 6.33986 16.8504 6.43569 16.8854 6.54346C16.9204 6.65124 16.9246 6.76666 16.8974 6.87666C16.8702 6.98667 16.8128 7.08687 16.7316 7.16593L13.5101 10.3061C13.4397 10.3747 13.387 10.4594 13.3565 10.5529C13.326 10.6464 13.3187 10.7459 13.3352 10.8428L14.0966 15.2761C14.1161 15.388 14.1038 15.503 14.0612 15.6082C14.0186 15.7135 13.9474 15.8046 13.8556 15.8714C13.7638 15.9382 13.6551 15.9778 13.5419 15.986C13.4286 15.9941 13.3154 15.9703 13.215 15.9173L9.23338 13.8239C9.14631 13.7781 9.04942 13.7542 8.95106 13.7542C8.8527 13.7542 8.75582 13.7781 8.66874 13.8239V13.8251Z" fill="#FCBF02"/>
</svg>
