<svg width="17" height="16" viewBox="0 0 17 16" fill="none" xmlns="http://www.w3.org/2000/svg">
<path d="M8.66871 13.8251L4.68585 15.9185C4.5855 15.9712 4.47242 15.9947 4.3594 15.9864C4.24638 15.9781 4.13793 15.9384 4.04632 15.8717C3.95472 15.8049 3.88361 15.7139 3.84105 15.6089C3.79849 15.5039 3.78617 15.389 3.8055 15.2774L4.56685 10.8452C4.58355 10.7481 4.57636 10.6484 4.54589 10.5546C4.51543 10.4609 4.46261 10.376 4.392 10.3073L1.16928 7.16715C1.0881 7.08808 1.03067 6.98788 1.00348 6.87788C0.976295 6.76787 0.980434 6.65245 1.01543 6.54468C1.05043 6.4369 1.11489 6.34107 1.20152 6.26803C1.28816 6.19499 1.3935 6.14764 1.50564 6.13136L5.95721 5.48415C6.05468 5.47015 6.14728 5.43267 6.22703 5.37491C6.30678 5.31716 6.37129 5.24088 6.415 5.15265L8.40642 1.11879C8.45665 1.01744 8.5342 0.93213 8.63032 0.87249C8.72644 0.812851 8.83731 0.78125 8.95042 0.78125C9.06354 0.78125 9.17441 0.812851 9.27053 0.87249C9.36665 0.93213 9.44419 1.01744 9.49442 1.11879L11.4871 5.15143C11.5307 5.23951 11.595 5.3157 11.6745 5.37344C11.754 5.43118 11.8464 5.46875 11.9436 5.48293L16.3952 6.13015C16.5074 6.14643 16.6127 6.19377 16.6993 6.26682C16.786 6.33986 16.8504 6.43569 16.8854 6.54346C16.9204 6.65124 16.9246 6.76666 16.8974 6.87666C16.8702 6.98667 16.8127 7.08687 16.7316 7.16593L13.5101 10.3061C13.4396 10.3747 13.3869 10.4594 13.3565 10.5529C13.326 10.6464 13.3187 10.7459 13.3352 10.8428L14.0966 15.2761C14.1161 15.388 14.1038 15.503 14.0612 15.6082C14.0186 15.7135 13.9473 15.8046 13.8555 15.8714C13.7637 15.9382 13.6551 15.9778 13.5418 15.986C13.4286 15.9941 13.3154 15.9703 13.215 15.9173L9.23335 13.8239C9.14628 13.7781 9.04939 13.7542 8.95103 13.7542C8.85267 13.7542 8.75579 13.7781 8.66871 13.8239V13.8251Z" fill="#FCBF02"/>
</svg>
