<svg width="17" height="25" viewBox="0 0 17 25" fill="none" xmlns="http://www.w3.org/2000/svg">
<path fill-rule="evenodd" clip-rule="evenodd" d="M9.79568 0.122207C10.3853 0.277465 10.3862 0.278209 10.5409 0.742217C10.6286 1.00479 10.6975 1.49965 10.6999 1.8804C10.7037 2.54055 10.7085 2.55402 10.9369 2.55402C11.3046 2.55402 11.5202 2.72201 11.6985 3.14783C11.9857 3.83325 13.5191 8.57581 13.5191 8.77855C13.5191 8.88524 13.4349 9.14121 13.332 9.34734C13.1483 9.71589 12.7418 9.98524 12.3641 9.98847C12.0105 9.99161 11.9702 10.1156 12.1817 10.5486C12.3461 10.8852 12.3795 11.093 12.3605 11.6595C12.3478 12.0427 12.3285 13.1298 12.3178 14.0752L12.2983 15.7941L12.6727 16.9556C12.8787 17.5944 13.111 18.5435 13.1891 19.0647C13.3111 19.8787 13.3766 20.0769 13.6533 20.4711C14.2922 21.381 14.2758 21.6573 13.5537 22.1467C12.5837 22.804 12.739 23.005 14.1575 22.928C14.7666 22.8949 15.267 22.8131 15.5501 22.7005C15.7931 22.6037 16.0587 22.5465 16.1404 22.5733C16.458 22.6773 16.9587 23.783 16.9678 24.4006C16.969 24.4837 16.8575 24.5981 16.7202 24.6547C16.2644 24.8424 15.268 25.0391 15.0045 24.9933C14.8618 24.9685 13.9995 24.8006 13.0884 24.6202L11.4318 24.2921L11.081 24.5295C10.7497 24.7539 10.7054 24.7607 10.2857 24.6525C10.0412 24.5894 9.47576 24.5356 9.02914 24.5329L8.21721 24.528L7.7871 23.6317C7.39043 22.8052 7.06731 22.3389 7.193 22.7743C7.47715 23.7589 7.36854 23.9899 6.37268 24.5196C5.93278 24.7536 5.53011 24.9453 5.47781 24.9456C5.42559 24.9459 5.03736 24.8004 4.61508 24.6223C4.19289 24.4444 3.52641 24.2272 3.1341 24.1398C2.74169 24.0525 2.40042 23.927 2.37563 23.861C2.29935 23.6576 2.68848 22.506 2.99197 22.0373C3.15008 21.793 3.26278 21.576 3.24244 21.5552C3.15253 21.4631 2.30361 22.7931 1.93855 23.5978C1.4931 24.5798 1.50546 24.5723 0.708208 24.3342C-0.0804133 24.0986 -0.0789618 24.1029 0.20828 22.8593C0.376376 22.1313 0.526672 21.6983 0.672881 21.5206C0.996628 21.1268 2.23805 20.2773 2.37164 20.3581C2.43411 20.3957 2.65997 20.5714 2.87347 20.7484C3.08706 20.9252 3.27768 21.0535 3.29702 21.0336C3.31645 21.0136 3.15199 20.621 2.93168 20.161C2.71136 19.7011 2.53101 19.2761 2.53083 19.2166C2.53074 19.157 2.73625 18.9408 2.98762 18.7361C3.41208 18.3903 3.4653 18.371 3.73683 18.4656C4.12723 18.6015 4.68401 18.599 4.81914 18.4607C4.94573 18.3312 4.84593 17.8285 3.93317 13.9988C3.18895 10.876 2.55826 8.70024 2.31868 8.42903C2.17639 8.2679 2.1189 8.03775 2.07494 7.45343C2.04325 7.03281 1.9202 6.3642 1.80142 5.96756C1.60208 5.30183 1.5969 5.23494 1.73322 5.09538C1.98504 4.83773 2.1436 5.01985 2.39143 5.85095C2.63753 6.67658 2.8593 7.01385 3.15589 7.01385C3.25007 7.01385 3.39401 7.11838 3.47583 7.24614C3.64729 7.51381 3.81919 7.54178 3.9911 7.32994C4.09018 7.20767 4.22549 7.19234 4.75511 7.24307L5.39862 7.30477L5.80364 6.90189C6.4644 6.24444 7.00138 5.53115 6.94617 5.38406C6.9161 5.30388 6.77371 5.24794 6.59735 5.2471C6.21348 5.24525 6.10142 5.16683 6.02251 4.84517C5.98709 4.70106 5.90218 4.56113 5.83361 4.53419C5.76514 4.50734 5.70911 4.40383 5.70911 4.30432C5.70911 4.06349 5.35548 3.27856 5.19175 3.1561C5.00158 3.01385 5.32351 2.62891 5.84051 2.38027C6.30076 2.15886 6.57356 1.73667 6.48619 1.38072C6.36932 0.904258 6.59563 0.755318 8.16108 0.277651C8.5856 0.14813 8.99431 0.0252062 9.06922 0.00448657C9.14414 -0.0162331 9.47108 0.0368203 9.79568 0.122207ZM3.71439 10.793C3.97185 11.8061 4.29978 13.0114 4.44317 13.4713C4.71334 14.3373 5.43313 17.2677 5.43603 17.5131C5.43694 17.5897 5.48244 17.8173 5.5372 18.019C5.61893 18.3203 5.65198 18.3575 5.72282 18.228C5.77014 18.1414 5.88565 18.0705 5.97946 18.0705C6.19741 18.0705 6.4526 17.7375 6.65938 17.1835C6.85744 16.6531 6.86525 16.6735 5.77041 14.8723C4.88398 13.414 4.72206 12.9618 4.91613 12.4865C5.03019 12.2071 5.1892 12.0958 6.19142 11.5935C6.82121 11.2777 7.54235 10.9445 7.79418 10.8531C8.04591 10.7616 8.25189 10.6626 8.25189 10.633C8.25189 10.6035 8.07824 10.2289 7.86592 9.80056C7.54626 9.15565 7.43319 9.00903 7.20752 8.94685C6.83564 8.84427 5.65244 9.03 5.22526 9.25798C4.7256 9.52468 4.24156 9.42661 3.91845 8.99315C3.59389 8.55782 3.31273 8.44621 3.2745 8.73742C3.25906 8.85484 3.45703 9.77984 3.71439 10.793ZM7.79781 13.6096C7.18337 13.7926 7.18527 13.7761 7.65451 14.8791C7.89044 15.4335 8.20527 16.0443 8.35431 16.2364C8.74116 16.7354 8.90471 17.1759 8.80398 17.4472C8.70366 17.7172 8.20245 18.1634 7.99951 18.1634C7.83441 18.1634 7.25266 18.7029 7.25339 18.8552C7.25447 19.0869 7.70845 19.5021 8.16584 19.6899L8.66052 19.8929L8.70592 20.623L8.75132 21.3531L9.06922 21.4622C9.3206 21.5485 9.45672 21.6958 9.72011 22.1669C9.91503 22.5155 10.1033 22.7489 10.1742 22.7294C10.2408 22.7112 10.452 22.6739 10.6437 22.6465C10.8944 22.6106 11.0194 22.5351 11.0898 22.3771C11.1509 22.2398 11.3131 22.1231 11.5233 22.0652C11.8317 21.9802 11.8708 21.9303 12.0033 21.4539C12.1422 20.9548 12.1394 20.9026 11.9304 20.0835C11.6979 19.1732 11.0407 17.4917 10.6176 16.7256C10.4758 16.4688 10.3301 16.1123 10.294 15.9335C10.1882 15.411 9.53181 13.8644 9.31422 13.6251C9.13624 13.4292 9.06052 13.4113 8.61511 13.4601C8.34043 13.4902 7.97263 13.5574 7.79781 13.6096Z" fill="#C6C6C6"/>
</svg>
