<svg width="17" height="16" viewBox="0 0 17 16" fill="none" xmlns="http://www.w3.org/2000/svg">
<path d="M7.8487 13.8251L3.86585 15.9185C3.7655 15.9712 3.65241 15.9947 3.53939 15.9864C3.42637 15.9781 3.31792 15.9384 3.22631 15.8717C3.13471 15.8049 3.0636 15.7139 3.02104 15.6089C2.97848 15.5039 2.96617 15.389 2.98549 15.2774L3.74685 10.8452C3.76354 10.7481 3.75635 10.6484 3.72589 10.5546C3.69542 10.4609 3.6426 10.376 3.57199 10.3073L0.349274 7.16715C0.268097 7.08808 0.210666 6.98788 0.183477 6.87788C0.156288 6.76787 0.160427 6.65245 0.195426 6.54468C0.230424 6.4369 0.294885 6.34107 0.381517 6.26803C0.468148 6.19499 0.573492 6.14764 0.685631 6.13136L5.1372 5.48415C5.23467 5.47015 5.32727 5.43267 5.40702 5.37491C5.48678 5.31716 5.55128 5.24088 5.59499 5.15265L7.58642 1.11879C7.63665 1.01744 7.71419 0.93213 7.81031 0.87249C7.90643 0.812851 8.0173 0.78125 8.13042 0.78125C8.24353 0.78125 8.3544 0.812851 8.45052 0.87249C8.54664 0.93213 8.62419 1.01744 8.67442 1.11879L10.6671 5.15143C10.7107 5.23951 10.775 5.3157 10.8545 5.37344C10.934 5.43118 11.0264 5.46875 11.1236 5.48293L15.5752 6.13015C15.6873 6.14643 15.7927 6.19377 15.8793 6.26682C15.9659 6.33986 16.0304 6.43569 16.0654 6.54346C16.1004 6.65124 16.1045 6.76666 16.0774 6.87666C16.0502 6.98667 15.9927 7.08687 15.9116 7.16593L12.6901 10.3061C12.6196 10.3747 12.5669 10.4594 12.5365 10.5529C12.506 10.6464 12.4987 10.7459 12.5152 10.8428L13.2766 15.2761C13.296 15.388 13.2838 15.503 13.2412 15.6082C13.1986 15.7135 13.1273 15.8046 13.0355 15.8714C12.9437 15.9382 12.8351 15.9778 12.7218 15.986C12.6086 15.9941 12.4954 15.9703 12.395 15.9173L8.41335 13.8239C8.32627 13.7781 8.22938 13.7542 8.13102 13.7542C8.03267 13.7542 7.93578 13.7781 7.8487 13.8239V13.8251Z" fill="#FCBF02"/>
</svg>
