<?xml version="1.0" encoding="UTF-8"?>
<svg width="120px" height="24px" viewBox="0 0 120 24" version="1.1" xmlns="http://www.w3.org/2000/svg" xmlns:xlink="http://www.w3.org/1999/xlink">
    <title>SVG Layer</title>
    <g id="Phase-5:-Dyamic-Engine" stroke="none" stroke-width="1" fill="none" fill-rule="evenodd">
        <g id="DWT---Home---4.1" transform="translate(-1023.000000, -1727.000000)" fill="#1F57AA" fill-rule="nonzero">
            <g id="Group-16" transform="translate(398.000000, 1697.000000)">
                <g id="Group-15-Copy-3" transform="translate(600.000000, 0.000000)">
                    <g id="SVG-Layer" transform="translate(25.000000, 30.000000)">
                        <path d="M9.38900005,3.63824148 C7.97618467,3.63824148 7.56771265,4.26485804 7.56771265,5.64692822 L7.56771265,7.93964209 L11.3361964,7.93964209 L10.9584696,11.6437073 L7.56917671,11.6437073 L7.56917671,22.8847399 L3.04670343,22.8847399 L3.04670343,11.6437073 L0,11.6437073 L0,7.93964209 L3.04670343,7.93964209 L3.04670343,5.70988269 C3.04670343,1.97360823 4.55321849,0 8.75652726,0 C9.63734851,-0.0020070528 10.5174571,0.050310516 11.3918306,0.156713003 L11.3918306,3.64263365 L9.38900005,3.63824148 Z" id="Path"></path>
                        <path d="M11.6495047,14.9407645 C11.6495047,10.7652729 13.6274462,7.62047758 17.7721927,7.62047758 C20.0326973,7.62047758 21.4133034,8.78293915 22.0735933,10.2264997 L22.0735933,7.93964209 L26.4057391,7.93964209 L26.4057391,22.8847399 L22.0735933,22.8847399 L22.0735933,20.6242353 C21.4455127,22.06926 20.0326973,23.1995123 17.7721927,23.1995123 C13.6274462,23.1995123 11.6495047,20.0591092 11.6495047,15.8792253 L11.6495047,14.9407645 Z M16.1705139,15.946572 C16.1705139,18.1748673 16.9859939,19.6506372 19.0898443,19.6506372 C20.943341,19.6506372 21.8847299,18.3007762 21.8847299,16.1661806 L21.8847299,14.6655217 C21.8847299,12.5309261 20.943341,11.1810652 19.0898443,11.1810652 C16.9859939,11.1810652 16.1705139,12.656835 16.1705139,14.8851304 L16.1705139,15.946572 Z" id="Shape"></path>
                        <path d="M35.8254844,7.62486975 C37.5823532,7.62486975 39.2469865,8.00259656 40.1576302,8.62921312 L39.1532868,11.8325707 C38.2112742,11.3839946 37.182136,11.1480775 36.1387926,11.1415356 C33.6894246,11.1415356 32.6250549,12.554351 32.6250549,14.9729738 L32.6250549,15.8514082 C32.6250549,18.270031 33.6923527,19.6828464 36.1387926,19.6828464 C37.182136,19.6763045 38.2112742,19.4403875 39.1532868,18.9918113 L40.1576302,22.1937049 C39.2469865,22.8217855 37.5838173,23.1995123 35.8254844,23.1995123 C30.5182763,23.1995123 28.1011176,20.3416723 28.1011176,15.7577086 L28.1011176,15.0666735 C28.1011176,10.4827098 30.5182763,7.62486975 35.8254844,7.62486975 Z" id="Path"></path>
                        <path d="M40.7535015,15.9831734 L40.7535015,14.6655217 C40.7535015,10.4270756 43.1706603,7.63804627 48.1016056,7.63804627 C52.7485237,7.63804627 54.7894197,10.463677 54.7894197,14.6084235 L54.7894197,16.9948371 L45.2730467,16.9948371 C45.3682104,19.0357331 46.2788541,19.9463768 48.7867844,19.9463768 C50.483627,19.9463768 52.2727051,19.6008592 53.5918208,19.0357331 L54.4190132,22.1322144 C53.2258065,22.7617591 50.7764384,23.2317215 48.6110976,23.2317215 C42.8880972,23.2302575 40.7535015,20.3753456 40.7535015,15.9831734 Z M45.2745108,14.0359771 L50.7383729,14.0359771 L50.7383729,13.6597143 C50.7383729,12.0272903 50.0795471,10.7315995 48.1030696,10.7315995 C46.0607096,10.7330636 45.2745108,12.0214341 45.2745108,14.0301208 L45.2745108,14.0359771 Z" id="Shape"></path>
                        <path d="M71.5484847,15.8836175 C71.5484847,20.0591092 69.539798,23.2039045 65.3994437,23.2039045 C63.138939,23.2039045 61.5694695,22.0736521 60.9413889,20.6286275 L60.9413889,22.8891321 L56.6721976,22.8891321 L56.6721976,0.434883907 L61.1932068,0.0249478375 L61.1932068,10.0098192 C61.8520326,8.69216759 63.2970572,7.6234057 65.4009077,7.6234057 C69.5456542,7.6234057 71.5499488,10.7638088 71.5499488,14.9436927 L71.5484847,15.8836175 Z M67.0274755,14.8470649 C67.0274755,12.7432144 66.2119955,11.1737449 64.0451906,11.1737449 C62.1916939,11.1737449 61.1873505,12.4913965 61.1873505,14.6274563 L61.1873505,16.1969258 C61.1873505,18.3315215 62.1916939,19.6506372 64.0451906,19.6506372 C66.2119955,19.6506372 67.0274755,18.0811676 67.0274755,15.9773172 L67.0274755,14.8470649 Z" id="Shape"></path>
                        <path d="M73.060856,15.7884538 L73.060856,15.0359283 C73.060856,10.7330636 75.510224,7.62486975 80.5026597,7.62486975 C85.4950954,7.62486975 87.9459275,10.7330636 87.9459275,15.0359283 L87.9459275,15.7884538 C87.9459275,20.0898544 85.4965595,23.1995123 80.5041238,23.1995123 C75.5116881,23.1995123 73.060856,20.0898544 73.060856,15.7884538 Z M83.4234542,14.7211559 C83.4234542,12.7432144 82.6065102,11.1737449 80.4953394,11.1737449 C78.3841687,11.1737449 77.5745449,12.7432144 77.5745449,14.7211559 L77.5745449,16.1032261 C77.5745449,18.0811676 78.3914889,19.6506372 80.4953394,19.6506372 C82.5991899,19.6506372 83.4234542,18.0811676 83.4234542,16.1032261 L83.4234542,14.7211559 Z" id="Shape"></path>
                        <path d="M89.4495144,15.7884538 L89.4495144,15.0359283 C89.4495144,10.7330636 91.8988824,7.62486975 96.8913181,7.62486975 C101.883754,7.62486975 104.333122,10.7330636 104.333122,15.0359283 L104.333122,15.7884538 C104.333122,20.0898544 101.883754,23.1995123 96.8913181,23.1995123 C91.8988824,23.1995123 89.4495144,20.0898544 89.4495144,15.7884538 Z M99.8121126,14.7211559 C99.8121126,12.7432144 98.9951686,11.1737449 96.8913181,11.1737449 C94.7874677,11.1737449 93.9719877,12.7432144 93.9719877,14.7211559 L93.9719877,16.1032261 C93.9719877,18.0811676 94.7874677,19.6506372 96.8913181,19.6506372 C98.9951686,19.6506372 99.8121126,18.0811676 99.8121126,16.1032261 L99.8121126,14.7211559 Z" id="Shape"></path>
                        <polygon id="Path" points="110.54951 15.0666735 115.007564 7.93964209 119.811137 7.93964209 115.133473 15.3184913 120 22.8847399 115.196428 22.8847399 110.54951 15.564453 110.54951 22.8847399 106.027036 22.8847399 106.027036 0.434883907 110.54951 0.0249478375"></polygon>
                    </g>
                </g>
            </g>
        </g>
    </g>
</svg>