<?xml version="1.0" encoding="UTF-8"?>
<svg width="20px" height="20px" viewBox="0 0 20 20" version="1.1" xmlns="http://www.w3.org/2000/svg" xmlns:xlink="http://www.w3.org/1999/xlink">
    <title>icons8--tKTHzO8F7kZi-100-171718</title>
    <defs>
        <rect id="path-1" x="0" y="0" width="20" height="20"></rect>
    </defs>
    <g id="Phase-5:-Dyamic-Engine" stroke="none" stroke-width="1" fill="none" fill-rule="evenodd">
        <g id="DWT---Home---4.1" transform="translate(-423.000000, -1762.000000)">
            <g id="Group-16" transform="translate(398.000000, 1697.000000)">
                <g id="icons8--tKTHzO8F7kZi-100-171718" transform="translate(25.000000, 65.000000)">
                    <mask id="mask-2" fill="white">
                        <use xlink:href="#path-1"></use>
                    </mask>
                    <g id="Rectangle"></g>
                    <g id="surface1752" mask="url(#mask-2)" fill="#F8BC06">
                        <g transform="translate(1.300318, 1.666406)" id="Path">
                            <path d="M7.61765049,0.6507814 C7.83015049,0.2507814 8.24655669,0 8.69968169,0 C9.15280669,0 9.56921289,0.2507814 9.78171289,0.6507814 L11.8340567,4.521875 C11.8574941,4.5671876 11.8910879,4.6054688 11.9324941,4.6351562 C11.9731193,4.665625 12.0207755,4.6851562 12.0707755,4.69375 L16.3856193,5.4492188 C16.8324941,5.528125 17.1981193,5.8460938 17.3387441,6.2765626 C17.4785879,6.7078126 17.3699941,7.18125 17.0535879,7.5070314 L14.0074941,10.6554688 C13.9723379,10.6921876 13.9457755,10.7359376 13.9293693,10.7835938 C13.9137441,10.8320314 13.9098379,10.8828126 13.9160879,10.9335938 L14.5301505,15.2710938 C14.5942129,15.7195314 14.4043693,16.1671876 14.0379629,16.4335938 C13.6715567,16.7 13.1879629,16.7421876 12.7801505,16.5429688 L8.84577549,14.6179688 C8.80046289,14.5953126 8.75046289,14.5835938 8.69968169,14.5835938 C8.64890049,14.5835938 8.59890049,14.5953126 8.55280669,14.6171876 L4.61765049,16.5421876 C4.21061929,16.7414062 3.72702549,16.6984376 3.36061929,16.4328126 C2.99421289,16.1664062 2.80436929,15.7195314 2.86765049,15.2703126 L3.48249409,10.9328126 C3.48952549,10.8828126 3.48483789,10.83125 3.46921289,10.7828126 C3.45280669,10.734375 3.42702549,10.690625 3.39108789,10.6546876 L0.344994093,7.50625 C0.0293692926,7.1804688 -0.0800059074,6.7070314 0.0598378926,6.2757814 C0.199681693,5.8453126 0.566087893,5.5265626 1.01296289,5.4484376 L5.32780669,4.6929688 C5.37780669,4.6835938 5.42546289,4.6632814 5.46608789,4.634375 C5.50749409,4.6046876 5.54108789,4.5664062 5.56452549,4.5210938 L7.61765049,0.6507814 Z"></path>
                        </g>
                    </g>
                </g>
            </g>
        </g>
    </g>
</svg>