<?xml version="1.0" encoding="UTF-8"?>
<svg width="151px" height="32px" viewBox="0 0 151 32" version="1.1" xmlns="http://www.w3.org/2000/svg" xmlns:xlink="http://www.w3.org/1999/xlink">
    <title>Tripadvisor_lockup_horizontal_secondary_registered</title>
    <g id="Phase-5:-Dyamic-Engine" stroke="none" stroke-width="1" fill="none" fill-rule="evenodd">
        <g id="DWT---Home---4.1" transform="translate(-123.000000, -1727.000000)" fill-rule="nonzero">
            <g id="Group-15" transform="translate(98.000000, 1697.000000)">
                <g id="Tripadvisor_lockup_horizontal_secondary_registered" transform="translate(25.000000, 30.000000)">
                    <path d="M149.584895,21.3828024 C149.11828,21.3828024 148.739301,21.7617814 148.739301,22.2283965 C148.739301,22.6950116 149.118235,23.0739906 149.584895,23.0739906 C150.05142,23.0739906 150.430489,22.6950116 150.430489,22.2283965 C150.430444,21.7617814 150.05142,21.3828024 149.584895,21.3828024 Z M149.584895,22.9398903 C149.191564,22.9398903 148.873356,22.6198437 148.873356,22.2283965 C148.873356,21.8350656 149.193358,21.5169027 149.584895,21.5169027 C149.978226,21.5169027 150.298182,21.8369045 150.298182,22.2283965 C150.298182,22.6198885 149.978181,22.9398903 149.584895,22.9398903 Z M149.860181,22.0835772 C149.860181,21.9298328 149.751107,21.8386536 149.590187,21.8386536 L149.320192,21.8386536 L149.320192,22.6091695 L149.452454,22.6091695 L149.452454,22.3302948 L149.597273,22.3302948 L149.736711,22.6091695 L149.879736,22.6091695 L149.725991,22.3017256 C149.808335,22.2641416 149.860181,22.1890186 149.860181,22.0835772 Z M149.584895,22.2105015 L149.454382,22.2105015 L149.454382,21.9549037 L149.584895,21.9549037 C149.674235,21.9549037 149.727875,21.9995739 149.727875,22.0818281 C149.72783,22.1658313 149.672486,22.2105015 149.584895,22.2105015 Z M47.6978483,12.8250081 L47.6978483,10.779867 L44.5622344,10.779867 L44.5622344,22.9470214 L47.6978483,22.9470214 L47.6978483,15.651429 C47.6978483,14.3302948 48.5452364,13.6813213 49.8663707,13.6813213 L51.5825849,13.6813213 L51.5825849,10.779867 L50.1166313,10.779867 C48.9689304,10.779867 47.971386,11.3787435 47.6978483,12.8250081 Z M54.5197843,5.96737193 C53.4471616,5.96737193 52.6247996,6.81476 52.6247996,7.88738269 C52.6247996,8.93497931 53.4471616,9.78236739 54.5197843,9.78236739 C55.592407,9.78236739 56.414769,8.93497931 56.414769,7.88738269 C56.4147241,6.81471515 55.592407,5.96737193 54.5197843,5.96737193 Z M52.9555204,22.9470663 L56.0840481,22.9470663 L56.0840481,10.779867 L52.9555204,10.779867 L52.9555204,22.9470663 Z M70.9863545,16.8634442 C70.9863545,20.3369549 68.1707424,23.1526568 64.6971868,23.1526568 C63.2955924,23.1526568 62.0245551,22.6932176 61.0055277,21.9173198 L61.0055277,26.5189321 L57.8770449,26.5189321 L57.8770449,10.779867 L61.0055277,10.779867 L61.0055277,11.8095687 C62.0245551,11.0337157 63.2955924,10.5742765 64.6971868,10.5742765 C68.1707424,10.5742765 70.9863545,13.3899335 70.9863545,16.8634442 Z M67.8382275,16.8634442 C67.8382275,14.9774294 66.3079597,13.4471167 64.4219001,13.4471167 C62.5358404,13.4471167 61.0055726,14.9774294 61.0055726,16.8634442 C61.0055726,18.7495039 62.5358853,20.2797717 64.4219001,20.2797717 C66.3079597,20.2797717 67.8382275,18.7512978 67.8382275,16.8634442 Z M125.361364,15.7962035 L123.536121,15.2956373 C122.334825,14.9827665 121.868209,14.6145066 121.868209,13.979885 C121.868209,13.3613195 122.526063,12.9287004 123.466424,12.9287004 C124.362116,12.9287004 125.064639,13.5150639 125.064639,14.2658908 L125.064639,14.335587 L127.948244,14.335587 L127.948244,14.2658908 C127.948244,12.0580354 126.148026,10.5742317 123.466424,10.5742317 C120.811733,10.5742317 118.882752,12.0562414 118.882752,14.0995885 C118.882752,15.6888784 119.935686,16.8866315 121.773442,17.3836097 L123.521859,17.8609439 C124.850079,18.2292038 125.343514,18.6368417 125.343514,19.3680245 C125.343514,20.1385404 124.630226,20.6569567 123.568278,20.6569567 C122.461659,20.6569567 121.716214,19.9561371 121.716214,18.9157164 L121.716214,18.8459753 L118.655679,18.8459753 L118.655679,18.9157164 C118.655679,21.4113716 120.665075,23.156155 123.543342,23.156155 C126.316033,23.156155 128.329017,21.4524987 128.329017,19.1069999 C128.329017,17.955711 127.814098,16.4505141 125.361364,15.7962035 Z M82.084519,10.779867 L85.212957,10.779867 L85.212957,22.9470214 L82.084519,22.9470214 L82.084519,21.9172749 C81.0654916,22.6931728 79.7944095,23.1526119 78.3928599,23.1526119 C74.9193941,23.1526119 72.1037371,20.3369549 72.1037371,16.8633994 C72.1037371,13.3898438 74.9193941,10.5742317 78.3928599,10.5742317 C79.7944095,10.5742317 81.0655365,11.0336708 82.084519,11.8095238 L82.084519,10.779867 Z M82.084519,16.8634442 L82.084519,16.8634442 C82.084519,14.9756355 80.5542063,13.4471167 78.6681467,13.4471167 C76.7820871,13.4471167 75.2518641,14.9774294 75.2518641,16.8634442 C75.2518641,18.7495039 76.7820871,20.2797717 78.6681467,20.2797717 C80.5559555,20.2797717 82.084519,18.7512978 82.084519,16.8634442 Z M96.5095361,6.45004317 L99.6380638,6.45004317 L99.6380638,22.9488154 L96.5095361,22.9488154 L96.5095361,21.9190689 C95.4905087,22.6949668 94.2194714,23.1544059 92.8179219,23.1544059 C89.3443663,23.1544059 86.5287093,20.3387489 86.5287093,16.8651934 C86.5287093,13.3916378 89.3443215,10.5760257 92.8179219,10.5760257 C94.2194714,10.5760257 95.4905087,11.0354648 96.5095361,11.8113178 L96.5095361,6.45004317 Z M96.5095361,16.8634442 C96.5095361,14.9774294 94.9792234,13.4471167 93.0931638,13.4471167 C91.2071939,13.4471167 89.6768812,14.9774294 89.6768812,16.8634442 C89.6768812,18.7495039 91.205355,20.2797717 93.0931638,20.2797717 C94.9792234,20.2797717 96.5095361,18.7512978 96.5095361,16.8634442 Z M114.163185,22.9470663 L117.291623,22.9470663 L117.291623,10.779867 L114.163185,10.779867 L114.163185,22.9470663 Z M115.727404,5.96737193 C114.654782,5.96737193 113.83242,6.81476 113.83242,7.88738269 C113.83242,8.93497931 114.654782,9.78236739 115.727404,9.78236739 C116.800027,9.78236739 117.622389,8.93497931 117.622389,7.88738269 C117.622389,6.81471515 116.800027,5.96737193 115.727404,5.96737193 Z M141.851211,16.8634442 C141.851211,20.3369549 139.035599,23.1526568 135.561999,23.1526568 C132.088533,23.1526568 129.272876,20.3369998 129.272876,16.8634442 C129.272876,13.3898887 132.088488,10.5742765 135.561999,10.5742765 C139.035599,10.5742765 141.851211,13.3899335 141.851211,16.8634442 Z M138.978416,16.8634442 C138.978416,14.9774294 137.448103,13.4471167 135.562044,13.4471167 C133.675984,13.4471167 132.145761,14.9774294 132.145761,16.8634442 C132.145761,18.7495039 133.674235,20.2797717 135.562044,20.2797717 C137.448059,20.2797717 138.978416,18.7512978 138.978416,16.8634442 Z M46.0960454,6.45004317 L34.0951484,6.45004317 L34.0951484,9.24067409 L38.5376344,9.24067409 L38.5376344,22.9470214 L41.6553982,22.9470214 L41.6553982,9.24067409 L46.0978842,9.24067409 L46.0978842,6.45004317 L46.0960454,6.45004317 Z M106.787088,19.6147421 L104.003633,10.7799119 L100.717773,10.7799119 L104.892103,22.9470663 L108.657002,22.9470663 L112.856313,10.7799119 L109.570453,10.7799119 L106.787088,19.6147421 Z M146.434884,12.8250081 L146.434884,10.779867 L143.29927,10.779867 L143.29927,22.9470214 L146.434884,22.9470214 L146.434884,15.651429 C146.434884,14.3302948 147.282317,13.6813213 148.603361,13.6813213 L150.319576,13.6813213 L150.319576,10.779867 L148.853712,10.779867 C147.705921,10.779867 146.710216,11.3787435 146.434884,12.8250081 Z" id="Shape" fill="#000000"></path>
                    <circle id="Oval" fill="#34E0A1" cx="16" cy="16" r="16"></circle>
                    <path d="M25.8824268,12.8786482 L27.8131566,10.778073 L23.5315909,10.778073 C21.3881395,9.31391346 18.7995111,8.46118829 15.9999552,8.46118829 C13.2039423,8.46118829 10.6225347,9.3157523 8.48262639,10.778073 L4.19034164,10.778073 L6.12107146,12.8786482 C4.93762544,13.958402 4.19572359,15.5137408 4.19572359,17.2406741 C4.19572359,20.4996692 6.83799208,23.1418929 10.0969872,23.1418929 C11.6451501,23.1418929 13.0556247,22.5448103 14.1086033,21.568704 L16,23.6281521 L17.8913967,21.5704979 C18.9443753,22.5466043 20.3530559,23.1418929 21.9012188,23.1418929 C25.1602139,23.1418929 27.8060255,20.4996692 27.8060255,17.2406741 C27.8077747,15.5119468 27.0659177,13.9566529 25.8824268,12.8786482 Z M10.0987364,21.2343951 C7.89267494,21.2343951 6.1050153,19.4467355 6.1050153,17.2406741 C6.1050153,15.0346127 7.89271979,13.2469082 10.0987364,13.2469082 C12.3047529,13.2469082 14.0924574,15.0346127 14.0924574,17.2406741 C14.0924574,19.4467355 12.3047529,21.2343951 10.0987364,21.2343951 Z M16.0017491,17.1244688 C16.0017491,14.4965073 14.0907083,12.2404386 11.568233,11.2768453 C12.9322435,10.7065379 14.4285602,10.3901241 15.9999552,10.3901241 C17.5713501,10.3901241 19.0694159,10.7065379 20.4334712,11.2768453 C17.9128348,12.2422326 16.0017491,14.4965522 16.0017491,17.1244688 Z M21.9030128,21.2343951 C19.6969513,21.2343951 17.9092469,19.4467355 17.9092469,17.2406741 C17.9092469,15.0346127 19.6969513,13.2469082 21.9030128,13.2469082 C24.1090742,13.2469082 25.8967338,15.0346127 25.8967338,17.2406741 C25.8967338,19.4467355 24.1090293,21.2343951 21.9030128,21.2343951 Z M21.9030128,15.145436 C20.746342,15.145436 19.8095687,16.0822093 19.8095687,17.2388801 C19.8095687,18.3955061 20.746342,19.3322794 21.9030128,19.3322794 C23.0596387,19.3322794 23.996412,18.3955061 23.996412,17.2388801 C23.9963672,16.0840033 23.0596387,15.145436 21.9030128,15.145436 Z M12.1921356,17.2406741 C12.1921356,18.3973001 11.2553623,19.3340734 10.0987364,19.3340734 C8.9421104,19.3340734 8.0053371,18.3973001 8.0053371,17.2406741 C8.0053371,16.0840033 8.9421104,15.1472274 10.0987364,15.1472274 C11.2553623,15.145436 12.1921356,16.0840033 12.1921356,17.2406741 Z" id="Shape" fill="#000000"></path>
                </g>
            </g>
        </g>
    </g>
</svg>