<?xml version="1.0" encoding="UTF-8"?>
<svg width="123px" height="30px" viewBox="0 0 123 30" version="1.1" xmlns="http://www.w3.org/2000/svg" xmlns:xlink="http://www.w3.org/1999/xlink">
    <title>Trustpilot_brandmark_gr-blk_RGB</title>
    <g id="Phase-5:-Dyamic-Engine" stroke="none" stroke-width="1" fill="none" fill-rule="evenodd">
        <g id="DWT---Home---4.1" transform="translate(-722.000000, -1727.000000)">
            <g id="Trustpilot_brandmark_gr-blk_RGB" transform="translate(722.000000, 1727.000000)">
                <g id="Group-4">
                    <path d="M115.664469,14.8461301 L117.505086,14.8461301 L117.505086,11.5285995 L119.945224,11.5285995 L119.945224,14.8461301 L122.149219,14.8461301 L122.149219,16.6653967 L119.945224,16.6653967 L119.945224,22.5728375 C119.945224,22.8296828 119.956006,23.0510528 119.977572,23.2363005 C119.999137,23.4219796 120.048738,23.5787608 120.127452,23.7071835 C120.205088,23.8357139 120.32262,23.9318961 120.480048,23.9961613 C120.637477,24.0604266 120.850975,24.0925592 121.122701,24.0925592 C121.294146,24.0925592 121.464514,24.0891087 121.63596,24.0817764 C121.807406,24.0747676 121.978851,24.0496438 122.149219,24.0069441 L122.149219,25.890476 C121.878572,25.9188346 121.614394,25.9473011 121.357765,25.9759832 C121.101135,26.0044497 120.836958,26.0188986 120.56631,26.0188986 C119.923658,26.0188986 119.406086,25.957976 119.013593,25.8368857 C118.621101,25.7157953 118.314871,25.5372329 118.093824,25.3018453 C117.872778,25.0663499 117.722898,24.7704711 117.644183,24.4135618 C117.565469,24.0570839 117.519103,23.6503583 117.505086,23.1936008 L117.505086,16.6653967 L115.664469,16.6653967 L115.664469,14.8461301 Z M109.371653,24.2851392 C109.914025,24.2851392 110.385232,24.1710576 110.784194,23.9426789 C111.184234,23.7146236 111.51203,23.4149708 111.769738,23.0437205 C112.026367,22.6729015 112.215066,22.255501 112.335833,21.7916268 C112.457678,21.3280761 112.518061,20.853527 112.518061,20.368303 C112.518061,19.8973122 112.457678,19.4264293 112.335833,18.9555463 C112.215066,18.4847712 112.026367,18.0673707 111.769738,17.7034526 C111.51203,17.3396424 111.184234,17.0436558 110.784194,16.8151692 C110.385232,16.5871139 109.914025,16.4728167 109.371653,16.4728167 C108.82928,16.4728167 108.359152,16.5871139 107.959112,16.8151692 C107.559718,17.0436558 107.231599,17.3396424 106.974754,17.7034526 C106.717909,18.0673707 106.528671,18.4847712 106.407581,18.9555463 C106.286167,19.4264293 106.225676,19.8973122 106.225676,20.368303 C106.225676,20.853527 106.286167,21.3280761 106.407581,21.7916268 C106.528671,22.255501 106.717909,22.6729015 106.974754,23.0437205 C107.231599,23.4149708 107.559718,23.7146236 107.959112,23.9426789 C108.359152,24.1710576 108.82928,24.2851392 109.371653,24.2851392 Z M109.371653,26.2114786 C108.487467,26.2114786 107.698816,26.0650488 107.006887,25.7727283 C106.314526,25.4804077 105.729669,25.0771326 105.251777,24.5634421 C104.773454,24.0496438 104.409644,23.4363206 104.160239,22.7227178 C103.910295,22.0093307 103.785646,21.224346 103.785646,20.368303 C103.785646,19.5264932 103.910295,18.7489487 104.160239,18.035238 C104.409644,17.3219587 104.773454,16.7082042 105.251777,16.1945137 C105.729669,15.6809311 106.314526,15.2778716 107.006887,14.9852276 C107.698816,14.6930149 108.487467,14.5464773 109.371653,14.5464773 C110.256917,14.5464773 111.045137,14.6930149 111.73739,14.9852276 C112.428564,15.2778716 113.014068,15.6809311 113.491744,16.1945137 C113.970498,16.7082042 114.333877,17.3219587 114.584037,18.035238 C114.833119,18.7489487 114.958199,19.5264932 114.958199,20.368303 C114.958199,21.224346 114.833119,22.0093307 114.584037,22.7227178 C114.333877,23.4363206 113.970498,24.0496438 113.491744,24.5634421 C113.014068,25.0771326 112.428564,25.4804077 111.73739,25.7727283 C111.045137,26.0650488 110.256917,26.2114786 109.371653,26.2114786 Z M99.4620842,25.9118258 L101.902114,25.9118258 L101.902114,10.6296411 L99.4620842,10.6296411 L99.4620842,25.9118258 Z M94.8414575,25.9118258 L97.2814874,25.9118258 L97.2814874,14.8461301 L94.8414575,14.8461301 L94.8414575,25.9118258 Z M94.8414575,12.9412484 L97.2814874,12.9412484 L97.2814874,10.6296411 L94.8414575,10.6296411 L94.8414575,12.9412484 Z M90.5393535,20.3896529 C90.5393535,19.8903034 90.4751961,19.4050794 90.3466656,18.9341964 C90.2183508,18.4633135 90.025663,18.0460208 89.7688177,17.6821028 C89.5119725,17.3181848 89.1909698,17.0259721 88.8055941,16.8044943 C88.420434,16.5834478 87.9780176,16.4728167 87.4786681,16.4728167 C86.4511793,16.4728167 85.6770852,16.8296181 85.1563859,17.5428974 C84.6353631,18.2567159 84.3750674,19.2053828 84.3750674,20.3896529 C84.3750674,20.9461509 84.4425674,21.4635076 84.5784302,21.9413993 C84.7138616,22.4196146 84.9172244,22.8296828 85.1884107,23.1721431 C85.4592735,23.5146034 85.7840501,23.7857898 86.1623092,23.9854864 C86.5402448,24.1855065 86.9789952,24.2851392 87.4786681,24.2851392 C88.0351662,24.2851392 88.5060491,24.1710576 88.8912092,23.9426789 C89.2764771,23.7146236 89.5939214,23.4183134 89.8437579,23.0545032 C90.0932708,22.6905852 90.2718333,22.2768509 90.3787982,21.8129767 C90.485871,21.349426 90.5393535,20.8749847 90.5393535,20.3896529 Z M82.0206526,14.8461301 L84.3322599,14.8461301 L84.3322599,16.3442862 L84.3750674,16.3442862 C84.7175277,15.7022809 85.1954195,15.2421807 85.8090661,14.9638778 C86.4224971,14.6855748 87.0859601,14.5464773 87.7996708,14.5464773 C88.669947,14.5464773 89.4297,14.7000237 90.0792533,15.0066853 C90.7282674,15.3136704 91.2670817,15.7344135 91.6951571,16.2694539 C92.1232325,16.8044943 92.4442352,17.4289237 92.6583807,18.142203 C92.8723106,18.8559136 92.9793834,19.6191171 92.9793834,20.4324604 C92.9793834,21.1745297 92.8830934,21.8952491 92.6905133,22.5941874 C92.4978255,23.2935569 92.2051815,23.9105463 91.8129048,24.4456944 C91.4201968,24.9807348 90.9246213,25.4089181 90.3253158,25.7299207 C89.7260102,26.0509234 89.0197396,26.2114786 88.2063963,26.2114786 C87.8494871,26.2114786 87.4926857,26.179346 87.1362078,26.1150808 C86.7792985,26.0509234 86.436946,25.9473011 86.1088268,25.8048609 C85.780384,25.6623128 85.4773886,25.4804077 85.1990856,25.2590377 C84.9208905,25.0378834 84.6888456,24.777372 84.50349,24.4778271 L84.4606825,24.4778271 L84.4606825,30 L82.0206526,30 L82.0206526,14.8461301 Z M73.82317,14.8461301 L75.6638943,14.8461301 L75.6638943,11.5285995 L78.1039242,11.5285995 L78.1039242,14.8461301 L80.3085665,14.8461301 L80.3085665,16.6653967 L78.1039242,16.6653967 L78.1039242,22.5728375 C78.1039242,22.8296828 78.114707,23.0510528 78.1360568,23.2363005 C78.1574067,23.4219796 78.207223,23.5787608 78.2859371,23.7071835 C78.3641121,23.8357139 78.4818598,23.9318961 78.6390724,23.9961613 C78.7958537,24.0604266 79.0099992,24.0925592 79.2810777,24.0925592 C79.4524157,24.0925592 79.6236459,24.0891087 79.794876,24.0817764 C79.9661062,24.0747676 80.1373364,24.0496438 80.3085665,24.0069441 L80.3085665,25.890476 C80.0372724,25.9188346 79.7735262,25.9473011 79.5165731,25.9759832 C79.2597278,26.0044497 78.9955503,26.0188986 78.7246875,26.0188986 C78.0825743,26.0188986 77.5651099,25.957976 77.1728332,25.8368857 C76.7802331,25.7157953 76.4735715,25.5372329 76.252525,25.3018453 C76.031155,25.0663499 75.8812747,24.7704711 75.8029919,24.4135618 C75.7244934,24.0570839 75.6779119,23.6503583 75.6638943,23.1936008 L75.6638943,16.6653967 L73.82317,16.6653967 L73.82317,14.8461301 Z M65.7754599,22.3587998 C65.8466261,23.0725104 66.1179202,23.5718599 66.5888032,23.8570638 C67.0595783,24.142699 67.623193,24.2851392 68.2796472,24.2851392 C68.5077025,24.2851392 68.7683217,24.2674555 69.0609657,24.2316567 C69.3531784,24.1961815 69.6281387,24.1283579 69.8849839,24.028294 C70.1417214,23.9286613 70.3522008,23.7821236 70.5164221,23.5895436 C70.68032,23.3969636 70.7551524,23.1436766 70.7411348,22.8296828 C70.7266859,22.5160124 70.6127122,22.2591671 70.3986744,22.059147 C70.1846367,21.8595582 69.9096764,21.6988951 69.5746562,21.5774813 C69.2390968,21.4564988 68.8576029,21.3527687 68.4295275,21.2672614 C68.0014521,21.1816463 67.5660444,21.0889146 67.1238435,20.9889585 C66.667086,20.8893258 66.2283356,20.767912 65.8074847,20.6250404 C65.3865259,20.4826002 65.0082668,20.2900202 64.6731387,20.0471925 C64.3376872,19.8046883 64.070167,19.4943606 63.8704703,19.1161015 C63.670558,18.7381659 63.5708175,18.2707334 63.5708175,17.7141276 C63.5708175,17.1149298 63.7169239,16.6119142 64.0095679,16.2051887 C64.3018884,15.7986788 64.6731387,15.4705595 65.1226718,15.220723 C65.5722049,14.97121 66.0713387,14.7963137 66.620828,14.6963576 C67.1699937,14.5966171 67.6943592,14.5464773 68.1940321,14.5464773 C68.7646556,14.5464773 69.3103709,14.6073998 69.8315015,14.7283824 C70.3522008,14.8497962 70.8230837,15.0461502 71.2440425,15.317013 C71.6647857,15.5883072 72.0146861,15.9414424 72.2928812,16.3764188 C72.5711842,16.8118265 72.745757,17.336192 72.8172467,17.949623 L70.2702518,17.949623 C70.1558468,17.3646584 69.8883266,16.9723818 69.4675834,16.7724695 C69.0465168,16.572665 68.5649589,16.4728167 68.0228019,16.4728167 C67.8515718,16.4728167 67.648209,16.4870499 67.4128214,16.5155164 C67.177326,16.5443063 66.9560639,16.5978966 66.7493584,16.6760716 C66.5423295,16.7546779 66.3674332,16.8687595 66.2248852,17.018532 C66.0821215,17.1684123 66.0108475,17.3646584 66.0108475,17.6071626 C66.0108475,17.9068154 66.1142541,18.1495353 66.321283,18.3348908 C66.5279884,18.5204621 66.7990669,18.6740085 67.1346263,18.7950989 C67.4696465,18.9165127 67.8515718,19.0198115 68.2796472,19.1054266 C68.7078304,19.1910417 69.1498156,19.283989 69.6067888,19.3837295 C70.048774,19.4836857 70.4842895,19.6050995 70.9123649,19.7475397 C71.3404404,19.8903034 71.7220421,20.0829913 72.0574937,20.3253876 C72.3925139,20.5682153 72.663808,20.8749847 72.870837,21.2458037 C73.0774346,21.617054 73.1811647,22.0734881 73.1811647,22.6156451 C73.1811647,23.2720993 73.0312844,23.8285973 72.7316316,24.2851392 C72.4320866,24.7420046 72.0430448,25.1129314 71.565153,25.3981353 C71.0869378,25.6837705 70.5554557,25.890476 69.970599,26.0188986 C69.385311,26.1472134 68.8073553,26.2114786 68.2368396,26.2114786 C67.5375779,26.2114786 66.8917986,26.1329801 66.2999331,25.9759832 C65.7075285,25.8190941 65.193838,25.5801482 64.7588616,25.2590377 C64.3233461,24.9380351 63.9808858,24.5386418 63.7313728,24.0604266 C63.4815363,23.582427 63.3494476,23.015254 63.3353222,22.3587998 L65.7754599,22.3587998 Z M61.6232361,25.9118258 L59.2261216,25.9118258 L59.2261216,24.3707543 L59.183314,24.3707543 C58.8836612,24.9272523 58.4374708,25.3734428 57.8456053,25.708463 C57.2533085,26.0435911 56.6503368,26.2114786 56.0369058,26.2114786 C54.5814493,26.2114786 53.5290523,25.8512267 52.8798226,25.1306151 C52.230485,24.4102192 51.9060319,23.3219156 51.9060319,21.8664592 L51.9060319,14.8461301 L54.3460618,14.8461301 L54.3460618,21.6310716 C54.3460618,22.6016275 54.5313095,23.2865482 54.9025598,23.6858336 C55.2733788,24.0854426 55.7940781,24.2851392 56.4649812,24.2851392 C56.9786717,24.2851392 57.4067471,24.2068564 57.7492075,24.0496438 C58.0916678,23.8928625 58.3699707,23.682491 58.5839006,23.4183134 C58.7980462,23.1544594 58.9511613,22.837015 59.0441087,22.4658726 C59.1367325,22.0949458 59.183314,21.695229 59.183314,21.2672614 L59.183314,14.8461301 L61.6232361,14.8461301 L61.6232361,25.9118258 Z M43.9408099,14.8461301 L46.2309594,14.8461301 L46.2309594,16.9863994 L46.2738748,16.9863994 C46.345041,16.6867466 46.4841386,16.3945339 46.6911675,16.1090065 C46.8978729,15.8236947 47.1477094,15.5631834 47.4403534,15.3277958 C47.7325661,15.0923004 48.0573427,14.9032787 48.4142519,14.760515 C48.7707298,14.6180748 49.13454,14.5464773 49.5057903,14.5464773 C49.7911021,14.5464773 49.9873482,14.5538095 50.094421,14.567935 C50.2014938,14.582276 50.3118014,14.5966171 50.4262064,14.6107425 L50.4262064,16.9650495 C50.2549762,16.936583 50.0800799,16.911567 49.9017331,16.8901093 C49.7231707,16.8687595 49.5485979,16.8580846 49.3773677,16.8580846 C48.9633099,16.8580846 48.5746993,16.940357 48.2108891,17.104147 C47.847079,17.2684763 47.5293111,17.5108726 47.2584483,17.8318753 C46.9871541,18.1529857 46.7731164,18.5489286 46.6163352,19.0198115 C46.4591226,19.4906945 46.3808398,20.0331749 46.3808398,20.6464981 L46.3808398,25.9118258 L43.9408099,25.9118258 L43.9408099,14.8461301 Z M32.104794,10.6296411 L44.4761737,10.6296411 L44.4761737,12.9412484 L39.6174638,12.9412484 L39.6174638,25.9118258 L36.9420463,25.9118258 L36.9420463,12.9412484 L32.104794,12.9412484 L32.104794,10.6296411 L32.104794,10.6296411 Z" id="Fill-1" fill="#161615"></path>
                    <polyline id="Fill-3" fill="#11AA73" points="29.255882 10.6296411 18.0805256 10.6277002 14.6279949 0 11.1757877 10.6265141 0 10.624681 9.04166457 17.1956926 5.58881037 27.8244711 14.629181 21.2563708 23.6670716 27.8244711 20.2149722 17.1980649 29.255882 10.6296411"></polyline>
                </g>
                <polyline id="Fill-5" fill="#114728" points="20.9975847 19.6071482 20.2149722 17.1980649 14.629181 21.2563708 20.9975847 19.6071482"></polyline>
            </g>
        </g>
    </g>
</svg>